<svg width="143" height="51" viewBox="0 0 143 51" fill="none" xmlns="http://www.w3.org/2000/svg">
<mask id="mask0" mask-type="alpha" maskUnits="userSpaceOnUse" x="66" y="0" width="52" height="51">
<path d="M66.9323 25.0019C66.9323 18.3146 69.5424 12.0608 74.2654 7.29297C84.022 -2.42839 99.9932 -2.42839 109.75 7.29298C114.473 11.9989 117.083 18.3146 117.083 25.0019C117.083 31.6893 114.473 37.9431 109.75 42.7109C99.9932 52.4323 84.022 52.4323 74.2654 42.7109C69.5424 38.005 66.9323 31.6892 66.9323 25.0019ZM115.902 25.0019C115.902 18.6242 113.416 12.68 108.942 8.22177C99.6203 -1.06616 84.5192 -1.06616 75.1975 8.22177C70.661 12.7419 68.2374 18.6862 68.2374 25.0019C68.2374 31.3797 70.7231 37.3239 75.1975 41.7821C84.5192 51.0701 99.6203 51.0701 108.942 41.7821C113.416 37.3239 115.902 31.3797 115.902 25.0019Z" fill="url(#paint0_linear)"/>
</mask>
<g mask="url(#mask0)">
<path d="M66.9323 25.0019C66.9323 18.3146 69.5424 12.0608 74.2654 7.29297C84.022 -2.42839 99.9932 -2.42839 109.75 7.29298C114.473 11.9989 117.083 18.3146 117.083 25.0019C117.083 31.6893 114.473 37.9431 109.75 42.7109C99.9932 52.4323 84.022 52.4323 74.2654 42.7109C69.5424 38.005 66.9323 31.6892 66.9323 25.0019ZM115.902 25.0019C115.902 18.6242 113.416 12.68 108.942 8.22177C99.6203 -1.06616 84.5192 -1.06616 75.1975 8.22177C70.661 12.7419 68.2374 18.6862 68.2374 25.0019C68.2374 31.3797 70.7231 37.3239 75.1975 41.7821C84.5192 51.0701 99.6203 51.0701 108.942 41.7821C113.416 37.3239 115.902 31.3797 115.902 25.0019Z" fill="#1F160A"/>
</g>
<path d="M131.065 25.3731L131.065 24.4443L1.12149 24.4443L1.12149 25.3731L131.065 25.3731Z" fill="#1F160A"/>
<path d="M30.7022 6.67383C40.8938 6.67383 49.1591 14.9091 49.1591 25.0639C49.1591 35.2187 40.8938 43.454 30.7022 43.454C28.8378 43.454 27.0357 43.2063 25.3578 42.6491C32.9394 40.358 38.5323 33.3611 38.5323 25.002C38.5323 16.7048 33.0015 9.64595 25.3578 7.35493C27.0357 6.98341 28.8378 6.67383 30.7022 6.67383Z" fill="#1F160A"/>
<path d="M23.1827 42.7114L25.1713 42.0922C32.6286 39.8631 37.8488 32.8662 37.8488 25.0644C37.8488 17.2625 32.6286 10.2656 25.1713 8.0365L23.1827 7.4173L25.1713 6.79811C26.9735 6.24083 28.7757 5.99316 30.7022 5.99316C41.2046 5.99316 49.7805 14.538 49.7805 25.0024C49.7805 35.4668 41.2046 44.0117 30.7022 44.0117C28.8378 44.0117 26.9735 43.7641 25.1713 43.2068L23.1827 42.7114ZM48.5376 25.1263C48.5376 15.343 40.521 7.35538 30.7022 7.35538C29.6457 7.35538 28.5893 7.47922 27.5328 7.66498C34.493 10.6371 39.1538 17.5721 39.1538 25.1882C39.1538 32.8043 34.493 39.7393 27.5328 42.7114C28.5893 42.8972 29.6457 43.021 30.7022 43.021C40.521 42.8972 48.5376 34.9096 48.5376 25.1263Z" fill="#1F160A"/>
<path d="M4.9123 28.7181C2.79939 28.7181 1.05934 26.9843 1.05934 24.8791C1.05934 22.7738 2.79939 21.04 4.9123 21.04C7.02521 21.04 8.76526 22.7738 8.76526 24.8791C8.76526 27.0462 7.02521 28.7181 4.9123 28.7181Z" fill="#1F160A"/>
<path d="M0.500081 24.9406C0.500081 22.5258 2.48867 20.4824 4.97445 20.4824C7.46022 20.4824 9.44885 22.4639 9.44885 24.9406C9.44885 27.4174 7.46022 29.3988 4.97445 29.3988C2.48867 29.3988 0.500081 27.3555 0.500081 24.9406ZM8.14383 24.9406C8.14384 23.2069 6.71451 21.7208 4.91232 21.7208C3.17228 21.7208 1.6808 23.145 1.6808 24.9406C1.6808 26.6744 3.11013 28.1604 4.91232 28.1604C6.71451 28.0985 8.14383 26.6744 8.14383 24.9406Z" fill="#1F160A"/>
<path d="M21.8777 30.0798L16.6576 24.9405L21.8777 19.7393L27.0356 24.9405L21.8777 30.0798Z" fill="#1F160A"/>
<path d="M118.699 34.6613C113.354 29.3362 113.354 20.7294 118.699 15.4043C122.241 11.8749 127.212 10.6984 131.749 11.813C134.048 12.3703 136.223 13.6087 138.088 15.4043C143.432 20.7294 143.432 29.3362 138.088 34.6613C136.286 36.457 134.111 37.6334 131.749 38.2526C127.212 39.3672 122.179 38.1907 118.699 34.6613Z" fill="#1F160A"/>
<path d="M114.224 25.0022C114.224 21.4108 115.591 17.8195 118.326 15.0331C121.806 11.5656 126.964 10.1415 131.811 11.318C134.297 11.9372 136.534 13.2375 138.336 15.0331C141.009 17.6957 142.5 21.2251 142.5 25.0022C142.5 28.7793 141.009 32.3087 138.336 34.9712C136.534 36.7669 134.297 38.0672 131.811 38.6864C127.026 39.9248 121.868 38.5006 118.326 34.9712C115.591 32.2467 114.224 28.6554 114.224 25.0022ZM141.568 25.0022C141.568 21.4728 140.201 18.191 137.715 15.6523C136.037 13.9805 133.924 12.7421 131.625 12.1848C127.15 11.0703 122.303 12.3706 119.009 15.6523C113.851 20.7916 113.851 29.1508 119.009 34.2901C122.303 37.5718 127.15 38.8721 131.625 37.7576C133.924 37.2003 136.037 35.9619 137.715 34.2901C140.201 31.8752 141.568 28.5316 141.568 25.0022Z" fill="#1F160A"/>
<path d="M124.54 34.6615C120.812 30.9463 120.812 24.9401 124.54 21.2249C127.026 18.7482 130.444 17.9432 133.613 18.7482C135.229 19.1816 136.72 19.9866 138.026 21.2249C141.754 24.9401 141.754 30.9463 138.026 34.6615C136.783 35.8999 135.229 36.7667 133.613 37.1382C130.506 37.9432 127.026 37.1382 124.54 34.6615Z" fill="#1F160A"/>
<path d="M121.309 27.9742C121.309 25.4355 122.303 22.8968 124.229 20.9773C126.715 18.5005 130.32 17.5098 133.738 18.3767C135.478 18.8101 137.031 19.7389 138.336 20.9773C142.251 24.8782 142.251 31.1321 138.336 35.033C137.093 36.2714 135.478 37.2002 133.738 37.6336C130.382 38.5005 126.715 37.5098 124.229 35.033C122.303 33.0516 121.309 30.5129 121.309 27.9742ZM140.387 27.9742C140.387 25.6832 139.517 23.3302 137.715 21.5965C136.534 20.42 135.105 19.615 133.551 19.2435C130.444 18.4386 127.15 19.3674 124.913 21.5965C121.371 25.1259 121.371 30.8844 124.913 34.4138C127.15 36.6429 130.506 37.5717 133.551 36.7667C135.105 36.3952 136.596 35.5284 137.715 34.4138C139.455 32.5562 140.387 30.2652 140.387 27.9742Z" fill="#1F160A"/>
<defs>
<linearGradient id="paint0_linear" x1="92.0447" y1="0.028887" x2="92.0447" y2="50.0169" gradientUnits="userSpaceOnUse">
<stop stop-color="white"/>
<stop offset="0.5421"/>
<stop offset="1" stop-color="#F1F1F1"/>
</linearGradient>
</defs>
</svg>
