<svg width="143" height="50" viewBox="0 0 143 50" fill="none" xmlns="http://www.w3.org/2000/svg">
<mask id="mask0" mask-type="alpha" maskUnits="userSpaceOnUse" x="66" y="-1" width="52" height="51">
<path d="M66.9323 24.9991C66.9323 18.3118 69.5424 12.058 74.2654 7.29017C84.022 -2.4312 99.9932 -2.4312 109.75 7.29017C114.473 11.9961 117.083 18.3118 117.083 24.9991C117.083 31.6864 114.473 37.9403 109.75 42.7081C99.9932 52.4295 84.022 52.4295 74.2654 42.7081C69.5424 38.0022 66.9323 31.6864 66.9323 24.9991ZM115.902 24.9991C115.902 18.6214 113.416 12.6772 108.942 8.21896C99.6203 -1.06897 84.5192 -1.06897 75.1975 8.21896C70.661 12.7391 68.2374 18.6833 68.2374 24.9991C68.2374 31.3768 70.7231 37.3211 75.1975 41.7793C84.5192 51.0673 99.6203 51.0673 108.942 41.7793C113.416 37.3211 115.902 31.3768 115.902 24.9991Z" fill="url(#paint0_linear)"/>
</mask>
<g mask="url(#mask0)">
<path d="M66.9323 24.9991C66.9323 18.3118 69.5424 12.058 74.2654 7.29017C84.022 -2.4312 99.9932 -2.4312 109.75 7.29017C114.473 11.9961 117.083 18.3118 117.083 24.9991C117.083 31.6864 114.473 37.9403 109.75 42.7081C99.9932 52.4295 84.022 52.4295 74.2654 42.7081C69.5424 38.0022 66.9323 31.6864 66.9323 24.9991ZM115.902 24.9991C115.902 18.6214 113.416 12.6772 108.942 8.21896C99.6203 -1.06897 84.5192 -1.06897 75.1975 8.21896C70.661 12.7391 68.2374 18.6833 68.2374 24.9991C68.2374 31.3768 70.7231 37.3211 75.1975 41.7793C84.5192 51.0673 99.6203 51.0673 108.942 41.7793C113.416 37.3211 115.902 31.3768 115.902 24.9991Z" fill="#F6C37D"/>
</g>
<path d="M131.065 25.3706L131.065 24.4418L1.12149 24.4418L1.12149 25.3706L131.065 25.3706Z" fill="#F6C37D"/>
<path d="M30.7022 6.67102C40.8938 6.67102 49.1591 14.9063 49.1591 25.0611C49.1591 35.2159 40.8938 43.4512 30.7022 43.4512C28.8378 43.4512 27.0357 43.2035 25.3578 42.6462C32.9394 40.3552 38.5323 33.3583 38.5323 24.9992C38.5323 16.702 33.0015 9.64314 25.3578 7.35212C27.0357 6.9806 28.8378 6.67102 30.7022 6.67102Z" fill="#1F160A"/>
<path d="M23.1827 42.7082L25.1713 42.089C32.6286 39.8599 37.8488 32.863 37.8488 25.0611C37.8488 17.2593 32.6286 10.2624 25.1713 8.03326L23.1827 7.41407L25.1713 6.79487C26.9735 6.2376 28.7757 5.98993 30.7022 5.98993C41.2046 5.98993 49.7805 14.5348 49.7805 24.9992C49.7805 35.4636 41.2046 44.0085 30.7022 44.0085C28.8378 44.0085 26.9735 43.7608 25.1713 43.2036L23.1827 42.7082ZM48.5376 25.1231C48.5376 15.3398 40.521 7.35215 30.7022 7.35215C29.6457 7.35215 28.5893 7.47599 27.5328 7.66174C34.493 10.6339 39.1538 17.5689 39.1538 25.185C39.1538 32.8011 34.493 39.7361 27.5328 42.7082C28.5893 42.894 29.6457 43.0178 30.7022 43.0178C40.521 42.894 48.5376 34.9063 48.5376 25.1231Z" fill="#F6C37D"/>
<path d="M4.9123 28.7143C2.79939 28.7143 1.05934 26.9806 1.05934 24.8753C1.05934 22.7701 2.79939 21.0363 4.9123 21.0363C7.02521 21.0363 8.76526 22.7701 8.76526 24.8753C8.76526 27.0425 7.02521 28.7143 4.9123 28.7143Z" fill="#1F160A"/>
<path d="M0.500081 24.9373C0.500081 22.5224 2.48867 20.4791 4.97445 20.4791C7.46022 20.4791 9.44885 22.4605 9.44885 24.9373C9.44885 27.4141 7.46022 29.3955 4.97445 29.3955C2.48867 29.3955 0.500081 27.3521 0.500081 24.9373ZM8.14383 24.9373C8.14384 23.2035 6.71451 21.7175 4.91232 21.7175C3.17228 21.7175 1.6808 23.1416 1.6808 24.9373C1.6808 26.671 3.11013 28.1571 4.91232 28.1571C6.71451 28.0952 8.14383 26.671 8.14383 24.9373Z" fill="#F6C37D"/>
<path d="M21.8777 30.0765L16.6576 24.9372L21.8777 19.736L27.0356 24.9372L21.8777 30.0765Z" fill="#F6C37D"/>
<path d="M118.699 34.6587C113.354 29.3336 113.354 20.7268 118.699 15.4017C122.241 11.8723 127.212 10.6958 131.749 11.8104C134.048 12.3677 136.223 13.606 138.088 15.4017C143.432 20.7268 143.432 29.3336 138.088 34.6587C136.286 36.4543 134.111 37.6308 131.749 38.25C127.212 39.3646 122.179 38.1881 118.699 34.6587Z" fill="#1F160A"/>
<path d="M114.224 24.9992C114.224 21.4078 115.591 17.8165 118.326 15.0301C121.806 11.5627 126.964 10.1385 131.811 11.315C134.297 11.9342 136.534 13.2345 138.336 15.0301C141.009 17.6927 142.5 21.2221 142.5 24.9992C142.5 28.7763 141.009 32.3057 138.336 34.9682C136.534 36.7639 134.297 38.0642 131.811 38.6834C127.026 39.9218 121.868 38.4976 118.326 34.9682C115.591 32.2438 114.224 28.6524 114.224 24.9992ZM141.568 24.9992C141.568 21.4698 140.201 18.188 137.715 15.6493C136.037 13.9775 133.924 12.7391 131.625 12.1818C127.15 11.0673 122.303 12.3676 119.009 15.6493C113.851 20.7887 113.851 29.1478 119.009 34.2871C122.303 37.5688 127.15 38.8691 131.625 37.7546C133.924 37.1973 136.037 35.9589 137.715 34.2871C140.201 31.8722 141.568 28.5286 141.568 24.9992Z" fill="#F6C37D"/>
<path d="M124.54 34.6587C120.812 30.9435 120.812 24.9373 124.54 21.2221C127.026 18.7454 130.444 17.9404 133.613 18.7454C135.229 19.1788 136.72 19.9837 138.026 21.2221C141.754 24.9373 141.754 30.9435 138.026 34.6587C136.783 35.897 135.229 36.7639 133.613 37.1354C130.506 37.9404 127.026 37.1354 124.54 34.6587Z" fill="#1F160A"/>
<path d="M121.309 27.9713C121.309 25.4326 122.303 22.8939 124.229 20.9744C126.715 18.4976 130.32 17.5069 133.738 18.3738C135.478 18.8072 137.031 19.736 138.336 20.9744C142.251 24.8753 142.251 31.1292 138.336 35.0301C137.093 36.2685 135.478 37.1973 133.738 37.6308C130.382 38.4976 126.715 37.5069 124.229 35.0301C122.303 33.0487 121.309 30.51 121.309 27.9713ZM140.387 27.9713C140.387 25.6803 139.517 23.3273 137.715 21.5936C136.534 20.4171 135.105 19.6122 133.551 19.2407C130.444 18.4357 127.15 19.3645 124.913 21.5936C121.371 25.123 121.371 30.8815 124.913 34.4109C127.15 36.64 130.506 37.5688 133.551 36.7639C135.105 36.3924 136.596 35.5255 137.715 34.4109C139.455 32.5534 140.387 30.2623 140.387 27.9713Z" fill="#F6C37D"/>
<defs>
<linearGradient id="paint0_linear" x1="92.0447" y1="0.0260794" x2="92.0447" y2="50.0141" gradientUnits="userSpaceOnUse">
<stop stop-color="white"/>
<stop offset="0.5421"/>
<stop offset="1" stop-color="#F1F1F1"/>
</linearGradient>
</defs>
</svg>
