<svg width="64" height="12" viewBox="0 0 64 12" fill="none" xmlns="http://www.w3.org/2000/svg">
<path d="M0 11.802C0.399376 11.9012 0.798754 11.9012 1.29797 11.9012C4.59282 11.9012 7.28861 9.22344 7.28861 5.95061C7.28861 2.67777 4.59282 0 1.29797 0C0.898598 0 0.399376 3.76851e-07 0 0.0991771C2.69579 0.694238 4.69267 3.07448 4.69267 5.95061C4.69267 8.82673 2.69579 11.207 0 11.802Z" fill="#1F160A"/>
<path d="M12.78 11.4058C13.5788 11.8025 14.4774 12.0008 15.376 12.0008C18.6708 12.0008 21.3666 9.32305 21.3666 6.05021C21.3666 2.77738 18.6708 0.0996094 15.376 0.0996094C14.4774 0.0996094 13.5788 0.297961 12.78 0.694668C14.7769 1.68644 16.1747 3.66997 16.1747 6.05021C16.1747 8.43046 14.7769 10.414 12.78 11.4058Z" fill="#1F160A"/>
<path d="M37.4414 3.5708C37.4414 3.5708 37.4414 3.47162 37.3416 3.47162C36.3431 1.48808 34.3462 0.0996094 31.95 0.0996094C29.5537 0.0996094 27.5568 1.48808 26.5584 3.47162C26.5584 3.47162 26.5584 3.5708 26.4586 3.5708C26.4586 3.66997 26.4586 3.66997 26.3587 3.76915C26.0592 4.46339 25.8595 5.2568 25.8595 6.05021C25.8595 9.32305 28.5553 12.0008 31.8501 12.0008C35.145 12.0008 37.8408 9.32305 37.8408 6.05021C37.8408 5.2568 37.6411 4.46339 37.3416 3.76915C37.5412 3.66997 37.4414 3.5708 37.4414 3.5708Z" fill="#1F160A"/>
<path d="M64 0.198785C63.6007 0.0996079 63.2013 0.0996094 62.7021 0.0996094C59.4072 0.0996094 56.7114 2.77738 56.7114 6.05021C56.7114 9.32305 59.4072 12.0008 62.7021 12.0008C63.1014 12.0008 63.6007 12.0008 64 11.9016C61.3042 11.3066 59.3074 8.92634 59.3074 6.05021C59.3074 3.17409 61.3042 0.793845 64 0.198785Z" fill="#1F160A"/>
<path d="M51.2199 0.694668C50.4211 0.297961 49.5225 0.0996094 48.6239 0.0996094C45.3291 0.0996094 42.6333 2.77738 42.6333 6.05021C42.6333 9.32305 45.3291 12.0008 48.6239 12.0008C49.5225 12.0008 50.4211 11.8025 51.2199 11.4058C49.223 10.414 47.8252 8.43046 47.8252 6.05021C47.8252 3.66997 49.223 1.58726 51.2199 0.694668Z" fill="#1F160A"/>
</svg>
