<svg width="120" height="120" viewBox="0 0 120 120" fill="none" xmlns="http://www.w3.org/2000/svg">
<path d="M95.3384 44.3105L60.6015 85.0624L25.7143 44.3105H1.50378L60.6015 113.333L119.699 44.3105H95.3384Z" stroke="#1F160A" stroke-width="1.2" stroke-miterlimit="10" stroke-linecap="round" stroke-linejoin="round"/>
<path d="M47.6692 18.7461L7.81958 120.551L58.6466 29.4228L51.7294 25.3626L47.6692 18.7461Z" fill="#1F160A"/>
<path d="M73.8285 17.5073C75.0155 10.2119 70.0638 3.33548 62.7684 2.14841C55.473 0.961334 48.5966 5.9131 47.4095 13.2085C46.2224 20.5039 51.1742 27.3803 58.4696 28.5674C65.765 29.7544 72.6414 24.8027 73.8285 17.5073Z" stroke="#1F160A" stroke-width="1.2" stroke-miterlimit="10" stroke-linecap="round" stroke-linejoin="round"/>
<path d="M65.8647 15.4378C65.8647 18.295 63.4587 20.701 60.6015 20.701C57.7444 20.701 55.3384 18.295 55.3384 15.4378C55.3384 12.5807 57.7444 10.1747 60.6015 10.1747C63.4587 10.0243 65.8647 12.4303 65.8647 15.4378Z" fill="#1F160A"/>
<path d="M87.218 53.7837L73.5338 18.7461L69.0225 25.9641L62.406 29.4228L80.4511 61.7536L87.218 53.7837Z" fill="#1F160A"/>
<path d="M90.0752 78.8959L113.233 120.55L94.7368 73.332L90.0752 78.8959Z" fill="#1F160A"/>
</svg>
