<svg width="179" height="179" viewBox="0 0 179 179" fill="none" xmlns="http://www.w3.org/2000/svg">
<path d="M135.621 36.3331C133.305 40.3442 132.086 44.8943 132.086 49.5261C132.086 54.1578 133.305 58.7079 135.621 62.7191C137.937 66.7303 141.267 70.0612 145.279 72.377C149.29 74.6928 153.84 75.9119 158.472 75.9119M158.472 128.683C136.613 166.544 88.2012 179.516 50.3412 157.657C12.4808 135.798 -0.491489 87.3861 21.3673 49.5261C43.2261 11.6661 91.6379 -1.30611 129.498 20.5527C167.358 42.4114 180.331 90.8233 158.472 128.683Z" stroke="#FEF9DC" stroke-width="0.473197" stroke-linecap="round" stroke-linejoin="round"/>
<path d="M158.472 49.5257C156.156 53.5369 154.937 58.087 154.937 62.7188C154.937 67.3505 156.156 71.9006 158.472 75.9118M112.77 23.1404C105.499 35.7588 109.827 51.8824 122.44 59.1641C135.052 66.4457 151.179 62.1322 158.472 49.5261L112.77 23.1404ZM89.9196 9.94733C88.1691 12.9489 87.0287 16.2667 86.5638 19.7101C86.099 23.1536 86.3188 26.655 87.2108 30.0133C88.1028 33.3716 89.6493 36.5206 91.7615 39.2796C93.8738 42.0386 96.5102 44.3532 99.5194 46.0906C102.529 47.828 105.851 48.9539 109.297 49.4037C112.742 49.8535 116.243 49.6183 119.597 48.7117C122.951 47.8051 126.094 46.2448 128.843 44.1205C131.593 41.9963 133.896 39.3498 135.62 36.333L89.9196 9.94733ZM67.069 23.14C69.3848 27.1511 72.7157 30.4819 76.7268 32.7977C80.7379 35.1135 85.2879 36.3327 89.9196 36.3327C94.5512 36.3327 99.1012 35.1135 103.112 32.7977C107.123 30.4819 110.454 27.1511 112.77 23.14H67.069ZM135.621 36.333C137.937 40.3443 141.268 43.6752 145.279 45.9911C149.29 48.3069 153.84 49.5261 158.472 49.5261L135.621 36.333ZM112.77 23.1404C115.086 27.1515 118.417 30.4823 122.428 32.7981C126.439 35.1139 130.989 36.333 135.621 36.333L112.77 23.1404ZM89.9196 9.94733C92.2354 13.9584 95.5663 17.2892 99.5774 19.605C103.589 21.9208 108.139 23.14 112.77 23.14L89.9196 9.94733ZM67.069 23.14C71.7006 23.14 76.2506 21.9208 80.2617 19.605C84.2729 17.2892 87.6037 13.9584 89.9196 9.94733L67.069 23.14Z" stroke="#FEF9DC" stroke-width="0.473197" stroke-linecap="round" stroke-linejoin="round"/>
<path fill-rule="evenodd" clip-rule="evenodd" d="M135.621 62.7187C130.285 71.9612 119.906 77.0791 109.326 75.6861C98.7452 74.293 90.0456 66.6636 87.2836 56.3551C84.5211 46.0465 88.2407 35.0898 96.7076 28.5926C105.174 22.0959 116.721 21.3396 125.963 26.6751C128.964 28.4076 131.594 30.7142 133.703 33.4632C135.813 36.2122 137.36 39.3498 138.257 42.6968C139.154 46.0437 139.382 49.5346 138.93 52.9699C138.478 56.4053 137.353 59.718 135.621 62.7187Z" stroke="#FEF9DC" stroke-width="0.473197" stroke-linecap="round" stroke-linejoin="round"/>
<path fill-rule="evenodd" clip-rule="evenodd" d="M158.472 75.9118C153.135 85.1539 142.757 90.2718 132.177 88.8792C121.596 87.4857 112.896 79.8563 110.134 69.5482C107.372 59.2396 111.091 48.2825 119.558 41.7857C128.025 35.289 139.571 34.5322 148.814 39.8682C161.434 47.1543 165.758 63.2914 158.472 75.9118V75.9118Z" stroke="#FEF9DC" stroke-width="0.473197" stroke-linecap="round" stroke-linejoin="round"/>
<path d="M44.2179 36.3331C47.7169 42.3935 53.48 46.8157 60.2395 48.627C63.5865 49.5238 67.0773 49.7526 70.5127 49.3003C73.9481 48.848 77.2608 47.7236 80.2616 45.991C83.2624 44.2585 85.8926 41.9519 88.002 39.2029C90.1113 36.4539 91.6586 33.3164 92.5554 29.9694C93.4523 26.6225 93.6811 23.1316 93.2288 19.6962C92.7765 16.2609 91.652 12.9482 89.9195 9.94737M112.77 49.5257C105.484 62.1461 89.3465 66.4698 76.7265 59.1837C64.1065 51.8976 59.7824 35.7604 67.0689 23.1404C74.3546 10.52 90.4922 6.19635 103.112 13.4825C115.733 20.7686 120.056 36.9057 112.77 49.5261V49.5257ZM158.472 49.5257C155.007 49.5257 151.576 50.2082 148.374 51.5342C145.173 52.8602 142.264 54.8038 139.814 57.2539C137.364 59.7041 135.421 62.6128 134.095 65.8141C132.769 69.0153 132.086 72.4464 132.086 75.9115C132.086 79.3765 132.769 82.8076 134.095 86.0088C135.421 89.2101 137.364 92.1188 139.814 94.569C142.264 97.0191 145.173 98.9627 148.374 100.289C151.576 101.615 155.007 102.297 158.472 102.297V49.5257Z" stroke="#FEF9DC" stroke-width="0.473197" stroke-linecap="round" stroke-linejoin="round"/>
<path fill-rule="evenodd" clip-rule="evenodd" d="M135.621 89.1045C128.335 101.725 112.197 106.049 99.5771 98.7624C86.9571 91.4763 82.633 75.3388 89.9195 62.7188C97.2056 50.0984 113.343 45.7747 125.963 53.0608C138.583 60.3473 142.907 76.4845 135.621 89.1045V89.1045Z" stroke="#FEF9DC" stroke-width="0.473197" stroke-linecap="round" stroke-linejoin="round"/>
<path fill-rule="evenodd" clip-rule="evenodd" d="M158.472 102.297C153.135 111.54 142.757 116.658 132.177 115.265C121.596 113.872 112.896 106.242 110.134 95.9339C107.372 85.6253 111.091 74.6682 119.558 68.1714C128.025 61.6747 139.571 60.918 148.814 66.2539C151.815 67.9864 154.445 70.293 156.554 73.042C158.664 75.791 160.211 78.9285 161.108 82.2755C162.005 85.6225 162.233 89.1133 161.781 92.5487C161.329 95.9841 160.204 99.2968 158.472 102.298V102.297Z" stroke="#FEF9DC" stroke-width="0.473197" stroke-linecap="round" stroke-linejoin="round"/>
<path fill-rule="evenodd" clip-rule="evenodd" d="M112.77 75.9118C107.434 85.1539 97.0559 90.2718 86.4755 88.8792C75.8947 87.4857 67.1951 79.8563 64.4326 69.5482C61.6706 59.2396 65.3902 48.2825 73.8571 41.7857C82.3236 35.289 93.8702 34.5322 103.112 39.8682C115.733 47.1543 120.056 63.2914 112.77 75.9118V75.9118Z" stroke="#FEF9DC" stroke-width="0.473197" stroke-linecap="round" stroke-linejoin="round"/>
<path d="M158.472 75.9119C156.156 79.923 154.937 84.4731 154.937 89.1047C154.937 93.7364 156.156 98.2864 158.472 102.298M89.9195 62.7188C84.5832 71.9612 74.2053 77.0792 63.6249 75.6861C53.044 74.2931 44.344 66.6637 41.582 56.3551C38.82 46.0465 42.5396 35.0898 51.0061 28.5927C59.4726 22.0959 71.0191 21.3396 80.2616 26.6751C83.2624 28.4076 85.8926 30.7142 88.002 33.4632C90.1114 36.2122 91.6587 39.3497 92.5555 42.6967C93.4523 46.0437 93.6811 49.5345 93.2288 52.9699C92.7766 56.4053 91.6521 59.718 89.9195 62.7188V62.7188ZM21.3673 49.5257C23.0928 52.5399 25.3965 55.1838 28.1461 57.3057C30.8957 59.4276 34.0372 60.9858 37.3903 61.8908C40.7435 62.7959 44.2423 63.0301 47.6862 62.5799C51.13 62.1298 54.4511 61.0041 57.459 59.2676C60.4668 57.531 63.1022 55.2177 65.2141 52.4603C67.3259 49.703 68.8725 46.5558 69.7653 43.1994C70.6581 39.8429 70.8795 36.3432 70.4167 32.901C69.9539 29.4588 68.8161 26.1419 67.0685 23.1404L21.3673 49.5257ZM158.472 75.9119C151.474 75.9119 144.763 78.6918 139.814 83.6401C134.866 88.5883 132.086 95.2996 132.086 102.298C132.086 109.296 134.866 116.007 139.814 120.955C144.763 125.903 151.474 128.683 158.472 128.683V75.9119ZM44.2179 36.3331C48.8496 36.333 53.3996 35.1138 57.4108 32.798C61.4219 30.4821 64.7527 27.1512 67.0685 23.14L44.2179 36.3331Z" stroke="#FEF9DC" stroke-width="0.473197" stroke-linecap="round" stroke-linejoin="round"/>
<path fill-rule="evenodd" clip-rule="evenodd" d="M135.621 115.49C130.285 124.733 119.906 129.851 109.326 128.458C98.7452 127.064 90.0456 119.435 87.2836 109.127C84.5211 98.8184 88.2407 87.8608 96.7076 81.3641C105.174 74.8674 116.721 74.111 125.963 79.447C138.583 86.7327 142.907 102.87 135.621 115.49V115.49Z" stroke="#FEF9DC" stroke-width="0.473197" stroke-linecap="round" stroke-linejoin="round"/>
<path fill-rule="evenodd" clip-rule="evenodd" d="M112.77 102.297C107.434 111.54 97.0559 116.658 86.4755 115.265C75.8947 113.872 67.1951 106.242 64.4326 95.9339C61.6706 85.6253 65.3902 74.6682 73.8571 68.1714C82.3237 61.6747 93.8702 60.918 103.112 66.2539C106.113 67.9864 108.743 70.293 110.853 73.042C112.962 75.791 114.509 78.9285 115.406 82.2755C116.303 85.6225 116.532 89.1133 116.079 92.5487C115.627 95.9841 114.503 99.2968 112.77 102.298V102.297Z" stroke="#FEF9DC" stroke-width="0.473197" stroke-linecap="round" stroke-linejoin="round"/>
<path fill-rule="evenodd" clip-rule="evenodd" d="M158.472 128.683C151.185 141.304 135.048 145.627 122.428 138.341C109.808 131.055 105.484 114.918 112.77 102.298C120.056 89.6771 136.194 85.3535 148.814 92.6396C151.815 94.3721 154.445 96.6787 156.554 99.4277C158.664 102.177 160.211 105.314 161.108 108.661C162.005 112.008 162.233 115.499 161.781 118.934C161.329 122.37 160.204 125.682 158.472 128.683V128.683ZM89.9195 89.1045C82.633 101.725 66.4958 106.049 53.8758 98.7624C41.2554 91.4763 36.9318 75.3388 44.2179 62.7188C51.504 50.0984 67.6416 45.7747 80.2616 53.0608C92.882 60.3473 97.2056 76.4845 89.9195 89.1045Z" stroke="#FEF9DC" stroke-width="0.473197" stroke-linecap="round" stroke-linejoin="round"/>
<path fill-rule="evenodd" clip-rule="evenodd" d="M67.0689 75.9118C61.7326 85.1539 51.3547 90.2718 40.7738 88.8792C30.193 87.4857 21.4934 79.8563 18.7314 69.5481C15.9693 59.2396 19.6885 48.2824 28.1555 41.7857C36.622 35.289 48.1685 34.5322 57.411 39.8681C60.4118 41.6007 63.0419 43.9073 65.1513 46.6563C67.2606 49.4053 68.8079 52.5429 69.7047 55.8898C70.6014 59.2368 70.8302 62.7276 70.3779 66.163C69.9256 69.5984 68.8011 72.911 67.0685 75.9118H67.0689ZM21.3673 75.9118C25.999 75.9118 30.5491 74.6926 34.5602 72.3768C38.5714 70.0609 41.9023 66.73 44.2181 62.7189C46.5339 58.7077 47.7531 54.1576 47.7531 49.5259C47.753 44.8942 46.5338 40.3442 44.2179 36.333L21.3673 75.9118ZM158.472 102.297C153.84 102.297 149.29 103.516 145.279 105.832C141.268 108.148 137.937 111.479 135.621 115.49C133.305 119.501 132.086 124.051 132.086 128.683C132.086 133.315 133.305 137.865 135.621 141.876L158.472 102.297ZM21.3673 49.5257C25.9989 49.5257 30.549 48.3065 34.5601 45.9907C38.5712 43.675 41.9021 40.3441 44.2179 36.333L21.3673 49.5257ZM158.472 102.297C156.156 106.308 154.937 110.858 154.937 115.49C154.937 120.122 156.156 124.672 158.472 128.683V102.297ZM112.77 128.683C105.484 141.304 89.3465 145.627 76.7265 138.341C64.1061 131.055 59.7824 114.918 67.0685 102.298C74.3551 89.6771 90.4922 85.3534 103.112 92.6396C106.113 94.3721 108.743 96.6787 110.853 99.4277C112.962 102.177 114.509 105.314 115.406 108.661C116.303 112.008 116.532 115.499 116.079 118.934C115.627 122.37 114.503 125.682 112.77 128.683V128.683Z" stroke="#FEF9DC" stroke-width="0.473197" stroke-linecap="round" stroke-linejoin="round"/>
<path fill-rule="evenodd" clip-rule="evenodd" d="M135.621 141.876C130.285 151.118 119.906 156.236 109.326 154.843C98.7452 153.45 90.0456 145.821 87.2836 135.513C84.5211 125.204 88.2407 114.247 96.7076 107.75C105.174 101.253 116.721 100.497 125.963 105.833C138.583 113.118 142.907 129.256 135.621 141.876V141.876Z" stroke="#FEF9DC" stroke-width="0.473197" stroke-linecap="round" stroke-linejoin="round"/>
<path fill-rule="evenodd" clip-rule="evenodd" d="M89.9195 115.49C84.5832 124.733 74.2052 129.851 63.6248 128.458C53.044 127.064 44.344 119.435 41.5819 109.127C38.8199 98.8184 42.5395 87.8608 51.006 81.3641C59.4725 74.8674 71.0191 74.111 80.2615 79.447C92.8819 86.7327 97.2056 102.87 89.9195 115.49V115.49Z" stroke="#FEF9DC" stroke-width="0.473197" stroke-linecap="round" stroke-linejoin="round"/>
<path d="M158.472 128.683C153.84 128.683 149.29 129.902 145.279 132.218C141.268 134.534 137.937 137.865 135.621 141.876M67.0689 102.297C61.7326 111.54 51.3547 116.658 40.7738 115.264C30.1934 113.872 21.4934 106.242 18.7314 95.9339C15.9693 85.6253 19.6885 74.6682 28.1555 68.1714C36.622 61.6747 48.1685 60.918 57.411 66.2539C70.031 73.54 74.3551 89.6776 67.0685 102.298L67.0689 102.297ZM21.3673 102.297C28.3652 102.297 35.0765 99.5172 40.0248 94.569C44.9731 89.6207 47.753 82.9094 47.753 75.9114C47.753 68.9135 44.9731 62.2022 40.0248 57.2539C35.0765 52.3056 28.3652 49.5257 21.3673 49.5257V102.297ZM158.472 128.683C156.739 125.682 154.433 123.052 151.684 120.943C148.935 118.833 145.797 117.286 142.45 116.389C139.103 115.493 135.612 115.264 132.177 115.716C128.742 116.168 125.429 117.293 122.428 119.025C119.427 120.758 116.797 123.064 114.688 125.813C112.578 128.562 111.031 131.7 110.134 135.047C109.237 138.394 109.009 141.885 109.461 145.32C109.913 148.756 111.038 152.068 112.77 155.069L158.472 128.683ZM21.3673 75.9118C23.6831 71.9007 24.9023 67.3506 24.9023 62.719C24.9023 58.0873 23.6831 53.5373 21.3673 49.5261V75.9118Z" stroke="#FEF9DC" stroke-width="0.473197" stroke-linecap="round" stroke-linejoin="round"/>
<path fill-rule="evenodd" clip-rule="evenodd" d="M89.9195 141.876C84.5832 151.118 74.2053 156.236 63.6248 154.843C53.044 153.45 44.344 145.821 41.582 135.513C38.8199 125.204 42.5391 114.247 51.0061 107.75C59.4726 101.253 71.0191 100.496 80.2616 105.833C92.882 113.118 97.2057 129.256 89.9195 141.876V141.876Z" stroke="#FEF9DC" stroke-width="0.473197" stroke-linecap="round" stroke-linejoin="round"/>
<path fill-rule="evenodd" clip-rule="evenodd" d="M112.77 155.069C105.484 167.689 89.3464 172.013 76.7264 164.727C64.106 157.44 59.7824 141.303 67.0685 128.683C74.355 116.063 90.4921 111.739 103.112 119.025C106.113 120.758 108.743 123.064 110.853 125.813C112.962 128.562 114.509 131.7 115.406 135.047C116.303 138.394 116.532 141.885 116.079 145.32C115.627 148.755 114.503 152.068 112.77 155.069V155.069Z" stroke="#FEF9DC" stroke-width="0.473197" stroke-linecap="round" stroke-linejoin="round"/>
<path fill-rule="evenodd" clip-rule="evenodd" d="M67.0689 128.683C61.7326 137.925 51.3547 143.043 40.7738 141.651C30.1934 140.258 21.4934 132.628 18.7314 122.32C15.9693 112.011 19.6885 101.054 28.1555 94.5571C36.622 88.0604 48.1685 87.3037 57.411 92.6396C70.031 99.9257 74.3551 116.063 67.0685 128.683H67.0689Z" stroke="#FEF9DC" stroke-width="0.473197" stroke-linecap="round" stroke-linejoin="round"/>
<path d="M67.0685 155.069C68.8109 152.068 69.944 148.752 70.4032 145.312C70.8623 141.873 70.6383 138.376 69.7442 135.023C68.85 131.67 67.3031 128.526 65.1922 125.772C63.0812 123.017 60.4477 120.706 57.4423 118.971C54.4369 117.236 51.1187 116.111 47.6779 115.66C44.237 115.209 40.7409 115.441 37.3899 116.343C34.0389 117.245 30.8988 118.8 28.1494 120.917C25.4 123.035 23.0953 125.674 21.3673 128.683M21.3673 128.683C35.9216 128.658 47.7065 116.852 47.7065 102.298C47.7065 87.7433 35.9216 75.9375 21.3673 75.9118V128.683ZM135.621 141.876C128.335 129.256 112.198 124.932 99.5771 132.218C86.9571 139.504 82.633 155.642 89.9195 168.262L135.621 141.876ZM21.3673 102.297C23.6831 98.286 24.9022 93.7361 24.9022 89.1045C24.9022 84.4729 23.6831 79.9229 21.3673 75.9118V102.297ZM135.621 141.876C130.989 141.876 126.439 143.095 122.428 145.411C118.417 147.727 115.086 151.058 112.77 155.069L135.621 141.876ZM44.2179 141.876C46.5337 137.865 47.7528 133.315 47.7528 128.683C47.7528 124.051 46.5336 119.501 44.2178 115.49C41.902 111.479 38.5711 108.148 34.56 105.833C30.549 103.517 25.9989 102.298 21.3673 102.298L44.2179 141.876Z" stroke="#FEF9DC" stroke-width="0.473197" stroke-linecap="round" stroke-linejoin="round"/>
<path d="M89.9196 168.262C87.6037 164.25 84.2728 160.92 80.2616 158.604C76.2504 156.288 71.7002 155.069 67.0685 155.069M89.9196 168.262C97.1853 155.644 92.8563 139.525 80.2465 132.244C67.6367 124.964 51.5126 129.275 44.2179 141.876L89.9196 168.262ZM112.77 155.069C110.454 151.058 107.123 147.727 103.112 145.411C99.1012 143.095 94.5511 141.876 89.9194 141.876C85.2877 141.876 80.7376 143.095 76.7264 145.411C72.7153 147.727 69.3844 151.058 67.0685 155.069H112.77ZM21.3673 128.683C23.6831 124.672 24.9023 120.122 24.9023 115.49C24.9023 110.859 23.6831 106.309 21.3673 102.298V128.683ZM112.77 155.069C108.139 155.069 103.589 156.288 99.5774 158.604C95.5663 160.92 92.2354 164.251 89.9196 168.262L112.77 155.069ZM44.2179 141.876C41.9021 137.865 38.5712 134.534 34.5601 132.218C30.549 129.902 25.9989 128.683 21.3673 128.683L44.2179 141.876ZM67.0685 155.069C64.7527 151.058 61.4219 147.727 57.4108 145.411C53.3997 143.095 48.8496 141.876 44.2179 141.876L67.0685 155.069Z" stroke="#FEF9DC" stroke-width="0.473197" stroke-linecap="round" stroke-linejoin="round"/>
<path fill-rule="evenodd" clip-rule="evenodd" d="M61.2693 171.546C15.7379 155.723 -8.34535 105.986 7.47751 60.4543C23.3012 14.9233 73.0387 -9.15998 118.57 6.66288C164.101 22.4861 188.184 72.2237 172.361 117.755C156.538 163.286 106.8 187.369 61.2693 171.547V171.546Z" stroke="#F6C37D" stroke-width="3.45197" stroke-linecap="round" stroke-linejoin="round"/>
</svg>
