<svg width="62" height="54" viewBox="0 0 62 54" fill="none" xmlns="http://www.w3.org/2000/svg">
<path d="M25.7598 12.3084C26.6184 12.69 27.5725 12.9762 28.622 12.9762C32.152 12.9762 35.1096 10.1141 35.1096 6.48861C35.1096 2.86317 32.152 0.000976562 28.622 0.000976562C27.5725 0.000976562 26.6184 0.191789 25.7598 0.668821C27.9541 1.71829 29.3852 3.91264 29.3852 6.48861C29.4806 9.06458 27.9541 11.2589 25.7598 12.3084Z" fill="#AA7E52"/>
<path d="M58.6749 37.7818C57.53 37.0186 54.2862 35.3013 49.9929 34.8242C50.4699 33.7748 50.7561 32.7253 51.0424 31.6758C51.7102 28.909 51.7102 26.6193 51.6148 25.7606C51.6148 25.4744 51.424 25.2836 51.1378 25.2836C49.2296 25.1882 43.0282 25.1882 37.5901 29.6723C37.3039 26.9055 36.3498 24.1387 34.8233 21.6582C33.3922 19.1776 31.6749 17.6511 31.1024 17.0787C30.9116 16.8878 30.6254 16.8878 30.4346 17.0787C29.0035 18.3189 24.7102 22.7076 23.947 29.7677C18.5088 25.379 12.212 25.2836 10.3993 25.379C10.113 25.379 9.92222 25.5698 9.92222 25.856C9.92222 26.7147 9.82682 29.0045 10.4947 31.7712C10.7809 32.9161 11.1625 33.9656 11.5441 34.9196C7.15544 35.3967 4.00703 37.114 2.86215 37.8772C2.67134 37.9727 2.57593 38.3543 2.67134 38.5451C3.05296 39.3083 4.10244 41.3119 6.01056 43.4108C8.39572 45.9868 11.1625 47.7995 14.3109 48.849C13.4523 49.9939 12.9752 51.0433 12.689 51.6158C12.5936 51.902 12.689 52.1882 12.8798 52.2836C13.5477 52.6652 16.1236 54.0009 19.5583 54.0009C20.894 54.0009 22.4205 53.8101 24.0424 53.2377C27.6678 51.902 29.7667 49.326 30.8162 47.5133C31.8657 49.326 34.06 51.902 37.6855 53.2377C39.212 53.8101 40.7385 54.0009 42.0742 54.0009C45.5088 54.0009 48.1802 52.6652 48.848 52.2836C49.0388 52.1882 49.1342 51.902 49.0388 51.6158C48.848 51.1387 48.2756 50.0893 47.4169 48.9444C50.4699 47.8949 53.2367 46.0822 55.6219 43.6016C57.53 41.5027 58.6749 39.4992 58.9611 38.7359C58.9611 38.1635 58.9611 37.8772 58.6749 37.7818ZM50.6607 26.3331C50.6607 27.7642 50.5653 31.1988 48.9434 34.8242C47.2261 34.7288 45.2226 34.9196 43.219 35.3967C40.8339 36.0645 38.5441 37.114 36.5406 38.5451C37.2084 36.7324 37.6855 34.6334 37.7809 32.3437C37.7809 31.8666 37.7809 31.3896 37.7809 30.9126C42.6466 26.6193 48.371 26.2377 50.6607 26.3331ZM40.9293 45.1281C42.9328 45.796 44.3639 46.9408 45.5088 48.0857C39.9752 49.4214 35.3003 47.8949 32.7243 46.6546C34.6325 46.5592 37.3038 46.1776 40.166 44.8419C40.4523 44.9373 40.6431 45.0327 40.9293 45.1281ZM30.1484 44.1741C29.5759 43.3154 28.8127 42.2659 27.7632 41.1211C27.3816 40.7394 27.0954 40.4532 26.7137 40.0716C25.5689 37.8772 24.7102 35.1105 24.7102 31.8666C28.9081 36.0645 29.9576 41.2165 30.1484 44.1741ZM36.636 32.2483C36.5406 35.3013 35.7774 37.8772 34.7279 39.9762C34.3463 40.3578 33.9646 40.644 33.6784 41.0257C32.6289 42.0751 31.8657 43.22 31.2932 44.0787C31.4841 41.2165 32.4381 36.0645 36.636 31.7712C36.636 31.962 36.636 32.1529 36.636 32.2483ZM29.3851 45.7006C27.8586 45.7006 25.5689 45.4143 23.0883 44.5557C25.3781 44.2695 27.477 44.6511 28.9081 45.2235C29.0989 45.3189 29.2897 45.5098 29.3851 45.7006ZM32.3427 45.2235C33.7738 44.7465 35.8728 44.1741 38.2579 44.4603C35.7773 45.3189 33.4876 45.6052 31.9611 45.6052C32.1519 45.5098 32.2473 45.4143 32.3427 45.2235ZM26.6183 41.9797C27 42.6476 27.3816 43.22 27.7632 43.697C26.0459 43.3154 23.7561 43.1246 21.371 43.7924C19.7491 43.0292 18.1272 41.9797 16.6007 40.5486C14.9788 39.0221 13.8339 37.4002 12.9752 35.7783C14.5017 35.7783 16.219 35.8737 17.9364 36.3507C21.371 37.2094 23.947 38.9267 25.8551 40.7394C26.1413 41.1211 26.3321 41.5981 26.6183 41.9797ZM21.2756 44.9373C24.1378 46.1776 26.8092 46.6546 28.7173 46.75C26.1413 47.9903 21.5618 49.5168 16.0282 48.1811C17.0777 47.0363 18.6042 45.8914 20.5123 45.2235C20.7985 45.0327 21.0848 44.9373 21.2756 44.9373ZM40.0706 43.7924C37.5901 43.1246 35.3003 43.4108 33.583 43.7924C34.2508 42.9338 34.9187 41.8843 35.5865 40.644C37.4947 38.9267 40.0706 37.2094 43.5053 36.3507C45.2226 35.8737 46.9399 35.7783 48.4664 35.7783C47.6077 37.4002 46.4629 39.0221 44.841 40.5486C43.219 41.9797 41.5971 43.0292 40.0706 43.7924ZM30.7208 18.0327C32.1519 19.4638 36.159 23.8525 36.636 30.4355C36.5406 30.531 36.4452 30.531 36.4452 30.6264C33.6784 33.2023 31.8657 36.4461 30.9116 40.2624C30.9116 40.4532 30.8162 40.5486 30.8162 40.7394C30.8162 40.5486 30.7208 40.4532 30.7208 40.2624C29.7667 36.4461 27.954 33.2023 25.1872 30.6264C25.0918 30.531 24.9964 30.4355 24.9964 30.4355C25.2826 23.9479 29.0989 19.6546 30.7208 18.0327ZM10.7809 26.3331C13.0706 26.2377 18.795 26.6193 23.7561 30.9126C23.7561 31.008 23.7561 31.1034 23.7561 31.2942C23.6607 33.7748 24.1378 36.2553 24.9964 38.6405C22.9929 37.114 20.7985 36.0645 18.318 35.3967C16.3145 34.8242 14.4063 34.7288 12.5936 34.8242C10.8763 31.1034 10.7809 27.7642 10.7809 26.3331ZM3.6254 38.4497C5.0565 37.6864 8.0141 36.1599 11.8303 35.8737C12.8798 37.8772 14.2155 39.7854 15.8374 41.3119C17.1731 42.5522 18.5088 43.5062 19.9399 44.2695C17.6501 45.1281 16.0282 46.5592 14.8834 47.8949C8.1095 45.7006 4.67487 40.2624 3.6254 38.4497ZM23.5653 51.9974C19.0812 53.6193 15.1696 52.0928 13.7385 51.4249C14.0247 50.8525 14.5017 49.9939 15.265 49.0398H15.3604C17.0777 49.5168 18.6996 49.6122 20.2261 49.6122C24.1378 49.6122 27.2862 48.4674 29.2897 47.5133C28.2402 49.0398 26.4275 50.9479 23.5653 51.9974ZM47.7985 51.3295C46.3675 51.9974 42.4558 53.6193 37.9717 51.9974C35.2049 50.9479 33.2968 49.1352 32.2473 47.6087C34.2508 48.5628 37.3993 49.7076 41.1201 49.7076C42.6466 49.7076 44.2685 49.5168 45.9858 49.1352C46.0812 49.1352 46.1766 49.0398 46.272 49.0398C47.0353 49.8984 47.5123 50.7571 47.7985 51.3295ZM46.6537 47.7995C45.5088 46.4638 43.7915 45.1281 41.5017 44.2695C42.8374 43.5062 44.1731 42.5522 45.5088 41.3119C47.2261 39.69 48.5618 37.8772 49.5159 35.8737C53.3321 36.1599 56.3851 37.6864 57.7208 38.4497C56.7668 40.2624 53.3321 45.7006 46.6537 47.7995Z" fill="#AA7E52"/>
<path d="M13.0708 18.0329C14.6927 18.0329 16.0284 16.6972 16.0284 15.0753C16.0284 13.4534 14.6927 12.1177 13.0708 12.1177C11.4488 12.1177 10.1132 13.4534 10.1132 15.0753C10.1132 16.6972 11.4488 18.0329 13.0708 18.0329Z" fill="#AA7E52"/>
<path d="M6.0106 27.669C6.0106 26.0471 4.67491 24.7114 3.053 24.7114C1.4311 24.7114 0 26.0471 0 27.669C0 29.2909 1.33569 30.6266 2.9576 30.6266C4.57951 30.6266 6.0106 29.2909 6.0106 27.669Z" fill="#AA7E52"/>
<path d="M47.7985 18.0329C49.4204 18.0329 50.7561 16.6972 50.7561 15.0753C50.7561 13.4534 49.4204 12.1177 47.7985 12.1177C46.1766 12.1177 44.8409 13.4534 44.8409 15.0753C44.8409 16.6972 46.1766 18.0329 47.7985 18.0329Z" fill="#AA7E52"/>
<path d="M58.7703 24.7114C57.1484 24.7114 55.8127 26.0471 55.8127 27.669C55.8127 29.2909 57.1484 30.6266 58.7703 30.6266C60.3922 30.6266 61.7279 29.2909 61.7279 27.669C61.8233 26.0471 60.4877 24.7114 58.7703 24.7114Z" fill="#AA7E52"/>
</svg>
