<svg width="107" height="120" viewBox="0 0 107 120" fill="none" xmlns="http://www.w3.org/2000/svg">
<path d="M45.3669 38.9352C28.5608 41.9009 18.751 53.688 16.9259 56.0454C16.6977 56.3496 16.7738 56.7298 17.078 56.958C17.23 57.034 17.3061 57.1101 17.4582 57.1101C17.6863 57.1101 17.8384 57.034 17.9905 56.8819C19.7396 54.6006 29.3213 43.1177 45.5951 40.2279C45.9753 40.1519 46.2034 39.8477 46.1274 39.4675C46.0513 39.1633 45.6711 38.8591 45.3669 38.9352Z" fill="#1F160A"/>
<path d="M20.652 55.7414L19.7395 57.3383H21.6406H23.5418L22.5532 55.7414L21.6406 54.0684L20.652 55.7414Z" fill="#1F160A"/>
<path d="M26.3555 51.7111L25.443 53.308H27.3441H29.1692L28.2567 51.7111L27.3441 50.0381L26.3555 51.7111Z" fill="#1F160A"/>
<path d="M32.0589 48.2127L31.1464 49.8857H32.9715H34.8726L33.9601 48.2127L32.9715 46.6157L32.0589 48.2127Z" fill="#1F160A"/>
<path d="M37.7624 45.7033L36.7738 47.3002H38.6749H40.5761L39.5875 45.7033L38.6749 44.0303L37.7624 45.7033Z" fill="#1F160A"/>
<path d="M44.3783 41.9014L43.3897 43.5744L42.4772 45.1713H44.3783H46.2034L45.2909 43.5744L44.3783 41.9014Z" fill="#1F160A"/>
<path d="M89.8536 74.8291C90.0818 74.5249 90.0818 74.1447 89.7776 73.9165C89.4734 73.6884 89.0932 73.6884 88.865 73.9926C86.9639 76.1979 76.7738 87.0724 60.3479 89.0496C59.9677 89.1257 59.7396 89.4298 59.8156 89.734C59.8916 90.0382 60.1198 90.2663 60.424 90.2663H60.5C77.4582 88.2891 87.8764 77.0344 89.8536 74.8291Z" fill="#1F160A"/>
<path d="M83.3137 73.1558L84.2263 74.9048L85.0628 76.5778L86.0514 74.9809L87.116 73.3839L85.2149 73.3079L83.3137 73.1558Z" fill="#1F160A"/>
<path d="M78.2946 78.5553L79.1311 80.2283L80.1958 78.7074L81.1844 77.1105L79.3593 77.0344L77.4581 76.8823L78.2946 78.5553Z" fill="#1F160A"/>
<path d="M72.4392 81.7492L73.2757 83.4222L74.3403 81.8252L75.3289 80.2283L73.4278 80.1522L71.6027 80.0762L72.4392 81.7492Z" fill="#1F160A"/>
<path d="M66.5837 83.9543L67.4962 85.6273L68.4848 84.0303L69.5495 82.5094L67.6483 82.3573L65.7472 82.2812L66.5837 83.9543Z" fill="#1F160A"/>
<path d="M60.8042 85.7793L61.7167 87.4523L62.7053 85.8554L63.7699 84.2584L61.8688 84.1824L59.9677 84.0303L60.8042 85.7793Z" fill="#1F160A"/>
<path d="M53.808 92.6237V87.4526C53.808 87.0724 53.5039 86.8442 53.1997 86.8442C52.8194 86.8442 52.5913 87.1484 52.5913 87.4526V92.6998C52.5913 93.08 52.8955 93.3081 53.1997 93.3081C53.5799 93.3081 53.808 93.0039 53.808 92.6237Z" fill="#1F160A"/>
<path d="M53.808 113.612V108.365C53.808 107.985 53.5039 107.757 53.1997 107.757C52.8194 107.757 52.5913 108.061 52.5913 108.365V113.612C52.5913 113.993 52.8955 114.221 53.1997 114.221C53.5799 114.221 53.808 113.917 53.808 113.612Z" fill="#1F160A"/>
<path d="M53.1996 99.0115C54.2916 99.0115 55.1768 98.1263 55.1768 97.0343C55.1768 95.9423 54.2916 95.0571 53.1996 95.0571C52.1076 95.0571 51.2224 95.9423 51.2224 97.0343C51.2224 98.1263 52.1076 99.0115 53.1996 99.0115Z" fill="#1F160A"/>
<path d="M53.1996 11.2547C54.0361 11.2547 54.7205 10.5703 54.7205 9.7338C54.7205 8.8973 54.0361 8.21289 53.1996 8.21289C52.3631 8.21289 51.6787 8.8973 51.6787 9.7338C51.6787 10.5703 52.3631 11.2547 53.1996 11.2547Z" fill="#1F160A"/>
<path d="M53.1996 7.14832C53.808 7.14832 54.2643 6.69205 54.2643 6.08368C54.2643 5.47532 53.808 5.01904 53.1996 5.01904C52.5913 5.01904 52.135 5.47532 52.135 6.08368C52.135 6.616 52.5913 7.14832 53.1996 7.14832Z" fill="#1F160A"/>
<path d="M53.1996 101.825C50.3859 101.825 47.9524 100.076 47.0399 97.5664C46.8118 98.2508 46.6597 99.0113 46.6597 99.8478C46.6597 103.422 49.5494 106.388 53.1996 106.388C56.7737 106.388 59.7395 103.498 59.7395 99.8478C59.7395 99.0873 59.5874 98.3269 59.3593 97.5664C58.3707 99.9999 56.0133 101.825 53.1996 101.825Z" fill="#1F160A"/>
<path d="M53.1996 116.198L52.5152 117.11L51.8308 118.099L52.5152 119.011L53.1996 120L53.884 119.011L54.4924 118.099L53.884 117.11L53.1996 116.198Z" fill="#1F160A"/>
<path d="M53.1996 4.10646C53.4277 4.10646 53.5798 3.95437 53.5798 3.72624V0.380228C53.5798 0.152091 53.4277 0 53.1996 0C52.9715 0 52.8194 0.152091 52.8194 0.380228V3.72624C52.7433 3.95437 52.9715 4.10646 53.1996 4.10646Z" fill="#1F160A"/>
<path d="M53.1996 16.2739C55.481 16.2739 57.3821 14.4488 57.3821 12.0914C57.3821 11.559 57.3061 11.1028 57.154 10.6465C56.5456 12.2434 55.0247 13.3841 53.2756 13.3841C51.5266 13.3841 50.0057 12.2434 49.3973 10.6465C49.2452 11.1028 49.1692 11.559 49.1692 12.0914C49.0171 14.3727 50.9182 16.2739 53.1996 16.2739Z" fill="#1F160A"/>
<path d="M18.9791 46.0838C19.1312 46.2359 19.2833 46.3119 19.4354 46.3119C19.5875 46.3119 19.7396 46.2359 19.8917 46.1598C20.1198 45.9317 20.1958 45.4754 19.8917 45.2473L11.7548 36.5781C11.5266 36.3499 11.0704 36.2739 10.8422 36.5781C10.6141 36.8062 10.538 37.2625 10.8422 37.4906L18.9791 46.0838Z" fill="#1F160A"/>
<path d="M24.7585 44.1825C24.9106 44.3346 25.0627 44.4106 25.2908 44.4106C25.4429 44.4106 25.595 44.3346 25.6711 44.2585C25.9752 44.0304 25.9752 43.6502 25.8232 43.346L15.557 29.962C15.3289 29.6578 14.9486 29.6578 14.6444 29.8099C14.3403 30.038 14.3403 30.4182 14.4924 30.7224L24.7585 44.1825Z" fill="#1F160A"/>
<path d="M28.9411 38.4789C29.0932 38.707 29.2453 38.7831 29.4734 38.7831C29.5494 38.7831 29.7015 38.7831 29.7776 38.707C30.0818 38.5549 30.1578 38.0986 30.0057 37.7945L24.0742 27.5283C23.9221 27.2241 23.4658 27.1481 23.1616 27.3002C22.8574 27.4523 22.7814 27.9085 22.9335 28.2127L28.9411 38.4789Z" fill="#1F160A"/>
<path d="M34.9487 37.9467C35.0247 38.1748 35.2529 38.3269 35.5571 38.3269C35.6331 38.3269 35.7092 38.3269 35.7852 38.2509C36.0894 38.0988 36.2415 37.7186 36.0894 37.4144L29.3213 21.9771C29.1692 21.6729 28.789 21.5209 28.4848 21.6729C28.1806 21.825 28.0285 22.2053 28.1806 22.5094L34.9487 37.9467Z" fill="#1F160A"/>
<path d="M40.3479 33.4602C40.424 33.7644 40.6521 33.9165 40.9563 33.9165C41.0323 33.9165 41.1084 33.9165 41.1084 33.9165C41.4886 33.8405 41.6407 33.4602 41.5647 33.1561L38.3707 21.7492C38.2947 21.369 37.9145 21.2169 37.6103 21.2929C37.3061 21.369 37.078 21.7492 37.154 22.0534L40.3479 33.4602Z" fill="#1F160A"/>
<path d="M46.2034 34.4485C46.2794 34.7527 46.5076 34.9809 46.8118 34.9809H46.8878C47.268 34.9048 47.4962 34.6006 47.4201 34.2204L44.8346 17.5664C44.7585 17.1862 44.4543 16.9581 44.0741 17.0341C43.6939 17.1101 43.4657 17.4143 43.5418 17.7946L46.2034 34.4485Z" fill="#1F160A"/>
<path d="M53.1995 32.1671C53.5798 32.1671 53.884 31.8629 53.8079 31.4827L53.6558 19.6196C53.6558 19.2394 53.3516 19.0112 52.9714 19.0112C52.5912 19.0112 52.363 19.3154 52.363 19.6956L52.5151 31.5588C52.5151 31.8629 52.8193 32.1671 53.1995 32.1671Z" fill="#1F160A"/>
<path d="M58.5228 34.7527C58.5228 34.7527 58.5988 34.7527 58.5228 34.7527C58.903 34.7527 59.2072 34.5245 59.2072 34.1443L61.0323 17.3382C61.1083 16.958 60.8042 16.6538 60.4239 16.6538C60.0437 16.5778 59.7395 16.882 59.7395 17.2622L57.9144 34.0683C57.9144 34.3725 58.1426 34.7527 58.5228 34.7527Z" fill="#1F160A"/>
<path d="M65.2908 33.6123C65.3669 33.6123 65.3669 33.6123 65.4429 33.6123C65.7471 33.6123 65.9752 33.3842 66.0513 33.156L69.0171 21.6731C69.0931 21.2929 68.865 20.9887 68.5608 20.9127C68.1806 20.8366 67.8764 21.0648 67.8003 21.369L64.8346 32.8519C64.7585 33.156 64.9106 33.5363 65.2908 33.6123Z" fill="#1F160A"/>
<path d="M69.7015 37.4907C69.7775 37.4907 69.8536 37.5668 69.9296 37.5668C70.1578 37.5668 70.4619 37.4147 70.538 37.1865L76.6977 21.4451C76.8498 21.1409 76.6977 20.7607 76.3175 20.6086C76.0133 20.4565 75.633 20.6086 75.481 20.9888L69.3213 36.7302C69.2452 37.0344 69.3973 37.4147 69.7015 37.4907Z" fill="#1F160A"/>
<path d="M76.6217 38.1751C76.6977 38.2512 76.8498 38.2512 76.9258 38.2512C77.154 38.2512 77.3821 38.0991 77.4582 37.947L83.3137 27.6048C83.4658 27.3006 83.3897 26.9204 83.0855 26.6923C82.7814 26.5402 82.4011 26.6162 82.173 26.9204L76.3175 37.2626C76.1654 37.6428 76.3175 38.0231 76.6217 38.1751Z" fill="#1F160A"/>
<path d="M79.9677 43.1941C80.0437 43.2701 80.1958 43.3462 80.3479 43.3462C80.576 43.3462 80.7281 43.2701 80.8802 43.042L90.7661 29.3538C90.9943 29.0496 90.9182 28.6694 90.614 28.4412C90.3099 28.2131 89.9296 28.2891 89.7015 28.5933L79.8156 42.2815C79.6635 42.5097 79.7395 42.966 79.9677 43.1941Z" fill="#1F160A"/>
<path d="M86.5837 45.5516C86.7358 45.7036 86.8879 45.7036 87.04 45.7036C87.1921 45.7036 87.4202 45.6276 87.4963 45.4755L95.5571 36.8063C95.7852 36.5782 95.7852 36.1219 95.5571 35.8938C95.3289 35.6656 94.8727 35.6656 94.6445 35.8938L86.5837 44.639C86.3556 44.8671 86.3556 45.3234 86.5837 45.5516Z" fill="#1F160A"/>
<path d="M42.4772 102.966H8.33273L24.0742 75.6653C24.2263 75.3612 24.1502 74.9809 23.846 74.7528C23.5418 74.6007 23.1616 74.6768 22.9335 74.9809L6.65972 103.27C6.50763 103.498 6.50763 103.726 6.65972 103.878C6.81181 104.106 6.96391 104.182 7.19204 104.182H42.4772C42.8574 104.182 43.0856 103.878 43.0856 103.574C43.0856 103.27 42.8574 102.966 42.4772 102.966Z" fill="#1F160A"/>
<path d="M87.6483 82.4336C87.4962 82.1294 87.0399 82.0533 86.7358 82.2054C86.4316 82.3575 86.3555 82.8138 86.5076 83.118L97.9905 103.042H63.77C63.3898 103.042 63.1616 103.346 63.1616 103.65C63.1616 104.031 63.4658 104.259 63.77 104.259H99.2073C99.4354 104.259 99.6635 104.107 99.7396 103.955C99.8917 103.726 99.8917 103.498 99.7396 103.346L87.6483 82.4336Z" fill="#1F160A"/>
<path d="M89.7776 65.2472L89.4734 64.8669C88.5609 63.6502 84.9867 59.3156 79.0552 55.2852C71.1464 49.8099 62.4772 47.0723 53.1996 47.0723C43.9221 47.0723 35.2529 49.8099 27.3441 55.2852C21.4126 59.3156 17.9145 63.6502 16.9259 64.8669L16.6217 65.2472L16.9259 65.6274C17.8384 66.8441 21.4126 71.1787 27.3441 75.2091C35.2529 80.6844 43.9221 83.4221 53.1996 83.4221C62.4772 83.4221 71.1464 80.6844 79.0552 75.2091C84.9867 71.1787 88.4848 66.8441 89.4734 65.6274L89.7776 65.2472ZM53.1996 82.1293C33.1997 82.1293 21.1844 68.8213 18.2947 65.2472C21.1844 61.597 33.1997 48.289 53.1996 48.289C73.1996 48.289 85.2149 61.597 88.1046 65.1711C85.2149 68.8213 73.1996 82.1293 53.1996 82.1293Z" fill="#1F160A"/>
<path d="M105.747 64.6389L98.6749 60.9887C98.5228 60.9126 98.2946 60.9126 98.0665 60.9887L90.9942 64.6389C90.7661 64.7149 90.614 64.9431 90.614 65.2472C90.614 65.4754 90.7661 65.7035 90.9942 65.8556L98.0665 69.5058C98.1425 69.5818 98.2946 69.5818 98.3707 69.5818C98.4467 69.5818 98.5988 69.5818 98.6749 69.5058L102.249 67.6807L105.823 65.8556C106.051 65.7796 106.203 65.5514 106.203 65.2472C106.127 65.0191 105.975 64.791 105.747 64.6389ZM98.3707 68.137L92.6672 65.2472L98.3707 62.3575L104.074 65.2472L98.3707 68.137Z" fill="#1F160A"/>
<path d="M8.25665 69.5057C8.3327 69.5057 8.48479 69.5057 8.56084 69.4296L12.135 67.6045L15.7091 65.7794C15.9373 65.7034 16.0894 65.4752 16.0894 65.1711C16.0894 64.9429 15.9373 64.7148 15.7091 64.5627L8.63688 60.9125C8.48479 60.8365 8.25665 60.8365 8.02852 60.9125L0.880228 64.6387C0.652091 64.7908 0.5 65.019 0.5 65.2471C0.5 65.4752 0.652091 65.7034 0.880228 65.8555L7.95247 69.5057C8.02852 69.5057 8.18061 69.5057 8.25665 69.5057ZM8.25665 68.1368L2.55323 65.2471L8.25665 62.3574L13.9601 65.2471L8.25665 68.1368Z" fill="#1F160A"/>
<path d="M23.5418 100.152C23.9221 100.152 24.3023 99.8481 24.3023 99.5439C24.3023 99.1637 23.9981 98.9355 23.5418 98.9355C23.1616 98.9355 22.7814 99.2397 22.7814 99.5439C22.7814 99.9241 23.0856 100.152 23.5418 100.152Z" fill="#1F160A"/>
<path d="M19.0551 100.152C19.4354 100.152 19.8156 99.8481 19.8156 99.5439C19.8156 99.1637 19.5114 98.9355 19.0551 98.9355C18.6749 98.9355 18.2947 99.2397 18.2947 99.5439C18.2947 99.9241 18.6749 100.152 19.0551 100.152Z" fill="#1F160A"/>
<path d="M13.1235 99.5438C13.1235 100.076 13.6559 100.532 14.2642 100.532C14.8726 100.532 15.4049 100.076 15.4049 99.5438C15.4049 99.0114 14.8726 98.5552 14.2642 98.5552C13.6559 98.5552 13.1235 99.0114 13.1235 99.5438Z" fill="#1F160A"/>
<path d="M36.6217 99.5439C36.6217 99.9241 36.9259 100.152 37.3822 100.152C37.7624 100.152 38.1426 99.8481 38.1426 99.5439C38.1426 99.1637 37.8384 98.9356 37.3822 98.9356C37.0019 98.8595 36.6217 99.1637 36.6217 99.5439Z" fill="#1F160A"/>
<path d="M32.2111 99.5439C32.2111 99.9241 32.5152 100.152 32.9715 100.152C33.3517 100.152 33.732 99.8481 33.732 99.5439C33.732 99.1637 33.4278 98.9356 32.9715 98.9356C32.5152 98.8595 32.2111 99.1637 32.2111 99.5439Z" fill="#1F160A"/>
<path d="M27.0399 99.5438C27.0399 100.076 27.5722 100.532 28.1806 100.532C28.789 100.532 29.3213 100.076 29.3213 99.5438C29.3213 99.0114 28.789 98.5552 28.1806 98.5552C27.5722 98.5552 27.0399 99.0114 27.0399 99.5438Z" fill="#1F160A"/>
<path d="M22.4772 85.7796C22.1731 85.6275 21.7928 85.6275 21.6407 85.9317C21.4887 86.1598 21.5647 86.54 21.8689 86.7682C22.1731 86.9203 22.5533 86.9203 22.7054 86.6161C22.9335 86.3119 22.7814 85.9317 22.4772 85.7796Z" fill="#1F160A"/>
<path d="M24.4544 83.7264C24.6065 83.4983 24.5304 83.1181 24.2263 82.8899C23.9221 82.7379 23.5419 82.7378 23.3898 83.042C23.2377 83.2702 23.3137 83.6504 23.6179 83.8785C23.9221 84.0306 24.3023 83.9546 24.4544 83.7264Z" fill="#1F160A"/>
<path d="M24.9866 79.7718C24.7585 80.152 24.9106 80.6843 25.3669 80.9885C25.8232 81.2927 26.3555 81.1406 26.6597 80.7604C26.8878 80.3801 26.7357 79.8478 26.2794 79.5437C25.8232 79.2395 25.2148 79.3916 24.9866 79.7718Z" fill="#1F160A"/>
<path d="M16.2415 94.9049C16.0894 95.133 16.1654 95.5132 16.4696 95.7414C16.7738 95.8934 17.154 95.8934 17.3061 95.5893C17.4582 95.3611 17.3821 94.9809 17.078 94.7528C16.7738 94.5246 16.3935 94.6007 16.2415 94.9049Z" fill="#1F160A"/>
<path d="M19.0551 92.6996C19.2072 92.4714 19.1312 92.0912 18.827 91.8631C18.5228 91.711 18.1426 91.711 17.9905 92.0152C17.8384 92.2433 17.9144 92.6235 18.2186 92.8517C18.5228 93.0038 18.903 92.9277 19.0551 92.6996Z" fill="#1F160A"/>
<path d="M21.1844 89.734C21.4126 89.3538 21.2605 88.8215 20.8042 88.5173C20.3479 88.2131 19.8156 88.3652 19.5114 88.7454C19.2833 89.1256 19.4354 89.658 19.8917 89.9622C20.424 90.2663 20.9563 90.1142 21.1844 89.734Z" fill="#1F160A"/>
<path d="M81.4886 98.8594C81.1084 98.8594 80.7281 99.1636 80.7281 99.4677C80.7281 99.848 81.0323 100.076 81.4886 100.076C81.8688 100.076 82.2491 99.7719 82.2491 99.4677C82.173 99.1636 81.8688 98.8594 81.4886 98.8594Z" fill="#1F160A"/>
<path d="M85.8992 100.152C86.2795 100.152 86.6597 99.8481 86.6597 99.5439C86.6597 99.1637 86.3555 98.9355 85.8992 98.9355C85.519 98.9355 85.1388 99.2397 85.1388 99.5439C85.1388 99.9241 85.519 100.152 85.8992 100.152Z" fill="#1F160A"/>
<path d="M91.8308 99.5438C91.8308 99.0114 91.2985 98.5552 90.6901 98.5552C90.0818 98.5552 89.5494 99.0114 89.5494 99.5438C89.5494 100.076 90.0818 100.532 90.6901 100.532C91.2985 100.532 91.8308 100.076 91.8308 99.5438Z" fill="#1F160A"/>
<path d="M66.8118 99.5439C66.8118 99.9241 67.1159 100.152 67.5722 100.152C67.9525 100.152 68.3327 99.8481 68.3327 99.5439C68.3327 99.1637 68.0285 98.9356 67.5722 98.9356C67.192 98.8595 66.8118 99.1637 66.8118 99.5439Z" fill="#1F160A"/>
<path d="M71.2985 99.5439C71.2985 99.9241 71.6026 100.152 72.0589 100.152C72.4391 100.152 72.8194 99.8481 72.8194 99.5439C72.8194 99.1637 72.5152 98.9356 72.0589 98.9356C71.6026 98.8595 71.2985 99.1637 71.2985 99.5439Z" fill="#1F160A"/>
<path d="M75.7091 99.5438C75.7091 100.076 76.2414 100.532 76.8498 100.532C77.4582 100.532 77.9905 100.076 77.9905 99.5438C77.9905 99.0114 77.4582 98.5552 76.8498 98.5552C76.2414 98.5552 75.7091 99.0114 75.7091 99.5438Z" fill="#1F160A"/>
<path d="M83.0855 86.6922C83.3897 86.5401 83.5418 86.1599 83.3136 85.8557C83.1616 85.6276 82.7813 85.5515 82.4771 85.7036C82.173 85.8557 82.0209 86.236 82.249 86.5401C82.4011 86.8443 82.7813 86.9204 83.0855 86.6922Z" fill="#1F160A"/>
<path d="M88.4848 95.6654C88.789 95.5133 88.9411 95.1331 88.7129 94.8289C88.5608 94.6007 88.1806 94.5247 87.8764 94.6768C87.5723 94.8289 87.4202 95.2091 87.6483 95.5133C87.8004 95.8175 88.1806 95.8935 88.4848 95.6654Z" fill="#1F160A"/>
<path d="M86.9639 92.0154C86.8118 91.7873 86.4316 91.7112 86.1274 91.8633C85.8232 92.0154 85.6711 92.3956 85.8993 92.6998C86.0514 92.928 86.4316 93.004 86.7358 92.8519C87.04 92.6238 87.192 92.3196 86.9639 92.0154Z" fill="#1F160A"/>
<path d="M85.3669 88.7454C85.1388 88.3652 84.5304 88.2131 84.0742 88.5173C83.6179 88.8215 83.4658 89.3538 83.6939 89.734C83.9221 90.1142 84.5304 90.2663 84.9867 89.9622C85.443 89.658 85.6711 89.1256 85.3669 88.7454Z" fill="#1F160A"/>
<path d="M57.0019 39.4676C57.0019 39.0874 56.7738 38.7832 56.4696 38.7832C56.0893 38.7832 55.8612 39.0113 55.7852 39.3916C55.7852 39.7718 56.0133 40.076 56.3175 40.076C56.6217 40.076 56.9258 39.8478 57.0019 39.4676Z" fill="#1F160A"/>
<path d="M52.059 39.1635C52.059 39.5438 52.3631 39.7719 52.6673 39.8479C52.9715 39.8479 53.2757 39.6198 53.2757 39.2396C53.2757 38.8594 53.0475 38.5552 52.6673 38.5552C52.3631 38.5552 52.059 38.8594 52.059 39.1635Z" fill="#1F160A"/>
<path d="M48.7889 40.2283C49.3213 40.2283 49.7015 39.772 49.6254 39.2397C49.6254 38.7074 49.1692 38.3271 48.6368 38.3271C48.1045 38.3271 47.7243 38.8595 47.8003 39.3918C47.8003 39.8481 48.2566 40.3043 48.7889 40.2283Z" fill="#1F160A"/>
<path d="M68.2566 41.9771C68.4087 41.6729 68.1806 41.2927 67.8764 41.1406C67.5722 41.0645 67.192 41.2166 67.1159 41.5969C67.0399 41.901 67.192 42.2813 67.4962 42.3573C67.8003 42.4334 68.1045 42.2813 68.2566 41.9771Z" fill="#1F160A"/>
<path d="M63.9221 41.3687C64.2263 41.4447 64.6065 41.2166 64.6826 40.9124C64.7586 40.5322 64.6065 40.228 64.2263 40.1519C63.9221 40.0759 63.5419 40.304 63.4658 40.6082C63.4658 40.9124 63.6179 41.2926 63.9221 41.3687Z" fill="#1F160A"/>
<path d="M60.3479 38.9355C59.8156 38.8594 59.3593 39.2397 59.2833 39.772C59.2072 40.3043 59.5114 40.7606 60.0437 40.8366C60.5 40.9127 61.0323 40.6085 61.1084 40.0762C61.1844 39.5438 60.8802 39.0115 60.3479 38.9355Z" fill="#1F160A"/>
<path d="M78.5989 47.0721C78.827 46.7679 78.751 46.3877 78.4468 46.1595C78.1426 46.0075 77.7623 46.0835 77.6103 46.3877C77.4582 46.6919 77.5342 47.0721 77.7623 47.3002C77.9905 47.4523 78.3707 47.3002 78.5989 47.0721Z" fill="#1F160A"/>
<path d="M75.405 45.0949C75.5571 44.7907 75.481 44.4105 75.1768 44.2584C74.8726 44.1063 74.4924 44.2584 74.3403 44.5626C74.1882 44.8668 74.2643 45.247 74.5685 45.3991C74.8726 45.5512 75.2529 45.4751 75.405 45.0949Z" fill="#1F160A"/>
<path d="M72.1349 43.4983C72.3631 43.042 72.1349 42.4336 71.6787 42.2055C71.2224 41.9774 70.614 42.2816 70.4619 42.7378C70.2338 43.2702 70.4619 43.8025 70.9182 43.9546C71.3745 44.1827 71.9068 43.9546 72.1349 43.4983Z" fill="#1F160A"/>
<path d="M87.3441 54.5246C87.5722 54.2964 87.6483 53.9162 87.4202 53.612C87.192 53.3839 86.8118 53.3839 86.5076 53.612C86.2795 53.8402 86.2034 54.2964 86.4316 54.5246C86.7358 54.7527 87.116 54.7527 87.3441 54.5246Z" fill="#1F160A"/>
<path d="M84.7586 51.8633C84.9867 51.6351 84.9867 51.1788 84.7586 50.9507C84.5304 50.7226 84.0742 50.7226 83.846 51.0268C83.6179 51.3309 83.6179 51.7112 83.846 51.9393C84.1502 52.1674 84.5304 52.1674 84.7586 51.8633Z" fill="#1F160A"/>
<path d="M81.9448 49.5059C82.249 49.1257 82.249 48.5173 81.7927 48.1371C81.4125 47.8329 80.8041 47.909 80.4999 48.3652C80.1958 48.8215 80.2718 49.3538 80.652 49.658C81.0323 49.9622 81.6406 49.8861 81.9448 49.5059Z" fill="#1F160A"/>
<path d="M53.1996 51.6348C45.7471 51.6348 39.6635 57.7184 39.6635 65.1709C39.6635 72.6234 45.7471 78.707 53.1996 78.707C60.652 78.707 66.7357 72.6234 66.7357 65.1709C66.7357 57.7184 60.652 51.6348 53.1996 51.6348ZM53.1996 77.4903C46.4315 77.4903 40.9562 72.015 40.9562 65.2469C40.9562 58.4789 46.4315 53.0036 53.1996 53.0036C59.9676 53.0036 65.4429 58.4789 65.4429 65.2469C65.4429 72.015 59.9676 77.4903 53.1996 77.4903Z" fill="#1F160A"/>
<path d="M53.1996 60.3804C50.538 60.3804 48.3326 62.5857 48.3326 65.2473C48.3326 67.9089 50.538 70.1142 53.1996 70.1142C55.8612 70.1142 58.0665 67.9089 58.0665 65.2473C58.0665 62.5096 55.8612 60.3804 53.1996 60.3804Z" fill="#1F160A"/>
</svg>
