<svg width="168" height="168" viewBox="0 0 168 168" fill="none" xmlns="http://www.w3.org/2000/svg">
<g filter="url(#filter0_d)">
<path d="M84 134C50.9008 134 24 107.099 24 74C24 40.9008 50.9008 14 84 14C117.099 14 144 40.9008 144 74C143.876 107.099 116.975 134 84 134ZM84 14.9917C51.3967 14.9917 24.9917 41.5207 24.9917 74C24.9917 106.603 51.5207 133.008 84 133.008C116.603 133.008 143.008 106.479 143.008 74C143.008 41.5207 116.479 14.9917 84 14.9917Z" fill="#1F160A"/>
<path d="M138.918 51.3153L138.794 51.1913L136.562 52.0591L138.794 51.1913C132.719 36.5632 121.314 25.1583 106.686 19.2079L106.562 19.0839C91.9343 13.1335 75.9426 13.1335 61.3145 19.0839C61.3145 19.0839 61.3145 19.0839 61.1905 19.0839H61.0665C46.5624 25.1583 35.0335 36.6872 28.9591 51.3153V51.4393C22.8847 66.0674 22.8847 82.1831 28.9591 96.8112L31.1905 95.8194C25.3641 81.8112 25.3641 66.3153 31.1905 52.307L29.8269 51.6872L31.1905 52.1831C37.017 38.1748 48.05 27.1418 62.0583 21.3153C76.0666 15.4889 91.5624 15.4889 105.571 21.3153L105.695 21.4393C119.703 27.2657 130.612 38.1748 136.438 52.0591L136.562 52.1831C142.389 66.1913 142.389 81.5632 136.562 95.5715L136.438 95.8194C130.612 109.828 119.703 120.861 105.571 126.687C91.5624 132.514 76.0665 132.514 61.9343 126.687L61.6864 127.183L61.8104 126.687C47.8021 120.861 36.893 109.952 31.0665 95.9434L28.8351 96.9351C34.9095 111.563 46.3145 122.968 60.9426 129.043C75.5707 135.117 91.8104 135.117 106.438 129.043L106.686 128.919C121.314 122.844 132.595 111.439 138.67 96.8112L138.794 96.5632C144.992 81.9351 144.992 65.8194 138.918 51.3153Z" fill="#1F160A"/>
<path d="M84 131.521C52.2645 131.521 26.4794 105.736 26.4794 74.0001C26.4794 42.2646 52.2645 16.4795 84 16.4795C115.736 16.4795 141.521 42.2646 141.521 74.0001C141.521 105.736 115.612 131.521 84 131.521Z" fill="#F6C37D"/>
<path d="M84 131.521C52.2645 131.521 26.4794 105.736 26.4794 74.0002C26.4794 42.2646 52.2645 16.4795 84 16.4795C115.736 16.4795 141.521 42.2646 141.521 74.0002C141.521 105.736 115.612 131.521 84 131.521ZM84 17.4712C52.7604 17.4712 27.4711 42.8844 27.4711 74.0002C27.4711 105.24 52.8843 130.529 84 130.529C115.116 130.529 140.529 105.116 140.529 74.0002C140.529 42.8844 115.116 17.4712 84 17.4712Z" fill="#1F160A"/>
<path d="M84.0001 105.24C66.7687 105.24 52.8844 91.2319 52.8844 74.1245C52.8844 56.8931 66.8927 43.0088 84.0001 43.0088C101.232 43.0088 115.116 57.0171 115.116 74.1245C115.116 91.2319 101.108 105.24 84.0001 105.24ZM84.0001 45.3642C68.1323 45.3642 55.3637 58.2567 55.3637 74.0005C55.3637 89.8683 68.2563 102.637 84.0001 102.637C99.8679 102.637 112.636 89.7443 112.636 74.0005C112.636 58.2567 99.7439 45.3642 84.0001 45.3642Z" fill="#1F160A"/>
<path d="M83.5042 128.793C83.1323 128.793 82.8844 128.545 82.8844 128.173C82.8844 127.801 83.1323 127.553 83.5042 127.553C83.8761 127.553 84.124 127.801 84.124 128.173C84.124 128.545 83.7521 128.793 83.5042 128.793ZM86.6034 128.049C86.6034 127.677 86.8513 127.429 87.2232 127.429C87.5951 127.429 87.8431 127.677 87.8431 128.049C87.8431 128.421 87.5951 128.669 87.2232 128.669C86.8513 128.669 86.6034 128.421 86.6034 128.049ZM79.1654 127.925C79.1654 127.553 79.5373 127.305 79.7852 127.305C80.1571 127.305 80.405 127.677 80.405 127.925C80.405 128.297 80.0331 128.545 79.7852 128.545C79.2893 128.545 79.0414 128.297 79.1654 127.925ZM90.1984 127.801C90.1984 127.429 90.4464 127.181 90.6943 127.057C91.0662 127.057 91.3141 127.305 91.4381 127.553C91.4381 127.925 91.1902 128.173 90.9422 128.173C90.9422 128.173 90.9422 128.173 90.8182 128.173C90.5703 128.297 90.3224 128.049 90.1984 127.801ZM75.9422 128.173C75.5703 128.173 75.3224 127.801 75.4464 127.429C75.4464 127.057 75.8182 126.809 76.1901 126.933C76.562 126.933 76.81 127.305 76.686 127.677C76.5621 127.925 76.3141 128.173 75.9422 128.173C76.0662 128.173 75.9422 128.173 75.9422 128.173ZM93.9174 127.181C93.7935 126.809 94.0414 126.562 94.4133 126.438C94.7852 126.314 95.0331 126.562 95.1571 126.933C95.1571 127.305 95.0331 127.553 94.6612 127.677H94.5373C94.2893 127.677 94.0414 127.553 93.9174 127.181ZM72.2232 127.553C71.8513 127.429 71.7273 127.181 71.7273 126.809C71.8513 126.438 72.0992 126.314 72.4711 126.314C72.843 126.438 72.967 126.685 72.967 127.057C72.967 127.305 72.5951 127.553 72.3472 127.553C72.3472 127.553 72.3472 127.553 72.2232 127.553ZM97.5125 126.438C97.3885 126.066 97.6364 125.818 98.0083 125.694C98.3802 125.57 98.6282 125.818 98.7522 126.066C98.8761 126.438 98.6282 126.685 98.2563 126.809H98.1323C97.8844 126.933 97.6364 126.685 97.5125 126.438ZM68.6282 126.561C68.2563 126.438 68.1323 126.066 68.2563 125.818C68.3802 125.446 68.7521 125.322 69.0001 125.446C69.372 125.57 69.4959 125.818 69.372 126.19C69.248 126.438 69.0001 126.685 68.7521 126.685C68.7521 126.561 68.6282 126.561 68.6282 126.561ZM101.108 125.322C100.984 124.95 101.231 124.702 101.479 124.578C101.851 124.454 102.099 124.578 102.223 124.95C102.347 125.322 102.099 125.57 101.851 125.694C101.727 125.694 101.727 125.694 101.603 125.694C101.479 125.818 101.231 125.57 101.108 125.322ZM65.0331 125.446C64.6612 125.322 64.5373 124.95 64.6612 124.702C64.7852 124.33 65.1571 124.206 65.405 124.33C65.7769 124.454 65.9009 124.826 65.7769 125.074C65.653 125.322 65.405 125.446 65.1571 125.446C65.1571 125.446 65.1571 125.446 65.0331 125.446ZM104.579 124.082C104.455 123.71 104.579 123.462 104.951 123.214C105.322 123.09 105.57 123.214 105.818 123.586C105.942 123.958 105.818 124.206 105.446 124.33C105.322 124.33 105.322 124.33 105.198 124.33C104.95 124.454 104.703 124.33 104.579 124.082ZM61.5621 123.958C61.1902 123.834 61.0662 123.462 61.1901 123.09C61.3141 122.719 61.686 122.595 62.0579 122.719C62.4298 122.842 62.5538 123.214 62.4298 123.586C62.3059 123.834 62.0579 123.958 61.81 123.958C61.686 124.082 61.686 123.958 61.5621 123.958ZM107.926 122.595C107.802 122.223 107.926 121.975 108.174 121.727C108.546 121.603 108.917 121.727 109.041 121.975C109.165 122.223 109.041 122.595 108.793 122.842C108.669 122.842 108.67 122.842 108.546 122.842C108.298 122.842 108.05 122.719 107.926 122.595ZM58.2149 122.347C57.967 122.223 57.843 121.851 57.967 121.479C58.091 121.231 58.4629 121.107 58.8348 121.231C59.2067 121.355 59.2067 121.727 59.0827 122.099C58.9587 122.347 58.7108 122.471 58.5868 122.471C58.3389 122.347 58.2149 122.347 58.2149 122.347ZM111.273 120.735C111.149 120.487 111.149 120.115 111.521 119.867C111.769 119.743 112.141 119.743 112.389 120.115C112.512 120.363 112.512 120.735 112.141 120.983C112.017 121.107 111.893 121.107 111.769 121.107C111.521 121.107 111.397 120.983 111.273 120.735ZM54.9918 120.487C54.7439 120.239 54.6199 119.867 54.7439 119.619C54.8678 119.371 55.3637 119.247 55.6116 119.371C55.8596 119.619 55.9835 119.991 55.7356 120.239C55.6116 120.363 55.3637 120.487 55.2397 120.487C55.1158 120.487 54.9918 120.487 54.9918 120.487ZM114.372 118.752C114.248 118.504 114.248 118.132 114.496 117.884C114.744 117.636 115.116 117.76 115.364 118.008C115.488 118.256 115.488 118.628 115.24 118.876C115.116 119 114.992 119 114.868 119C114.744 119 114.496 119 114.372 118.752ZM51.7687 118.38C51.5207 118.132 51.3968 117.76 51.6447 117.512C51.8926 117.264 52.2645 117.14 52.5125 117.388C52.7604 117.636 52.8843 118.008 52.6364 118.256C52.5124 118.38 52.2645 118.504 52.1406 118.504C52.0166 118.38 51.8926 118.38 51.7687 118.38ZM117.347 116.644C117.099 116.396 117.223 116.024 117.471 115.776C117.719 115.528 118.091 115.652 118.339 115.9C118.587 116.148 118.463 116.52 118.215 116.768C118.091 116.892 117.967 116.892 117.843 116.892C117.719 116.892 117.471 116.768 117.347 116.644ZM48.7935 116.024C48.5455 115.776 48.5455 115.404 48.6695 115.157C48.9174 114.909 49.2893 114.909 49.5372 115.033C49.7852 115.281 49.7852 115.652 49.6612 115.9C49.5373 116.024 49.4133 116.148 49.1654 116.148C49.0414 116.148 48.9174 116.148 48.7935 116.024ZM120.198 114.165C119.95 113.917 119.95 113.545 120.198 113.297C120.446 113.049 120.818 113.049 121.066 113.297C121.314 113.545 121.314 113.917 121.066 114.165C120.942 114.289 120.818 114.289 120.694 114.289C120.57 114.413 120.322 114.289 120.198 114.165ZM46.0662 113.545C45.8182 113.297 45.8182 112.925 46.0662 112.677C46.3141 112.429 46.686 112.429 46.9339 112.677C47.1819 112.925 47.1819 113.297 46.9339 113.545C46.81 113.669 46.686 113.793 46.4381 113.793C46.3141 113.669 46.1901 113.545 46.0662 113.545ZM122.926 111.561C122.678 111.314 122.678 110.942 122.926 110.694C123.174 110.446 123.546 110.446 123.793 110.694C124.041 110.942 124.041 111.314 123.793 111.561C123.67 111.685 123.546 111.809 123.298 111.809C123.174 111.809 123.05 111.685 122.926 111.561ZM43.4629 110.818C43.2149 110.57 43.2149 110.198 43.4629 109.95C43.7108 109.702 44.0827 109.702 44.3306 109.95C44.5786 110.198 44.5786 110.57 44.3306 110.818C44.2067 110.942 44.0827 110.942 43.9587 110.942C43.7108 110.942 43.5868 110.942 43.4629 110.818ZM125.405 108.834C125.157 108.586 125.033 108.214 125.281 107.966C125.529 107.719 125.901 107.719 126.149 107.842C126.397 108.09 126.521 108.462 126.273 108.71C126.149 108.834 126.025 108.958 125.777 108.958C125.653 108.958 125.529 108.958 125.405 108.834ZM40.9835 107.966C40.7356 107.719 40.8596 107.347 41.1075 107.099C41.3554 106.851 41.7273 106.975 41.9753 107.223C42.2232 107.471 42.0992 107.842 41.8513 108.09C41.7273 108.214 41.6034 108.214 41.4794 108.214C41.3554 108.214 41.1075 108.09 40.9835 107.966ZM127.636 105.983C127.389 105.735 127.265 105.363 127.512 105.115C127.76 104.867 128.132 104.743 128.38 104.991C128.628 105.239 128.752 105.611 128.504 105.859C128.38 105.983 128.132 106.107 128.008 106.107C127.884 105.983 127.76 105.983 127.636 105.983ZM38.7521 104.867C38.5042 104.619 38.6282 104.247 38.8761 104C39.124 103.752 39.4959 103.876 39.7439 104.123C39.8678 104.371 39.8678 104.743 39.6199 104.991C39.4959 105.115 39.372 105.115 39.248 105.115C39.124 105.115 38.8761 105.115 38.7521 104.867ZM129.744 102.884C129.496 102.76 129.372 102.264 129.496 102.016C129.62 101.768 129.992 101.644 130.364 101.768C130.612 101.892 130.736 102.264 130.612 102.636C130.488 102.884 130.24 102.884 130.116 102.884C129.992 102.884 129.868 102.884 129.744 102.884ZM36.7687 101.768C36.6447 101.52 36.6447 101.148 37.0166 100.9C37.2645 100.776 37.6364 100.776 37.8844 101.148C38.0083 101.396 38.0083 101.768 37.6364 102.016C37.5125 102.016 37.3885 102.14 37.2645 102.14C37.1406 102.016 36.8926 101.892 36.7687 101.768ZM131.603 99.6607C131.231 99.5367 131.231 99.1648 131.355 98.7929C131.479 98.421 131.851 98.421 132.223 98.545C132.595 98.6689 132.595 99.0408 132.471 99.4127C132.347 99.6607 132.099 99.7846 131.975 99.7846C131.851 99.6607 131.727 99.6607 131.603 99.6607ZM34.9092 98.421C34.7852 98.0491 34.9092 97.6772 35.1571 97.5532C35.529 97.4293 35.9009 97.5532 36.0248 97.8012C36.1488 98.1731 36.0249 98.421 35.7769 98.6689C35.653 98.6689 35.653 98.6689 35.529 98.6689C35.2811 98.7929 35.0331 98.6689 34.9092 98.421ZM133.339 96.3136C132.967 96.1896 132.843 95.8177 132.967 95.4458C133.091 95.0739 133.463 94.9499 133.835 95.0739C134.207 95.1979 134.331 95.5698 134.207 95.9417C134.083 96.1896 133.835 96.3136 133.587 96.3136C133.463 96.3136 133.339 96.3136 133.339 96.3136ZM33.4215 94.9499C33.2976 94.578 33.4215 94.3301 33.7934 94.2061C34.1653 94.0822 34.5372 94.2061 34.6612 94.578C34.7852 94.9499 34.6612 95.1979 34.2893 95.4458C34.1654 95.4458 34.1653 95.4458 34.0414 95.4458C33.6695 95.4458 33.5455 95.1979 33.4215 94.9499ZM134.703 92.8425C134.331 92.7185 134.207 92.3466 134.331 92.0987C134.455 91.7268 134.827 91.6028 135.074 91.7268C135.446 91.8507 135.57 92.2226 135.446 92.4706C135.322 92.7185 135.074 92.8425 134.827 92.8425C134.827 92.8425 134.827 92.8425 134.703 92.8425ZM32.0579 91.4789C31.9339 91.1069 32.1819 90.859 32.4298 90.735C32.8017 90.6111 33.0496 90.735 33.1736 91.1069C33.2976 91.4789 33.0496 91.7268 32.8017 91.8507C32.6777 91.8507 32.6777 91.8507 32.5538 91.8507C32.4298 91.9747 32.1819 91.7268 32.0579 91.4789ZM135.818 89.3714C135.446 89.2474 135.322 88.9995 135.446 88.6276C135.57 88.2557 135.942 88.1317 136.19 88.1317C136.562 88.2557 136.686 88.6276 136.686 88.8755C136.562 89.1235 136.314 89.3714 136.066 89.3714C135.942 89.3714 135.942 89.3714 135.818 89.3714ZM31.0662 87.8838C30.9422 87.5119 31.1901 87.264 31.562 87.14C31.9339 87.016 32.1819 87.264 32.3058 87.6359C32.4298 88.0078 32.1819 88.2557 31.81 88.3797H31.686C31.3141 88.3797 31.0662 88.1317 31.0662 87.8838ZM136.81 85.7764C136.438 85.6524 136.314 85.4045 136.314 85.0326C136.438 84.6607 136.686 84.5367 137.058 84.5367C137.43 84.6607 137.554 84.9086 137.554 85.2805C137.554 85.5284 137.182 85.7764 136.934 85.7764H136.81ZM30.1984 84.2888C30.0744 83.9169 30.3224 83.6689 30.6943 83.545C31.0662 83.421 31.3141 83.6689 31.4381 84.0408C31.562 84.4127 31.3141 84.6607 30.9422 84.7846H30.8182C30.4463 84.7846 30.1984 84.5367 30.1984 84.2888ZM137.43 82.0574C137.058 82.0574 136.81 81.6855 136.934 81.3136C136.934 80.9417 137.306 80.6937 137.678 80.8177C138.05 80.8177 138.298 81.1896 138.174 81.5615C138.174 81.8094 137.926 82.0574 137.43 82.0574C137.554 82.0574 137.554 82.0574 137.43 82.0574ZM29.5786 80.5698C29.5786 80.1979 29.8265 79.9499 30.0744 79.826C30.4463 79.826 30.6943 80.0739 30.8182 80.3218C30.8182 80.6937 30.5703 80.9417 30.3224 81.0656C30.3224 81.0656 30.3224 81.0656 30.1984 81.0656C29.9505 81.0656 29.7025 80.8177 29.5786 80.5698ZM137.926 78.3383C137.554 78.3383 137.306 77.9664 137.306 77.7185C137.306 77.3466 137.678 77.0987 137.926 77.0987C138.298 77.0987 138.546 77.4706 138.546 77.7185C138.546 78.0904 138.298 78.3383 137.926 78.3383ZM29.3306 76.7268C29.3306 76.3549 29.5786 76.1069 29.9505 76.1069C30.3224 76.1069 30.5703 76.3549 30.5703 76.7268C30.5703 77.0987 30.3224 77.3466 29.9505 77.3466C29.5786 77.3466 29.3306 77.0987 29.3306 76.7268ZM137.43 73.9995C137.43 73.6276 137.678 73.3797 138.05 73.3797C138.422 73.3797 138.669 73.6276 138.669 73.9995C138.669 74.3714 138.422 74.6193 138.05 74.6193C137.678 74.6193 137.43 74.3714 137.43 73.9995ZM29.8265 73.6276C29.4546 73.6276 29.2067 73.3797 29.2067 73.0078C29.2067 72.6359 29.4546 72.3879 29.8265 72.3879C30.1984 72.3879 30.4463 72.6359 30.4463 73.0078C30.4463 73.3797 30.1984 73.6276 29.8265 73.6276ZM137.43 72.3879C137.43 72.016 137.678 71.7681 138.05 71.7681C138.422 71.7681 138.669 72.016 138.669 72.3879C138.669 72.7598 138.422 73.0078 138.05 73.0078C137.678 73.0078 137.43 72.7598 137.43 72.3879ZM30.0744 69.9086C29.7025 69.9086 29.4546 69.5367 29.4546 69.2888C29.4546 68.9169 29.8265 68.6689 30.0744 68.6689C30.4463 68.6689 30.6943 69.0408 30.6943 69.2888C30.6943 69.6607 30.4463 69.9086 30.0744 69.9086ZM137.182 68.7929C137.182 68.421 137.43 68.1731 137.802 68.1731C138.174 68.1731 138.422 68.421 138.422 68.7929C138.422 69.1648 138.174 69.4127 137.802 69.4127C137.554 69.2888 137.182 69.0408 137.182 68.7929ZM30.4463 66.1896C30.0744 66.1896 29.8265 65.8177 29.9505 65.4458C29.9505 65.0739 30.3224 64.826 30.6943 64.9499C31.0662 65.0739 31.3141 65.3218 31.1901 65.6937C31.0662 66.0656 30.8182 66.1896 30.4463 66.1896ZM136.686 65.0739C136.686 64.702 136.81 64.4541 137.182 64.3301C137.554 64.3301 137.802 64.454 137.926 64.8259C138.05 65.1978 137.802 65.4458 137.43 65.5698H137.306C137.058 65.6937 136.81 65.4458 136.686 65.0739ZM31.0662 62.5945C30.6943 62.4706 30.5703 62.2226 30.5703 61.8507C30.6943 61.4788 30.9422 61.3549 31.3141 61.3549C31.686 61.4788 31.81 61.7268 31.81 62.0987C31.81 62.3466 31.4381 62.5945 31.1901 62.5945H31.0662ZM135.942 61.4788C135.818 61.1069 136.066 60.859 136.438 60.735C136.81 60.6111 137.058 60.859 137.182 61.2309C137.306 61.6028 137.058 61.8507 136.686 61.9747H136.562C136.314 61.9747 136.066 61.8507 135.942 61.4788ZM32.0579 58.9995C31.686 58.8755 31.562 58.5036 31.686 58.2557C31.81 57.8838 32.1819 57.7598 32.4298 57.8838C32.8017 58.0078 32.9257 58.3797 32.8017 58.6276C32.6777 58.8755 32.4298 58.9995 32.1819 58.9995C32.0579 58.9995 32.0579 58.9995 32.0579 58.9995ZM134.95 58.0078C134.827 57.6359 135.074 57.264 135.322 57.264C135.694 57.14 135.942 57.3879 136.066 57.6359C136.19 58.0078 135.942 58.2557 135.694 58.3797C135.57 58.3797 135.57 58.3797 135.57 58.3797C135.322 58.3797 135.074 58.2557 134.95 58.0078ZM33.1736 55.4045C32.8017 55.2805 32.6777 54.9086 32.8017 54.5367C32.9257 54.1648 33.2976 54.0408 33.6695 54.1648C34.0414 54.2888 34.1653 54.6607 34.0414 54.9086C33.9174 55.1565 33.6695 55.2805 33.4215 55.2805C33.2976 55.5284 33.1736 55.4045 33.1736 55.4045ZM133.835 54.5367C133.711 54.1648 133.835 53.9169 134.207 53.7929C134.579 53.6689 134.827 53.7929 134.95 54.1648C135.074 54.5367 134.951 54.7846 134.579 54.9086C134.455 54.9086 134.455 54.9086 134.331 54.9086C134.083 54.9086 133.835 54.7846 133.835 54.5367ZM34.5372 51.9334C34.1653 51.8094 34.0414 51.4375 34.2893 51.0656C34.4133 50.6937 34.7852 50.5697 35.1571 50.8177C35.529 50.9417 35.653 51.3136 35.529 51.6855C35.405 51.9334 35.1571 52.0574 34.9092 52.0574C34.6612 52.0574 34.6612 52.0574 34.5372 51.9334ZM132.347 51.1896C132.223 50.8177 132.347 50.5697 132.595 50.3218C132.967 50.1978 133.215 50.3218 133.463 50.5697C133.587 50.9417 133.463 51.1896 133.215 51.4375C133.091 51.4375 133.091 51.4375 132.967 51.4375C132.595 51.4375 132.471 51.4375 132.347 51.1896ZM36.1488 48.5863C35.9009 48.4623 35.7769 48.0904 35.9009 47.7185C36.0248 47.4706 36.3968 47.3466 36.7687 47.4706C37.1406 47.5945 37.1406 47.9664 37.0166 48.3383C36.8926 48.5863 36.6447 48.7102 36.5207 48.7102C36.3967 48.7102 36.2728 48.7102 36.1488 48.5863ZM130.612 47.8425C130.488 47.4706 130.488 47.2226 130.86 46.9747C131.108 46.8507 131.479 46.8507 131.727 47.2226C131.851 47.4706 131.851 47.8425 131.479 48.0904C131.355 48.0904 131.231 48.2144 131.231 48.2144C130.984 48.2144 130.736 48.0904 130.612 47.8425ZM38.0083 45.3631C37.7604 45.2392 37.6364 44.7433 37.8844 44.4954C38.0083 44.2474 38.5042 44.1235 38.7521 44.2474C39.0001 44.4954 39.124 44.8673 39 45.1152C38.8761 45.2392 38.6282 45.3631 38.5042 45.3631C38.2563 45.4871 38.1323 45.4871 38.0083 45.3631ZM128.752 44.7433C128.504 44.4954 128.628 44.1235 128.876 43.8755C129.124 43.6276 129.496 43.7516 129.744 43.9995C129.868 44.2474 129.868 44.6193 129.62 44.8673C129.496 44.8673 129.372 44.9912 129.248 44.9912C129 44.9912 128.876 44.9912 128.752 44.7433ZM40.1158 42.264C39.8678 42.016 39.7439 41.6441 39.9918 41.3962C40.2397 41.1483 40.6116 41.0243 40.8596 41.2722C41.1075 41.5202 41.2315 41.8921 40.9835 42.14C40.8596 42.264 40.6116 42.3879 40.4877 42.3879C40.3637 42.5119 40.2397 42.3879 40.1158 42.264ZM126.645 41.7681C126.397 41.5202 126.521 41.1483 126.769 40.9003C127.017 40.6524 127.389 40.7764 127.636 41.0243C127.884 41.2722 127.76 41.6441 127.512 41.8921C127.389 42.016 127.265 42.016 127.141 42.016C126.893 42.016 126.769 41.8921 126.645 41.7681ZM42.3472 39.4127C42.0992 39.1648 42.0992 38.7929 42.3472 38.545C42.5951 38.297 42.967 38.297 43.2149 38.545C43.4629 38.7929 43.4629 39.1648 43.3389 39.4127C43.2149 39.5367 43.091 39.6607 42.843 39.6607C42.7191 39.5367 42.5951 39.5367 42.3472 39.4127ZM124.289 38.9169C124.041 38.6689 124.041 38.297 124.289 38.0491C124.537 37.8012 124.909 37.8012 125.157 38.0491C125.405 38.297 125.405 38.6689 125.157 38.9169C125.033 39.0408 124.909 39.0408 124.785 39.0408C124.537 39.1648 124.413 39.0408 124.289 38.9169ZM44.8265 36.5615C44.5786 36.3136 44.5786 35.9416 44.8265 35.6937C45.0744 35.4458 45.4463 35.4458 45.6943 35.6937C45.9422 35.9416 45.9422 36.3136 45.6943 36.5615C45.5703 36.6855 45.4463 36.6854 45.1984 36.6854C45.1984 36.8094 45.0744 36.6855 44.8265 36.5615ZM121.81 36.1896C121.562 35.9417 121.562 35.5697 121.81 35.3218C122.058 35.0739 122.43 35.0739 122.678 35.3218C122.926 35.5697 122.926 35.9417 122.678 36.1896C122.554 36.3136 122.43 36.4375 122.306 36.4375C122.058 36.4375 121.934 36.3136 121.81 36.1896ZM47.5538 34.0821C47.3058 33.8342 47.3058 33.4623 47.5538 33.2144C47.8017 32.9664 48.1736 32.9664 48.4215 33.2144C48.6695 33.4623 48.6695 33.8342 48.4215 34.0821C48.2976 34.2061 48.1736 34.2061 48.0496 34.2061C47.8017 34.2061 47.6777 34.2061 47.5538 34.0821ZM119.083 33.7102C118.835 33.4623 118.835 33.0904 118.959 32.8425C119.207 32.5945 119.579 32.5945 119.827 32.7185C120.074 32.9664 120.074 33.3383 119.827 33.5863C119.703 33.7102 119.579 33.8342 119.331 33.8342C119.331 33.8342 119.207 33.8342 119.083 33.7102ZM50.405 31.6028C50.1571 31.3549 50.281 30.983 50.529 30.735C50.7769 30.4871 51.1488 30.6111 51.3967 30.859C51.6447 31.1069 51.5207 31.4788 51.2728 31.7268C51.1488 31.8507 51.0249 31.8507 50.9009 31.8507C50.653 31.8507 50.529 31.7268 50.405 31.6028ZM116.231 31.3549C115.984 31.1069 115.86 30.735 116.108 30.4871C116.355 30.2392 116.727 30.1152 116.975 30.3631C117.223 30.6111 117.347 30.983 117.099 31.2309C116.975 31.3549 116.727 31.4788 116.603 31.4788C116.479 31.4788 116.355 31.4788 116.231 31.3549ZM53.3802 29.3714C53.1323 29.1235 53.2563 28.7516 53.5042 28.5036C53.7521 28.2557 54.124 28.3797 54.372 28.6276C54.4959 28.8755 54.4959 29.2474 54.248 29.4954C54.124 29.6193 54.0001 29.6193 53.8761 29.6193C53.7521 29.7433 53.5042 29.6193 53.3802 29.3714ZM113.256 29.2474C113.008 28.9995 112.884 28.6276 113.132 28.3797C113.256 28.1317 113.752 28.0078 114 28.2557C114.248 28.3797 114.372 28.8755 114.124 29.1235C114 29.3714 113.752 29.3714 113.628 29.3714C113.38 29.3714 113.38 29.3714 113.256 29.2474ZM56.4794 27.3879C56.3554 27.14 56.3554 26.7681 56.7273 26.5202C56.9753 26.3962 57.3472 26.5202 57.5951 26.7681C57.7191 27.016 57.7191 27.3879 57.3472 27.6359C57.2232 27.6359 57.0992 27.7598 56.9753 27.7598C56.8513 27.7598 56.6034 27.6359 56.4794 27.3879ZM110.033 27.3879C109.785 27.264 109.661 26.8921 109.785 26.5202C109.909 26.2722 110.281 26.1483 110.653 26.2722C110.901 26.3962 111.025 26.7681 110.901 27.14C110.777 27.3879 110.529 27.5119 110.405 27.5119C110.281 27.3879 110.157 27.3879 110.033 27.3879ZM59.7025 25.6524C59.5786 25.2805 59.7025 25.0326 59.9505 24.7846C60.1984 24.6607 60.5703 24.7846 60.8182 25.0326C60.9422 25.4045 60.8182 25.6524 60.5703 25.9003C60.4463 25.9003 60.4464 25.9003 60.3224 25.9003C60.0745 26.0243 59.8265 25.9003 59.7025 25.6524ZM106.81 25.6524C106.438 25.5284 106.314 25.1565 106.562 24.7846C106.686 24.4127 107.058 24.4127 107.43 24.5367C107.802 24.6607 107.926 25.0326 107.678 25.4045C107.554 25.6524 107.306 25.7764 107.182 25.7764C106.934 25.7764 106.934 25.7764 106.81 25.6524ZM63.1736 24.0408C63.0496 23.6689 63.1736 23.421 63.5455 23.297C63.9174 23.1731 64.1654 23.297 64.2893 23.6689C64.4133 24.0408 64.2893 24.4127 63.9174 24.5367C63.7935 24.5367 63.7935 24.5367 63.6695 24.5367C63.4216 24.5367 63.2976 24.2888 63.1736 24.0408ZM103.463 24.1648C103.091 24.0408 102.967 23.6689 103.091 23.421C103.215 23.0491 103.587 22.9251 103.835 23.0491C104.207 23.1731 104.331 23.545 104.207 23.9169C104.083 24.1648 103.835 24.2888 103.587 24.2888C103.587 24.2888 103.463 24.2888 103.463 24.1648ZM66.6447 22.8012C66.5207 22.4293 66.7687 22.1813 67.0166 22.0573C67.3885 21.9334 67.6364 22.0574 67.7604 22.4293C67.8844 22.8012 67.6364 23.0491 67.3885 23.1731C67.2645 23.1731 67.2645 23.1731 67.1406 23.1731C66.8926 23.1731 66.7687 23.0491 66.6447 22.8012ZM99.9918 23.0491C99.6199 22.9251 99.4959 22.5532 99.6199 22.3053C99.7439 21.9334 100.116 21.8094 100.364 21.9334C100.736 22.0574 100.86 22.4293 100.736 22.6772C100.612 22.9251 100.364 23.1731 100.116 23.1731C100.116 23.0491 99.9918 23.0491 99.9918 23.0491ZM70.2397 21.6854C70.1158 21.3135 70.3637 21.0656 70.7356 20.9416C71.1075 20.8177 71.3554 21.0656 71.4794 21.4375C71.6034 21.8094 71.3554 22.0574 70.9835 22.1813H70.8596C70.4877 22.1813 70.2397 22.0574 70.2397 21.6854ZM96.3968 22.0573C96.0249 21.9334 95.9009 21.6855 95.9009 21.3135C96.0249 20.9416 96.2728 20.8177 96.6447 20.8177C97.0166 20.9416 97.1406 21.1896 97.1406 21.5615C97.1406 21.8094 96.7687 22.0573 96.5207 22.0573C96.5207 22.0573 96.5207 22.0573 96.3968 22.0573ZM73.8348 20.9416C73.7108 20.5697 73.9587 20.3218 74.3306 20.1978C74.7025 20.0739 74.9505 20.3218 75.0744 20.6937C75.0744 21.0656 74.9505 21.3135 74.5786 21.4375H74.4546C74.0827 21.4375 73.8348 21.1896 73.8348 20.9416ZM92.8017 21.3135C92.4298 21.3135 92.1819 20.9416 92.3059 20.5697C92.3059 20.1978 92.6778 19.9499 93.0497 20.0739C93.4216 20.0739 93.5455 20.4458 93.5455 20.8177C93.5455 21.0656 93.1736 21.3135 92.8017 21.3135C92.9257 21.3135 92.8017 21.3135 92.8017 21.3135ZM77.4298 20.3218C77.4298 19.9499 77.6778 19.702 77.9257 19.578C78.2976 19.578 78.5455 19.8259 78.6695 20.1978C78.6695 20.5697 78.4215 20.8177 78.0496 20.8177C77.8017 20.8177 77.5538 20.6937 77.4298 20.3218ZM89.2067 20.8177C88.8348 20.8177 88.5868 20.4458 88.7108 20.1978C88.7108 19.8259 89.0827 19.578 89.3307 19.578C89.7026 19.578 89.9505 19.9499 89.9505 20.1978C89.8265 20.5697 89.5786 20.8177 89.2067 20.8177ZM81.1488 19.9499C81.1488 19.578 81.3968 19.3301 81.7687 19.3301C82.1406 19.3301 82.3885 19.578 82.3885 19.9499C82.3885 20.3218 82.1406 20.5697 81.7687 20.5697C81.5207 20.5697 81.1488 20.3218 81.1488 19.9499ZM85.4877 20.5697C85.1158 20.5697 84.8678 20.3218 84.8678 19.9499C84.8678 19.578 85.1158 19.3301 85.4877 19.3301C85.8596 19.3301 86.1075 19.578 86.1075 19.9499C86.1075 20.3218 85.8596 20.5697 85.4877 20.5697Z" fill="#1F160A"/>
<path d="M80.0332 44.8671H79.9092C79.5373 44.7432 79.2894 44.3713 79.4134 43.9994L84.0001 23.2969L88.5869 43.9994C88.7109 44.3713 88.4629 44.7432 88.091 44.8671C87.7191 44.9911 87.3472 44.7432 87.2233 44.3713L84.0001 29.6192L80.777 44.3713C80.653 44.6192 80.4051 44.8671 80.0332 44.8671Z" fill="#1F160A"/>
<path d="M95.2811 46.8503C95.1571 46.8503 95.1571 46.8503 95.0331 46.8503C94.6612 46.7264 94.5372 46.3545 94.6612 45.9826C96.1488 41.8917 95.9009 40.2801 95.529 38.7925C95.281 37.8008 95.1571 36.6851 95.405 35.0735C95.6529 33.9578 96.0249 33.09 96.2728 32.3462C97.0166 30.4867 97.6364 29.1231 95.405 26.0239C95.281 28.7512 94.2893 29.8669 93.2976 30.9826C92.5538 31.8503 91.81 32.5941 91.4381 34.3297C91.0662 35.8173 91.1901 36.809 91.1901 37.6768C91.3141 39.7842 91.1901 41.0239 87.967 44.6189C87.719 44.8669 87.2232 44.8669 86.9753 44.6189C86.7273 44.371 86.7273 43.8751 86.9753 43.6272C89.9505 40.4041 89.9505 39.4123 89.8265 37.6768C89.8265 36.809 89.7025 35.5694 90.0744 33.9578C90.5703 31.9743 91.4381 30.8586 92.1819 29.9908C93.2976 28.7512 94.1653 27.7594 93.9174 23.9165C93.9174 23.6685 94.0414 23.2966 94.2893 23.1727C94.5372 23.0487 94.9092 23.1727 95.0331 23.4206C99.124 28.5032 98.2563 30.4867 97.3885 32.8421C97.1406 33.5859 96.7687 34.3297 96.5207 35.3214C96.2728 36.6851 96.3967 37.5528 96.6447 38.5446C97.0166 40.1561 97.3885 42.0156 95.653 46.4784C95.7769 46.6024 95.529 46.8503 95.2811 46.8503Z" fill="#1F160A"/>
<path d="M102.347 50.8167C102.223 50.8167 102.223 50.8167 102.099 50.8167C101.727 50.6928 101.479 50.3209 101.603 49.949L106.19 35.5688L96.0247 46.7258C95.7768 46.9738 95.2809 46.9738 95.033 46.7258C94.7851 46.4779 94.7851 45.982 95.033 45.7341L109.413 30.1143L102.967 50.4448C102.843 50.5688 102.595 50.8167 102.347 50.8167Z" fill="#1F160A"/>
<path d="M107.678 56.1477C107.43 56.1477 107.306 56.0238 107.182 55.8998C106.934 55.6519 106.934 55.156 107.306 54.9081C110.653 52.0568 111.149 50.5692 111.645 49.2056C112.017 48.2139 112.265 47.2221 113.504 45.8585C114.248 44.9907 114.992 44.4948 115.612 43.999C117.223 42.7593 118.339 41.8915 118.091 38.0486C116.603 40.4039 115.24 40.8998 113.876 41.3957C112.76 41.7676 111.769 42.1395 110.529 43.3791C109.413 44.4948 109.041 45.3626 108.67 46.2304C107.802 48.0899 107.058 49.2056 102.471 50.6932C102.099 50.8172 101.727 50.5692 101.603 50.1973C101.479 49.8254 101.727 49.4535 102.099 49.3296C106.314 47.9659 106.81 47.0982 107.43 45.6105C107.802 44.7428 108.298 43.751 109.537 42.5114C111.025 41.0238 112.265 40.5279 113.38 40.156C114.868 39.6601 116.232 39.1643 117.967 35.6932C118.091 35.4453 118.339 35.3213 118.711 35.3213C118.959 35.3213 119.207 35.5692 119.331 35.9411C120.322 42.3874 118.587 43.751 116.603 45.2386C115.984 45.7345 115.364 46.2304 114.62 46.9742C113.628 48.0899 113.38 48.8337 113.132 49.8254C112.636 51.313 112.017 53.1725 108.298 56.1477C108.05 56.1477 107.802 56.1477 107.678 56.1477Z" fill="#1F160A"/>
<path d="M111.769 63.214C111.645 63.214 111.397 63.0901 111.273 62.9661C111.025 62.7182 111.025 62.2223 111.273 61.9744L122.43 51.8091L108.05 56.3959C107.678 56.5198 107.306 56.2719 107.182 55.9C107.058 55.5281 107.306 55.1562 107.678 55.0322L128.008 48.5859L112.265 62.9661C112.141 63.0901 112.017 63.214 111.769 63.214Z" fill="#1F160A"/>
<path d="M113.752 70.5276C113.38 70.5276 113.132 70.2797 113.132 69.9078C113.008 69.5358 113.38 69.1639 113.752 69.1639C118.091 68.4201 119.207 67.4284 120.446 66.4367C121.19 65.6929 122.058 65.073 123.67 64.4532C124.661 64.0813 125.653 63.9573 126.521 63.8334C128.504 63.5854 129.992 63.3375 131.603 59.8664C129.124 61.1061 127.637 60.8582 126.273 60.6102C125.157 60.3623 124.165 60.2383 122.43 60.7342C120.942 61.2301 120.075 61.7259 119.455 62.2218C117.719 63.3375 116.603 63.9573 111.893 62.9656C111.521 62.8416 111.273 62.4697 111.397 62.0978C111.521 61.7259 111.893 61.478 112.265 61.602C116.603 62.5937 117.471 61.9739 118.835 61.1061C119.579 60.6102 120.57 59.9904 122.182 59.4945C124.165 58.8747 125.529 59.1226 126.645 59.3706C128.256 59.6185 129.62 59.8664 132.843 57.759C133.091 57.635 133.463 57.635 133.711 57.759C133.959 58.0069 134.083 58.2549 133.959 58.5028C131.603 64.5772 129.496 64.8251 127.017 65.197C126.273 65.321 125.405 65.4449 124.537 65.6929C123.174 66.1887 122.554 66.6846 121.81 67.4284C119.951 68.5441 118.587 69.6598 113.752 70.5276C113.876 70.5276 113.876 70.5276 113.752 70.5276Z" fill="#1F160A"/>
<path d="M113.876 78.7097C113.504 78.7097 113.256 78.4618 113.256 78.2138C113.132 77.8419 113.38 77.47 113.752 77.3461L128.504 74.1229L113.752 70.8998C113.38 70.7758 113.132 70.4039 113.256 70.032C113.38 69.6601 113.752 69.4122 114.124 69.5362L134.827 74.1229L114 78.7097H113.876Z" fill="#1F160A"/>
<path d="M128.256 88.379C127.141 88.379 126.273 88.0071 125.281 87.6352C124.537 87.3873 123.793 87.0154 122.802 86.7674C121.438 86.5195 120.57 86.6435 119.579 86.8914C117.967 87.2633 116.108 87.6352 111.645 85.8997C111.273 85.7757 111.149 85.4038 111.273 85.0319C111.397 84.66 111.769 84.536 112.141 84.66C116.231 86.1476 117.843 85.8997 119.331 85.5278C120.322 85.2798 121.438 85.1559 123.05 85.4038C124.165 85.6517 125.033 86.0236 125.777 86.2716C127.636 87.0154 129 87.6352 132.099 85.4038C129.372 85.2798 128.256 84.2881 127.141 83.2963C126.273 82.5525 125.529 81.8087 123.793 81.4368C122.306 81.0649 121.314 81.1889 120.446 81.1889C118.339 81.3129 117.099 81.1889 113.504 77.9658C113.256 77.7178 113.256 77.222 113.504 76.974C113.752 76.7261 114.248 76.7261 114.496 76.974C117.719 79.9492 118.711 79.9492 120.446 79.8253C121.314 79.8253 122.554 79.7013 124.165 80.0732C126.149 80.5691 127.265 81.4369 128.132 82.1807C129.372 83.1724 130.488 84.1641 134.207 83.9162C134.579 83.9162 134.827 84.0402 134.95 84.2881C135.074 84.536 134.951 84.9079 134.703 85.0319C131.727 87.7592 129.744 88.379 128.256 88.379Z" fill="#1F160A"/>
<path d="M128.008 99.4128L107.678 92.9665C107.306 92.8426 107.058 92.4707 107.182 92.0988C107.306 91.7269 107.678 91.4789 108.05 91.6029L122.43 96.1897L111.273 86.0244C111.025 85.7764 111.025 85.2806 111.273 85.0326C111.521 84.7847 112.017 84.7847 112.265 85.0326L128.008 99.4128Z" fill="#1F160A"/>
<path d="M118.835 109.454C115.24 109.454 114.124 108.09 112.884 106.479C112.389 105.859 111.893 105.239 111.149 104.495C110.033 103.503 109.289 103.255 108.298 103.008C106.81 102.512 104.95 101.892 101.975 98.1728C101.727 97.9249 101.727 97.429 102.099 97.1811C102.347 96.9331 102.843 96.9331 103.091 97.305C105.942 100.652 107.43 101.148 108.793 101.644C109.785 102.016 110.777 102.264 112.141 103.503C113.008 104.247 113.504 104.991 114 105.611C115.24 107.222 116.108 108.338 119.95 108.09C117.595 106.603 117.099 105.239 116.603 103.875C116.231 102.76 115.86 101.768 114.62 100.528C113.504 99.4125 112.636 99.0406 111.769 98.6687C109.909 97.8009 108.793 97.0571 107.306 92.4703C107.182 92.0984 107.43 91.7265 107.802 91.6026C108.174 91.4786 108.546 91.7265 108.67 92.0984C110.033 96.3133 110.901 96.8092 112.389 97.429C113.256 97.8009 114.248 98.2968 115.488 99.5364C116.975 101.024 117.471 102.264 117.843 103.379C118.339 104.867 118.835 106.231 122.306 107.966C122.554 108.09 122.678 108.338 122.678 108.71C122.678 108.958 122.43 109.206 122.058 109.33C120.942 109.33 119.827 109.454 118.835 109.454Z" fill="#1F160A"/>
<path d="M109.413 118.007L95.033 102.387C94.7851 102.139 94.7851 101.644 95.033 101.396C95.2809 101.148 95.7768 101.148 96.0247 101.396L106.19 112.553L101.603 98.1725C101.479 97.8006 101.727 97.4287 102.099 97.3047C102.471 97.1807 102.843 97.4287 102.967 97.8006L109.413 118.007Z" fill="#1F160A"/>
<path d="M99.7438 123.586C99.6199 123.586 99.6199 123.586 99.4959 123.586C93.4215 121.23 93.1736 119.123 92.8017 116.644C92.6777 115.9 92.5537 115.032 92.3058 114.164C91.8099 112.801 91.3141 112.181 90.5703 111.437C89.4546 110.197 88.2149 108.834 87.4711 104.123C87.3471 103.751 87.719 103.379 88.0909 103.379C88.4628 103.255 88.8347 103.627 88.8347 103.999C89.5785 108.338 90.5703 109.453 91.562 110.693C92.3058 111.437 92.9256 112.305 93.5455 113.916C93.9174 114.908 94.0413 115.9 94.1653 116.768C94.4132 118.751 94.6612 120.239 98.1323 121.85C96.8926 119.371 97.1405 117.883 97.3885 116.52C97.6364 115.404 97.7604 114.412 97.2645 112.677C96.7686 111.189 96.2728 110.321 95.7769 109.701C94.6612 107.966 94.0414 106.85 95.0331 102.139C95.1571 101.768 95.529 101.52 95.9009 101.644C96.2728 101.768 96.5207 102.139 96.3967 102.511C95.405 106.85 96.0248 107.718 96.8926 109.082C97.3885 109.825 98.0083 110.817 98.5042 112.429C99.124 114.412 98.8761 115.776 98.6281 116.892C98.3802 118.503 98.1323 119.867 100.24 123.09C100.364 123.338 100.364 123.71 100.24 123.958C100.116 123.586 99.9918 123.586 99.7438 123.586Z" fill="#1F160A"/>
<path d="M84.0001 124.826L79.4134 104.124C79.2894 103.752 79.5373 103.38 79.9092 103.256C80.2811 103.132 80.653 103.38 80.777 103.752L84.0001 118.504L87.2233 103.752C87.3472 103.38 87.7191 103.132 88.091 103.256C88.4629 103.38 88.7109 103.752 88.5869 104.124L84.0001 124.826Z" fill="#1F160A"/>
<path d="M73.215 124.95C72.967 124.95 72.8431 124.826 72.7191 124.702C68.6282 119.619 69.4959 117.636 70.3637 115.28C70.6117 114.537 70.9835 113.793 71.2315 112.801C71.4794 111.437 71.3555 110.57 71.1075 109.578C70.7356 107.966 70.3637 106.107 72.0993 101.644C72.2232 101.272 72.5951 101.148 72.967 101.272C73.3389 101.396 73.4629 101.768 73.3389 102.14C71.8513 106.231 72.0992 107.842 72.4712 109.33C72.7191 110.322 72.8431 111.437 72.5951 113.049C72.3472 114.165 71.9753 115.032 71.7274 115.776C70.9836 117.636 70.3637 118.999 72.5951 122.099C72.7191 119.371 73.7108 118.256 74.7026 117.14C75.4464 116.272 76.1902 115.528 76.5621 113.793C76.934 112.305 76.81 111.313 76.81 110.446C76.686 108.338 76.81 107.099 80.0331 103.503C80.2811 103.256 80.7769 103.256 81.0249 103.503C81.2728 103.751 81.2728 104.247 81.0249 104.495C78.0497 107.718 78.0497 108.71 78.1736 110.446C78.1736 111.313 78.2976 112.553 77.9257 114.165C77.4298 116.148 76.5621 117.264 75.8183 118.132C74.7026 119.371 73.8348 120.487 74.0827 124.206C74.0827 124.454 73.9588 124.826 73.7108 124.95C73.3389 124.95 73.3389 124.95 73.215 124.95Z" fill="#1F160A"/>
<path d="M58.5869 118.007L65.0332 97.6766C65.1572 97.3047 65.5291 97.0567 65.901 97.1807C66.2729 97.3047 66.5208 97.6765 66.3968 98.0484L61.8101 112.429L71.9754 101.272C72.2233 101.024 72.7192 101.024 72.9671 101.272C73.215 101.52 73.215 102.015 72.9671 102.263L58.5869 118.007Z" fill="#1F160A"/>
<path d="M49.5372 112.925C49.5372 112.925 49.4132 112.801 49.5372 112.925C49.1653 112.925 48.9174 112.677 48.9174 112.305C47.9256 105.859 49.6612 104.495 51.6447 103.008C52.2645 102.512 52.8843 102.016 53.6281 101.272C54.6198 100.156 54.8678 99.4126 55.1157 98.4209C55.6116 96.9333 56.2314 95.0738 59.9504 92.0986C60.1984 91.8506 60.6942 91.8506 60.9422 92.2225C61.1901 92.4705 61.1901 92.9663 60.8182 93.2143C57.4711 96.0655 56.9752 97.5531 56.4794 98.9168C56.1075 99.9085 55.8595 100.9 54.6199 102.264C53.876 103.132 53.1323 103.627 52.5124 104.123C50.9008 105.363 49.7851 106.231 50.0331 110.074C51.5207 107.718 52.8843 107.223 54.2479 106.727C55.3637 106.355 56.3554 105.983 57.5951 104.743C58.7108 103.627 59.0827 102.76 59.4546 101.892C60.3223 100.032 61.0661 98.9168 65.6529 97.4292C66.0248 97.3052 66.3967 97.5531 66.5207 97.925C66.6447 98.2969 66.3967 98.6688 66.0248 98.7928C61.8099 100.156 61.3141 101.024 60.6942 102.512C60.3223 103.38 59.8265 104.371 58.5868 105.611C57.0992 107.099 55.8595 107.594 54.7438 107.966C53.2562 108.462 51.8926 108.958 50.157 112.429C50.0331 112.677 49.7851 112.925 49.5372 112.925Z" fill="#1F160A"/>
<path d="M39.9919 99.4128L55.6118 85.0326C55.8597 84.7847 56.3556 84.7847 56.6035 85.0326C56.8515 85.2806 56.8515 85.7764 56.6035 86.0244L45.4465 96.1897L59.8267 91.6029C60.1986 91.4789 60.5704 91.7269 60.6944 92.0988C60.8184 92.4707 60.5705 92.8426 60.1986 92.9665L39.9919 99.4128Z" fill="#1F160A"/>
<path d="M35.0344 90.4862C34.9105 90.4862 34.7865 90.4862 34.6625 90.3622C34.4146 90.1143 34.2906 89.8664 34.4146 89.6184C36.77 83.5441 38.8774 83.2961 41.3568 82.9242C42.1006 82.8003 42.9683 82.6763 43.8361 82.4284C45.1997 81.9325 45.8196 81.4366 46.5634 80.6928C47.803 79.5771 49.1667 78.3375 53.8774 77.5937C54.2493 77.4697 54.6212 77.8416 54.6212 78.2135C54.7452 78.5854 54.3733 78.9573 54.0014 78.9573C49.6625 79.7011 48.5468 80.6928 47.3072 81.6846C46.5634 82.4284 45.6956 83.0482 44.084 83.668C43.0923 84.0399 42.1006 84.1639 41.2328 84.2879C39.2493 84.5358 37.7617 84.7837 36.1501 88.2548C38.6295 87.0151 40.1171 87.2631 41.4807 87.511C42.5964 87.7589 43.5882 87.8829 45.3237 87.387C46.8113 86.8912 47.6791 86.3953 48.2989 85.8994C50.0344 84.7837 51.1501 84.1639 55.8609 85.1556C56.2328 85.2796 56.4807 85.6515 56.3567 86.0234C56.2328 86.3953 55.8609 86.6432 55.489 86.5193C51.1501 85.5275 50.4063 86.1474 48.9187 87.0151C48.1749 87.511 47.1832 88.1308 45.5716 88.6267C43.5882 89.2465 42.2245 88.9986 41.1088 88.7507C39.4973 88.5027 38.1336 88.2548 34.9105 90.3622C35.2824 90.4862 35.1584 90.4862 35.0344 90.4862Z" fill="#1F160A"/>
<path d="M54.1243 78.7097H54.0003L33.2979 74.1229L54.0003 69.5362C54.3722 69.4122 54.7441 69.6601 54.8681 70.032C54.9921 70.4039 54.7441 70.7758 54.3722 70.8998L39.6202 74.1229L54.3722 77.3461C54.7441 77.47 54.9921 77.8419 54.8681 78.2138C54.6202 78.4618 54.3722 78.7097 54.1243 78.7097Z" fill="#1F160A"/>
<path d="M54 71.024C53.876 71.024 53.6281 71.024 53.5042 70.9C50.281 67.9248 49.2893 67.9248 47.5537 68.0488C46.686 68.0488 45.4463 68.1727 43.8347 67.8008C41.8513 67.305 40.7356 66.4372 39.8678 65.6934C38.6281 64.5777 37.5124 63.7099 33.7934 63.9578C33.5455 63.9578 33.1736 63.8339 33.0496 63.5859C32.9256 63.338 33.0496 62.9661 33.2975 62.8421C38.3802 58.7512 40.3636 59.619 42.719 60.4868C43.4628 60.7347 44.2066 61.1066 45.1984 61.3545C46.562 61.6025 47.4298 61.4785 48.4215 61.2306C50.0331 60.8587 51.8926 60.4868 56.3554 62.2223C56.7273 62.3463 56.8513 62.7182 56.7273 63.0901C56.6033 63.462 56.2314 63.5859 55.8595 63.462C51.7686 61.9744 50.157 62.2223 48.6694 62.5942C47.6777 62.8421 46.562 62.9661 44.9504 62.7182C43.8347 62.4702 42.967 62.0983 42.2232 61.8504C40.3637 61.1066 39 60.4868 35.9008 62.7182C38.6281 62.8421 39.7438 63.8339 40.8595 64.8256C41.7273 65.5694 42.4711 66.3132 44.2066 66.6851C45.6942 67.057 46.686 66.9331 47.5537 66.9331C49.6612 66.8091 50.9008 66.9331 54.4959 70.0322C54.7438 70.2802 54.7438 70.776 54.4959 71.024C54.3719 71.024 54.124 71.024 54 71.024Z" fill="#1F160A"/>
<path d="M56.1076 63.2141C55.9837 63.2141 55.7357 63.2141 55.6118 63.0901L39.9919 48.71L60.3225 55.1562C60.6944 55.2802 60.9423 55.6521 60.8184 56.024C60.6944 56.3959 60.3225 56.6438 59.9506 56.5199L45.5705 51.9331L56.7275 62.0984C56.9754 62.3463 56.9754 62.8422 56.7275 63.0901C56.4795 63.0901 56.3556 63.2141 56.1076 63.2141Z" fill="#1F160A"/>
<path d="M59.8265 56.5198C59.5785 56.5198 59.2066 56.3958 59.2066 56.0239C57.843 51.809 56.9752 51.3132 55.4876 50.6933C54.6198 50.3214 53.6281 49.8255 52.3884 48.5859C50.9008 47.0983 50.405 45.8586 50.0331 44.7429C49.5372 43.2553 49.0413 41.8917 45.5703 40.1561C45.3223 40.0322 45.1984 39.7842 45.1984 39.4123C45.1984 39.1644 45.4463 38.9165 45.8182 38.7925C52.2645 37.8008 53.6281 39.5363 55.1157 41.5198C55.6116 42.1396 56.1075 42.7594 56.8513 43.5032C57.967 44.495 58.7108 44.7429 59.7025 44.9908C61.1901 45.4867 63.0496 46.1065 66.0248 49.8255C66.2727 50.0735 66.2727 50.5693 65.9008 50.8173C65.6529 51.0652 65.157 51.0652 64.9091 50.6933C62.0579 47.3462 60.5703 46.8503 59.2066 46.3545C58.2149 45.9826 57.2232 45.7346 55.8595 44.495C54.9917 43.7512 54.4959 43.0074 54 42.3875C52.7603 40.776 51.8926 39.6603 48.0496 39.9082C50.405 41.3958 50.9008 42.7594 51.3967 44.1231C51.7686 45.2388 52.1405 46.2305 53.3802 47.4702C54.4959 48.5859 55.3637 48.9578 56.2314 49.3297C58.0909 50.1974 59.2066 50.9412 60.6942 55.528C60.8182 55.8999 60.5703 56.2718 60.1984 56.3958C59.9504 56.5198 59.9504 56.5198 59.8265 56.5198Z" fill="#1F160A"/>
<path d="M65.653 50.8167C65.4051 50.8167 65.0332 50.5687 65.0332 50.3208L58.5869 29.9902L72.9671 45.6101C73.215 45.858 73.215 46.3539 72.9671 46.6018C72.7192 46.8497 72.2233 46.8497 71.9754 46.6018L61.8101 35.4448L66.3968 49.8249C66.5208 50.1968 66.2729 50.5687 65.901 50.6927C65.777 50.8167 65.653 50.8167 65.653 50.8167Z" fill="#1F160A"/>
<path d="M72.2231 46.9739H72.0992C71.7273 46.8499 71.4793 46.478 71.6033 46.1061C72.595 41.7673 71.9752 40.8995 71.1074 39.5359C70.6116 38.7921 69.9917 37.8003 69.4959 36.1888C68.876 34.2053 69.124 32.8417 69.3719 31.726C69.6198 30.1144 69.8678 28.7508 67.7603 25.5276C67.6364 25.2797 67.6364 24.9078 67.7603 24.6598C68.0083 24.4119 68.2562 24.2879 68.5041 24.4119C74.5785 26.7673 74.8265 28.8747 75.1984 31.3541C75.3223 32.0979 75.4463 32.9656 75.6942 33.8334C76.1901 35.197 76.686 35.8169 77.4298 36.5607C78.5455 37.8003 79.7851 39.164 80.5289 43.8747C80.6529 44.2466 80.281 44.6185 79.9091 44.6185C79.5372 44.7425 79.1653 44.3706 79.1653 43.9987C78.4215 39.6598 77.4298 38.5441 76.438 37.3045C75.6942 36.5607 75.0744 35.6929 74.4546 34.0813C74.0827 33.0896 73.9587 32.0979 73.8347 31.2301C73.5868 29.2466 73.3389 27.759 69.8678 26.1475C71.1074 28.6268 70.8595 30.1144 70.6116 31.478C70.3636 32.5937 70.2397 33.5855 70.7355 35.321C71.2314 36.8086 71.7273 37.6764 72.2231 38.2962C73.3388 40.0317 73.9587 41.1474 72.967 45.8582C72.719 46.726 72.4711 46.9739 72.2231 46.9739Z" fill="#1F160A"/>
<path d="M71.7272 99.1642C69.7438 99.1642 67.7603 99.0402 65.5289 98.6683C65.157 98.6683 64.9091 98.2964 64.9091 97.9245C64.9091 97.5526 65.2809 97.3047 65.6528 97.3047C74.0826 98.5444 80.6529 97.3047 85.4876 93.5857C90.4463 89.7427 91.9339 84.1642 92.1818 82.4287L87.595 81.313C87.3471 81.313 87.2231 81.065 87.0991 80.8171C86.9752 80.5692 87.0992 80.3212 87.2231 80.1973C87.3471 80.0733 93.9173 71.5196 93.9173 63.3378C93.9173 57.2634 92.1818 52.5526 88.8347 49.5774C83.7521 44.9907 76.314 45.7345 76.19 45.7345C75.8181 45.7345 75.4463 45.4865 75.4463 45.1146C75.4463 44.7427 75.6942 44.3708 76.0661 44.3708C76.438 44.3708 84.1239 43.5031 89.7025 48.4617C93.4215 51.6849 95.281 56.6436 95.281 63.2138C95.281 70.5278 90.6942 77.7179 88.9587 80.0733L93.1735 81.065C93.5454 81.189 93.6694 81.4369 93.6694 81.8088C93.6694 82.1807 92.8016 89.4948 86.3554 94.5774C82.5124 97.6766 77.6777 99.1642 71.7272 99.1642Z" fill="#1F160A"/>
<path d="M73.5868 74.6191C69.7438 74.6191 65.529 71.52 65.281 71.396C65.0331 71.272 65.0331 71.0241 65.0331 70.7762C65.0331 70.5282 65.1571 70.2803 65.405 70.2803C65.529 70.1563 69.7438 68.1729 73.4628 68.1729C77.3058 68.1729 79.2893 70.6522 79.4133 70.7762C79.5372 71.0241 79.6612 71.272 79.4133 71.52C79.4133 71.52 77.5538 74.6191 73.5868 74.6191ZM67.1405 70.9001C68.5042 71.7679 71.2314 73.2555 73.5868 73.2555C76.0662 73.2555 77.4298 71.7679 78.0496 71.1481C77.4298 70.5282 75.9422 69.4125 73.5868 69.4125C71.2314 69.4125 68.6281 70.2803 67.1405 70.9001Z" fill="#1F160A"/>
<path d="M65.4049 66.1895L64.4132 65.1978C70.3636 59.1234 77.9256 62.7184 78.0496 62.7184L77.4297 63.9581C77.1818 63.8341 70.7355 60.8589 65.4049 66.1895Z" fill="#1F160A"/>
<path d="M95.5291 88.3788C93.0498 88.3788 91.4382 87.635 91.3143 87.635C90.9424 87.511 90.8184 87.1391 90.9424 86.7672C91.0663 86.3953 91.4382 86.2714 91.8101 86.3953C92.0581 86.5193 96.8928 88.3788 101.728 85.1557C102.099 84.9077 102.471 85.0317 102.719 85.2796C102.967 85.6515 102.843 86.0234 102.595 86.2714C99.992 87.8829 97.5126 88.3788 95.5291 88.3788Z" fill="#1F160A"/>
<path d="M73.2149 74.6191C71.4793 74.6191 69.9917 73.2555 69.9917 71.396C69.9917 69.6605 71.3553 68.1729 73.2149 68.1729C74.9504 68.1729 76.438 69.5365 76.438 71.396C76.438 73.1315 75.0744 74.6191 73.2149 74.6191ZM73.2149 69.6605C72.2231 69.6605 71.3553 70.5282 71.3553 71.52C71.3553 72.5117 72.2231 73.3795 73.2149 73.3795C74.2066 73.3795 75.0744 72.5117 75.0744 71.52C75.0744 70.4043 74.2066 69.6605 73.2149 69.6605Z" fill="#1F160A"/>
<path d="M105.074 86.2714C104.703 86.2714 104.331 86.0235 104.331 85.5276C104.331 84.2879 103.339 83.2962 102.099 83.2962C101.727 83.2962 101.355 83.0483 101.355 82.5524C101.355 82.0565 101.603 81.8086 102.099 81.8086C104.083 81.8086 105.694 83.4202 105.694 85.4036C105.694 86.0235 105.446 86.2714 105.074 86.2714Z" fill="#1F160A"/>
<path d="M86.8514 95.9414C85.6117 95.9414 84.62 95.8174 84.496 95.8174C84.1241 95.6935 83.8762 95.4455 84.0001 95.0736C84.1241 94.7017 84.372 94.4538 84.7439 94.5777C84.7439 94.5777 89.9506 95.4455 92.5539 92.8422C92.8018 92.5943 93.2976 92.5943 93.5456 92.8422C93.7935 93.0901 93.7935 93.586 93.5456 93.8339C91.6861 95.5695 88.8348 95.9414 86.8514 95.9414Z" fill="#1F160A"/>
<path d="M98.7523 74.6191C94.7853 74.6191 92.9258 71.5199 92.8018 71.3959C92.6779 71.148 92.6779 70.9001 92.8018 70.6521C92.9258 70.5282 94.7853 68.0488 98.7523 68.0488C102.471 68.0488 106.686 70.1563 106.81 70.1563C107.058 70.2802 107.182 70.5282 107.182 70.6521C107.182 70.9001 107.058 71.148 106.934 71.272C106.81 71.5199 102.595 74.6191 98.7523 74.6191ZM94.4134 71.024C95.0332 71.7678 96.3969 73.1315 98.8762 73.1315C101.232 73.1315 103.835 71.6439 105.322 70.7761C103.835 70.1563 101.232 69.2885 99.0002 69.2885C96.3969 69.4125 95.0332 70.5282 94.4134 71.024Z" fill="#1F160A"/>
<path d="M106.934 66.1895C101.603 60.8589 95.1571 63.8341 94.9091 63.9581L94.2893 62.7184C94.4133 62.7184 101.975 59.1234 107.926 65.1978L106.934 66.1895Z" fill="#1F160A"/>
<path d="M99.124 74.6191C97.3885 74.6191 95.9009 73.2555 95.9009 71.396C95.9009 69.6605 97.2645 68.1729 99.124 68.1729C100.86 68.1729 102.347 69.5365 102.347 71.396C102.223 73.1315 100.86 74.6191 99.124 74.6191ZM99.124 69.6605C98.1323 69.6605 97.2645 70.5282 97.2645 71.52C97.2645 72.5117 98.1323 73.3795 99.124 73.3795C100.116 73.3795 100.984 72.5117 100.984 71.52C100.86 70.4043 100.116 69.6605 99.124 69.6605Z" fill="#1F160A"/>
<path d="M85.1159 86.2721C81.8927 86.2721 79.9092 85.6523 78.7935 84.2887C78.6696 84.0407 78.5456 83.7928 78.7935 83.5449C83.0084 77.2225 82.0167 68.6688 82.0167 68.5449L83.3803 68.4209C83.3803 68.7928 84.2481 77.2225 80.1572 83.7928C81.025 84.5366 82.6365 84.9085 84.9919 84.9085C86.7274 84.9085 88.0911 84.9085 91.9341 83.6688L92.306 85.0325C88.463 86.2721 86.8514 86.2721 85.1159 86.2721Z" fill="#1F160A"/>
<path d="M82.7604 91.8503C78.6695 91.8503 73.3389 91.1065 68.6282 88.1313L69.372 87.0156C77.9257 92.4702 89.2067 89.8669 89.3306 89.8669L89.7025 91.2305C89.4546 91.1065 86.6034 91.8503 82.7604 91.8503Z" fill="#1F160A"/>
<path d="M67.0166 87.5112H65.653C65.653 85.6517 67.1406 84.1641 69.0001 84.1641V85.5277C67.8844 85.5277 67.0166 86.3955 67.0166 87.5112Z" fill="#1F160A"/>
</g>
<defs>
<filter id="filter0_d" x="0" y="0" width="168" height="168" filterUnits="userSpaceOnUse" color-interpolation-filters="sRGB">
<feFlood flood-opacity="0" result="BackgroundImageFix"/>
<feColorMatrix in="SourceAlpha" type="matrix" values="0 0 0 0 0 0 0 0 0 0 0 0 0 0 0 0 0 0 127 0"/>
<feOffset dy="10"/>
<feGaussianBlur stdDeviation="12"/>
<feColorMatrix type="matrix" values="0 0 0 0 0.964706 0 0 0 0 0.764706 0 0 0 0 0.490196 0 0 0 0.2 0"/>
<feBlend mode="normal" in2="BackgroundImageFix" result="effect1_dropShadow"/>
<feBlend mode="normal" in="SourceGraphic" in2="effect1_dropShadow" result="shape"/>
</filter>
</defs>
</svg>
