<svg width="142" height="102" viewBox="0 0 142 102" fill="none" xmlns="http://www.w3.org/2000/svg">
<g filter="url(#filter0_d)">
<path d="M27.3416 39.7207C28.4486 40.2947 29.5761 40.8277 29.8631 40.9097C30.4781 41.1147 30.9496 41.0532 31.4416 40.6842C31.9131 40.3357 31.9131 40.1717 31.4621 39.8847C31.2776 39.7617 30.5806 39.2492 29.9246 38.7572C27.5056 36.9326 26.7265 36.5841 25.435 36.7071C24.6765 36.7891 24 37.0966 24 37.3631C24 37.7321 25.394 38.7162 27.3416 39.7207Z" fill="#AA7E52"/>
<path d="M110.676 47.9618C110.43 47.9003 110.245 47.7363 110.061 47.4083C109.322 45.9732 105.694 43.1032 101.204 40.3561C97.8423 38.3061 95.9973 37.4656 91.3437 35.8871C88.3506 34.8621 81.3805 33.2425 77.7314 32.7095C72.1348 31.8895 62.1102 32.0945 55.9191 33.14C51.696 33.8575 48.5594 34.8006 43.6598 36.8301C37.8172 39.2491 35.5212 40.5612 30.2526 44.4767C26.4806 47.2853 25.107 48.8638 25.3325 50.0733C25.5375 51.1393 27.7311 53.5584 30.3961 55.6904C31.4416 56.5104 37.3662 60.098 38.8423 60.795C40.5643 61.5945 43.6598 62.8245 45.7099 63.4805C56.9031 67.1296 58.2971 67.4781 63.9962 67.9701C64.3037 67.9906 66.2922 68.0111 68.4038 67.9906C72.5858 67.9496 73.5494 67.8471 77.4854 67.0476C83.041 65.9201 85.9726 65.1411 89.0066 64.0136C93.3117 62.435 96.3868 61.082 98.4778 59.893C100.2 58.909 103.726 56.5309 104.935 55.5469C107.703 53.2919 110.594 50.2373 111.127 49.0073C111.332 48.4743 111.168 48.0643 110.676 47.9618ZM27.3211 49.6223C26.7676 49.3353 26.6651 49.1918 26.9726 49.0688C27.1776 48.9868 27.8746 49.4583 27.9771 49.7248C28.0591 49.9708 27.9361 49.9503 27.3211 49.6223ZM29.6171 47.2443C29.5761 47.3058 29.4531 47.3673 29.3506 47.3673C29.2481 47.3673 29.1866 47.3058 29.2481 47.2443C29.2891 47.1828 29.4121 47.1213 29.5146 47.1213C29.6171 47.1213 29.6581 47.1828 29.6171 47.2443ZM94.0292 40.4997C94.0702 40.4587 94.1727 40.4587 94.2752 40.4997C94.3777 40.5407 94.3367 40.5612 94.1932 40.5817C94.0497 40.5612 93.9882 40.5407 94.0292 40.4997ZM90.4622 39.8026C91.5077 40.1511 92.3277 40.3562 93.2297 40.4997C93.5987 40.5612 93.6807 40.6227 93.6807 40.8892C93.6807 41.0532 93.6602 41.1967 93.6192 41.1967C93.2707 41.1557 89.2936 39.5566 89.3756 39.4951C89.3756 39.4541 89.8882 39.5976 90.4622 39.8026ZM86.6696 38.5521C86.8541 38.5521 88.8221 39.1876 88.8221 39.2491C88.8221 39.3311 88.7196 39.3106 88.2891 39.1876C88.1046 39.1261 87.9201 39.1056 87.8791 39.1466C87.7971 39.2286 86.5466 38.7776 86.5466 38.6546C86.5466 38.5931 86.6081 38.5521 86.6696 38.5521ZM85.7061 36.4611C85.7471 36.4201 85.8496 36.4201 85.9521 36.4611C86.0546 36.5021 86.0136 36.5226 85.8701 36.5431C85.7266 36.5226 85.6651 36.5021 85.7061 36.4611ZM84.7016 36.2151C84.7426 36.1741 84.8451 36.1741 84.9476 36.2151C85.0501 36.2561 85.0091 36.2766 84.8656 36.2971C84.7221 36.2766 84.6606 36.2561 84.7016 36.2151ZM83.1845 35.8256C83.2255 35.7846 83.328 35.7846 83.4305 35.8256C83.533 35.8666 83.492 35.8871 83.3485 35.9076C83.205 35.9076 83.1435 35.8666 83.1845 35.8256ZM82.672 35.7026C82.713 35.6616 82.8155 35.6616 82.918 35.7026C83.0205 35.7436 82.9795 35.7641 82.836 35.7846C82.713 35.7641 82.631 35.7436 82.672 35.7026ZM82.18 35.5796C82.221 35.5386 82.3235 35.5386 82.426 35.5796C82.5285 35.6206 82.4875 35.6411 82.344 35.6616C82.2005 35.6411 82.139 35.6206 82.18 35.5796ZM77.9774 36.6661C78.777 36.6661 79.4535 36.5021 79.6585 36.2356C79.7815 36.0921 79.8635 36.0716 80.253 36.2151L80.704 36.3791H80.3145C79.72 36.3996 79.5765 36.6251 79.9045 36.9736C80.171 37.2401 80.171 37.2606 79.9455 37.2606C79.4535 37.2401 77.5059 36.8301 77.4239 36.7276C77.3419 36.7071 77.6084 36.6661 77.9774 36.6661ZM69.1828 34.165C71.1303 34.1445 73.8979 34.37 75.9069 34.698L76.9114 34.8621L76.0914 34.8416C74.9024 34.8211 74.2054 34.78 70.8638 34.493C66.8663 34.165 66.8867 34.1855 69.1828 34.165ZM71.5198 51.0778C72.2578 51.8363 75.5584 54.4604 76.1119 54.7474C76.5834 54.9934 76.6039 55.0139 76.4194 55.2804C76.3169 55.4239 75.8044 55.8954 75.2714 56.3259C74.7384 56.7564 74.2669 57.0844 74.2054 57.0844C74.0209 57.0844 73.0779 55.6084 72.7089 54.7269C71.9093 52.7999 71.7453 52.4514 71.2943 51.6723C70.6998 50.6678 70.8228 50.3808 71.5198 51.0778ZM70.8433 44.2102C70.7818 44.2102 70.3513 44.0872 69.8798 43.9437L69.0393 43.6772L68.9778 41.4017C68.9368 40.1512 68.8753 38.9826 68.8138 38.8186L68.7113 38.5111L70.2078 38.5931C71.8683 38.6751 73.3854 39.0441 74.2874 39.5976L74.8204 39.9256L74.3489 40.1717C73.7954 40.4382 72.3194 42.0987 71.5198 43.3697C71.2328 43.8207 70.9253 44.2102 70.8433 44.2102ZM75.2714 51.5288C74.0209 50.6268 72.4423 49.2123 72.5653 49.0893C72.6269 49.0278 73.7339 48.7408 75.0459 48.4333C76.3579 48.1463 77.8544 47.7773 78.408 47.6338L79.392 47.3878V48.3923C79.392 50.0733 78.9615 51.6928 78.1824 52.9434C78.0184 53.2099 77.8339 53.4149 77.7724 53.4149C77.7109 53.4149 77.3009 53.1074 76.8704 52.7589C76.3989 52.4103 75.7019 51.8568 75.2714 51.5288ZM76.2759 46.6087C74.6359 46.9163 73.2009 47.1828 73.1189 47.2033C72.9139 47.2853 72.8729 47.2033 72.6884 46.4037L72.5244 45.7477L73.4469 44.3127C74.3284 42.9597 75.5994 41.2992 75.9889 40.9507C76.1324 40.8277 76.2759 40.9097 76.7474 41.4017C77.8749 42.5907 79.023 44.5382 79.187 45.5427L79.269 46.0552L76.2759 46.6087ZM76.1119 37.0761C75.8454 36.9736 75.9479 36.7891 76.2759 36.7891C76.4809 36.7891 76.5834 36.8506 76.5834 36.9736C76.5834 37.1581 76.4194 37.1991 76.1119 37.0761ZM65.5337 35.0466C65.7182 35.0261 66.0462 35.0261 66.2307 35.0466C66.4152 35.0671 66.2717 35.1081 65.8822 35.1081C65.4927 35.1081 65.3287 35.0876 65.5337 35.0466ZM64.1397 34.9441C64.2627 34.9031 64.4677 34.9031 64.5907 34.9441C64.7137 34.9851 64.6112 35.0056 64.3652 35.0056C64.1192 34.9851 64.0167 34.9646 64.1397 34.9441ZM64.1397 36.3381C64.3242 36.2356 65.1237 36.2561 65.7592 36.4201C66.1692 36.5226 66.1487 36.5226 65.4927 36.5431C65.1032 36.5431 64.6112 36.5841 64.3857 36.6251C63.9757 36.6866 63.8322 36.5226 64.1397 36.3381ZM65.6977 38.7571C66.1897 38.6546 66.6612 38.5521 66.7227 38.5521C66.7842 38.5521 66.7638 38.9006 66.6613 39.3311C66.5587 39.7821 66.4973 40.9302 66.4768 41.9757C66.4768 43.7797 66.4562 43.8412 66.1897 43.9642C65.9642 44.0667 65.8412 44.0052 65.4722 43.5542C65.2262 43.2672 64.7342 42.7137 64.3857 42.3242L63.7297 41.6272H62.8482C61.8847 41.6272 61.3927 41.8937 61.5362 42.3037C61.6797 42.6932 62.7252 44.1077 63.4837 44.9072C64.2217 45.7067 64.2422 45.7067 64.0987 46.1987C64.0167 46.4652 63.9552 46.8548 63.9347 47.0598C63.8937 47.5723 63.6067 47.5723 61.9462 47.1213C61.2287 46.9163 60.2036 46.7113 59.7116 46.6703C59.1376 46.6293 58.7891 46.5268 58.7891 46.4448C58.7891 46.0963 59.2196 44.8662 59.6296 44.0462C61.1057 41.1557 63.1967 39.3106 65.6977 38.7571ZM64.0782 49.6018C64.0987 49.6838 63.7502 49.9503 63.2787 50.2168C62.2332 50.8113 60.5932 51.9183 59.8141 52.5539C59.4861 52.8204 59.1786 53.0459 59.0966 53.0459C59.0146 53.0459 58.8506 52.6769 58.7071 52.2054C58.5021 51.5493 58.4406 51.0163 58.4406 49.7658C58.4406 48.8843 58.4816 48.1258 58.5021 48.0848C58.5431 48.0438 59.3221 48.2078 60.2446 48.4538C61.1672 48.6998 62.3972 49.0073 62.9712 49.1713C63.5452 49.3558 64.0372 49.5403 64.0782 49.6018ZM39.0678 45.1122C40.9333 44.1282 40.8308 44.2717 38.7603 45.5017C37.8993 46.0143 36.8947 46.6497 36.5462 46.9163C35.9312 47.3878 35.5622 47.5108 35.4392 47.3058C35.3572 47.1623 36.9972 46.1783 39.0678 45.1122ZM33.5737 51.4058C33.4097 51.3648 32.8357 50.9548 32.8357 50.8728C32.8357 50.6883 33.0407 50.7908 33.3482 51.0983C33.5122 51.2623 33.6147 51.4058 33.5737 51.4058ZM36.4232 56.6744C35.7262 56.5104 35.3367 56.3464 35.0497 56.1414C34.8242 55.9774 34.8242 55.9569 35.0292 55.7519C35.2137 55.5674 35.2752 55.5674 35.7057 55.8339C35.9722 55.9979 36.4027 56.2849 36.6692 56.4694C37.2022 56.8589 37.1817 56.8589 36.4232 56.6744ZM35.9312 52.9229L36.2797 53.0664C36.4642 53.1484 36.6282 53.2714 36.6282 53.3124C36.6282 53.4559 36.6077 53.4559 36.2592 53.1689L35.9312 52.9229ZM49.2974 59.0935C49.1744 59.0935 49.0924 59.073 49.1334 59.032C49.1744 58.991 49.2769 58.991 49.3795 59.032C49.482 59.0525 49.4409 59.0935 49.2974 59.0935ZM53.254 60.221C52.9875 60.221 51.163 59.729 50.794 59.5445C50.548 59.4215 51.532 59.647 52.5365 59.9135C53.1105 60.0775 53.4385 60.221 53.254 60.221ZM56.8006 62.6195C56.8006 62.476 57.5181 62.6195 58.1946 62.886C58.6866 63.0705 59.8961 63.3576 61.0852 63.5626C61.2697 63.5831 61.1877 63.624 60.9007 63.624C59.8346 63.624 56.8006 62.8655 56.8006 62.6195ZM61.4952 65.8996C60.6136 65.8791 59.4451 65.5306 59.0966 65.2231L58.7481 64.8951L59.1786 65.0386C59.4246 65.1206 59.8961 65.1616 60.2856 65.1206C60.9212 65.0591 61.8232 65.2231 61.6592 65.3871C61.6182 65.4281 61.6592 65.5511 61.7207 65.6946C61.8232 65.8791 61.8027 65.9201 61.4952 65.8996ZM63.4837 59.852C62.1717 59.8315 58.1741 59.2575 56.0626 58.786C54.525 58.4375 50.63 57.3919 49.2359 56.9409C47.1039 56.2644 44.2134 54.9729 39.5188 52.6359C36.7102 51.2213 34.4142 50.0118 34.4142 49.9298C34.4142 49.7043 40.3388 46.1783 42.6758 44.9892C48.1904 42.2012 50.671 41.2172 54.5865 40.2126C56.5956 39.7001 61.8232 38.6341 61.8232 38.7366C61.8232 38.7571 61.4542 39.0031 61.0032 39.2901C59.2606 40.4177 58.1536 41.7092 57.0671 43.9027C56.2676 45.5017 56.0011 46.5677 55.7756 49.1713C55.5911 51.3443 55.7141 51.9799 56.7391 54.0504C57.4771 55.5469 57.7026 55.8544 58.5636 56.7154C59.6911 57.8225 61.0032 58.622 62.9097 59.36L64.1807 59.852H63.4837ZM68.1373 65.0181C67.9733 65.0181 67.8913 64.9976 67.9733 64.9566C68.0553 64.9156 68.1988 64.9156 68.2808 64.9566C68.3833 64.9771 68.3218 65.0181 68.1373 65.0181ZM66.1897 58.8475C64.2422 58.458 62.1922 57.3919 60.7776 55.9979C60.3471 55.5879 59.6501 54.5219 59.5271 54.0914C59.4451 53.8454 59.4861 53.8249 59.8756 53.8864C60.1831 53.9274 60.5521 53.8454 61.1057 53.6199C61.5567 53.4354 62.1717 53.1894 62.4792 53.0869C62.7867 52.9844 63.6887 52.5744 64.4882 52.2054C65.2877 51.8363 65.9437 51.5493 65.9642 51.5698C65.9847 51.5903 65.9232 52.0004 65.8207 52.4924C65.7182 52.9639 65.5542 54.1529 65.4312 55.1369C65.3287 56.1004 65.1647 57.1869 65.1032 57.5354C64.9392 58.3555 65.1237 58.5605 66.0462 58.5605C66.8663 58.5605 67.1943 58.3145 67.2968 57.597C67.3378 57.31 67.4813 56.8794 67.6248 56.6129C68.0553 55.7724 68.3833 54.3169 68.4653 52.9844C68.5063 52.2669 68.5883 51.6928 68.6293 51.6928C68.6703 51.6928 68.8138 51.9594 68.9368 52.2874C69.4288 53.6199 70.3923 55.4649 71.0688 56.3874C71.4583 56.9204 71.7863 57.4534 71.7863 57.5559C71.7863 57.6584 71.9093 57.8429 72.0528 57.9864L72.3194 58.253L71.8683 58.4375C71.6223 58.54 71.0278 58.704 70.5358 58.8065C69.5723 58.991 67.0713 59.032 66.1897 58.8475ZM70.9048 62.763C70.5563 62.7015 70.6793 62.6605 71.4173 62.6605C72.0528 62.6605 72.2784 62.681 72.1143 62.763C71.8068 62.886 71.5198 62.886 70.9048 62.763ZM71.9298 66.1456C71.6838 66.1456 71.5813 66.1251 71.7043 66.0841C71.8273 66.0431 72.0323 66.0431 72.1553 66.0841C72.2578 66.1046 72.1758 66.1456 71.9298 66.1456ZM75.1894 65.6331C74.3899 65.7766 73.4264 65.9406 73.0574 65.9611C72.6679 66.0021 73.2624 65.8586 74.3899 65.6536C75.4969 65.4486 76.4604 65.3051 76.5219 65.3256C76.5834 65.3461 75.9889 65.4896 75.1894 65.6331ZM76.9729 65.2641C76.8089 65.2641 76.7269 65.2436 76.8089 65.2026C76.8909 65.1616 77.0344 65.1616 77.1164 65.2026C77.2189 65.2436 77.1369 65.2641 76.9729 65.2641ZM77.5879 65.1411C77.4239 65.1411 77.3419 65.1206 77.4239 65.0796C77.5059 65.0386 77.6494 65.0386 77.7314 65.0796C77.8339 65.1001 77.7724 65.1411 77.5879 65.1411ZM78.2235 65.0181C78.0595 65.0181 77.9775 64.9976 78.0595 64.9566C78.1415 64.9156 78.285 64.9156 78.367 64.9566C78.4695 64.9771 78.408 65.0181 78.2235 65.0181ZM78.859 64.8746C78.695 64.8746 78.613 64.8541 78.695 64.8131C78.777 64.7721 78.9205 64.7721 79.0025 64.8131C79.105 64.8541 79.023 64.8746 78.859 64.8746ZM81.9545 64.1981C80.089 64.6491 79.146 64.8336 79.2485 64.7311C79.2895 64.6901 80.0275 64.5056 80.8885 64.3211C82.713 63.9111 85.1116 63.173 86.6081 62.5375C87.5921 62.1275 89.1911 61.656 89.3141 61.779C89.4371 61.943 84.2096 63.6651 81.9545 64.1981ZM89.2526 59.0935C89.0271 59.0935 88.7811 58.8885 88.9041 58.8065C89.0681 58.704 91.8357 57.72 91.9382 57.72C91.9792 57.72 91.4257 58.0275 90.7082 58.417C89.9906 58.786 89.3346 59.0935 89.2526 59.0935ZM92.3892 60.631C91.7947 60.8975 91.2617 61.123 91.2002 61.123C91.1387 61.123 91.0362 61.0205 90.9747 60.8975C90.8722 60.6925 90.9747 60.631 92.0817 60.385C92.7582 60.221 93.3937 60.057 93.4962 60.0365C94.0292 59.8315 93.3527 60.221 92.3892 60.631ZM101.758 49.4378C101.635 49.5198 101.266 49.8068 100.938 50.0733C99.3388 51.4468 94.6852 54.0504 91.0157 55.6699C89.9496 56.1414 87.4076 57.0639 85.2346 57.7609C82.8565 58.5195 78.654 59.442 75.9069 59.7905C75.0664 59.893 73.7954 60.016 73.0779 60.057L71.7453 60.1185L72.8114 59.77C75.0254 59.032 76.8089 57.884 78.4285 56.1824C80.0685 54.4399 81.073 52.7589 81.565 50.9753C81.852 49.9708 81.9545 46.9368 81.77 45.8093C81.401 43.7182 79.4945 41.0122 77.3624 39.5771C76.9114 39.2696 76.6039 39.0031 76.6859 38.9826C77.0754 38.8596 81.7495 39.9256 84.4146 40.7661C91.3027 42.8982 96.6328 45.4402 100.015 48.1463C100.446 48.4948 101.081 48.9048 101.409 49.0483C101.942 49.2738 101.963 49.3148 101.758 49.4378ZM106.247 51.1598C105.612 51.8569 105.038 52.4104 104.997 52.4104C104.956 52.4104 104.792 52.2669 104.669 52.1233L104.423 51.8569L105.058 51.3444C105.407 51.0573 105.96 50.6883 106.268 50.5038C106.821 50.1758 107.416 49.6018 107.539 49.2533C107.58 49.1713 107.641 49.1303 107.682 49.1713C107.826 49.3148 107.416 49.8888 106.247 51.1598Z" fill="#AA7E52"/>
<path d="M68.4653 26.0879C68.6293 26.2314 69.0393 26.4364 69.3673 26.5389C70.2283 26.7849 71.7249 26.6824 72.1554 26.3749L72.5039 26.1289V24.3249C72.5039 23.3204 72.5859 21.2908 72.6884 19.7943C72.8934 16.5348 72.8319 15.5302 72.3399 14.9972C72.1144 14.7512 71.8274 14.6077 71.4994 14.5462C71.2124 14.5052 70.8843 14.3822 70.7613 14.2592C70.5973 14.1157 70.2283 14.0337 69.5723 14.0132C68.7728 13.9722 68.5268 14.0132 68.1988 14.2387C67.4403 14.7102 67.0303 16.0428 67.0303 18.0313C67.0303 19.7123 67.5018 23.8534 67.7273 24.0789C67.8298 24.2019 67.9118 24.4274 67.9118 24.5914C67.8913 25.0629 68.1783 25.8009 68.4653 26.0879Z" fill="#AA7E52"/>
<path d="M54.4635 27.4615C54.8325 27.6255 55.9395 27.523 56.0831 27.2975C56.1651 27.195 56.4315 27.0515 56.6776 26.949C57.3746 26.7235 57.4361 26.58 57.2926 25.6575C57.0466 24.1814 56.4111 22.2749 55.591 20.6349C55.345 20.1634 55.1195 19.5278 55.058 19.2408C54.9145 18.3183 54.197 18.1133 53.1515 18.6668C52.8235 18.8308 52.4545 18.9743 52.3315 18.9743C52.2085 18.9743 51.9625 19.1178 51.7985 19.2818C51.3885 19.6919 51.3885 20.6759 51.7985 22.1929C52.598 25.1039 53.6025 27.0925 54.4635 27.4615Z" fill="#AA7E52"/>
<path d="M83.902 26.7234C83.984 26.8669 84.1685 27.031 84.312 27.0925C84.722 27.2565 85.6855 27.236 86.0136 27.0515C86.1981 26.949 86.8746 25.7189 88.0636 23.3614C89.8061 19.8763 89.8266 19.8353 89.5806 19.5893C89.1911 19.1998 87.9611 19.1588 87.3666 19.5073C87.0386 19.6918 86.7926 19.7533 86.5466 19.7123C85.7675 19.5483 84.804 20.2453 84.23 21.4139C83.9225 22.0289 82.7745 25.0834 82.6925 25.4934C82.6105 25.9239 82.918 26.2929 83.4305 26.3954C83.615 26.4364 83.8405 26.5799 83.902 26.7234Z" fill="#AA7E52"/>
<path d="M39.8467 32.9965C40.2977 33.2631 41.4868 33.1605 42.2248 32.812C42.5938 32.6275 42.9013 32.402 42.9013 32.32C42.9013 31.951 40.9948 28.384 40.5438 27.8715C39.7442 26.9899 38.2067 26.8259 37.3457 27.5434C37.0177 27.8304 36.9767 27.9535 36.9767 28.507C36.9767 29.286 37.3457 30.1265 38.1247 31.131C38.9037 32.0945 39.5802 32.8325 39.8467 32.9965Z" fill="#AA7E52"/>
<path d="M100.61 27.9534C99.8513 27.9534 99.4618 28.1584 98.6418 29.0605C97.8423 29.9215 96.5098 31.828 96.5098 32.115C96.5098 32.2175 96.7353 32.5865 97.0223 32.935C97.3093 33.2835 97.5963 33.6525 97.6578 33.796C97.7193 33.919 97.9038 34.0831 98.0678 34.1446C98.7443 34.4111 100.302 34.165 100.302 33.7755C100.302 33.714 100.774 33.017 101.368 32.197C102.66 30.4135 102.824 30.0445 102.537 29.737C102.393 29.5935 102.127 29.532 101.717 29.532H101.122L101.409 29.1015C101.922 28.3225 101.676 27.9534 100.61 27.9534Z" fill="#AA7E52"/>
<path d="M117.174 32.5865C116.928 32.3815 116.723 32.361 116.047 32.402C115.596 32.443 115.124 32.5045 115.022 32.5455C114.878 32.607 114.796 32.566 114.735 32.402C114.571 31.8895 113.464 31.705 112.705 32.074C112.213 32.32 109.589 34.9646 108.994 35.8256C108.728 36.2151 108.543 36.6456 108.502 36.9941C108.441 37.5476 108.441 37.5681 109.24 38.3061C109.691 38.7161 110.163 39.1056 110.306 39.1672C110.696 39.3312 111.721 39.3106 112.172 39.1261C112.418 39.0236 112.972 38.4906 113.525 37.8346C114.038 37.2196 115.083 36.0921 115.821 35.3131C116.723 34.3906 117.174 33.8166 117.174 33.6321C117.174 33.4886 117.236 33.222 117.318 33.0785C117.461 32.8735 117.42 32.7915 117.174 32.5865ZM111.454 37.3016C111.29 37.4451 111.27 37.4246 111.352 37.2606C111.413 37.0761 111.659 36.9531 111.659 37.0966C111.639 37.1171 111.557 37.1991 111.454 37.3016Z" fill="#AA7E52"/>
</g>
<defs>
<filter id="filter0_d" x="0" y="-0.000854492" width="141.4" height="102" filterUnits="userSpaceOnUse" color-interpolation-filters="sRGB">
<feFlood flood-opacity="0" result="BackgroundImageFix"/>
<feColorMatrix in="SourceAlpha" type="matrix" values="0 0 0 0 0 0 0 0 0 0 0 0 0 0 0 0 0 0 127 0"/>
<feOffset dy="10"/>
<feGaussianBlur stdDeviation="12"/>
<feColorMatrix type="matrix" values="0 0 0 0 0.964706 0 0 0 0 0.764706 0 0 0 0 0.490196 0 0 0 0.2 0"/>
<feBlend mode="normal" in2="BackgroundImageFix" result="effect1_dropShadow"/>
<feBlend mode="normal" in="SourceGraphic" in2="effect1_dropShadow" result="shape"/>
</filter>
</defs>
</svg>
