<svg width="107" height="120" viewBox="0 0 107 120" fill="none" xmlns="http://www.w3.org/2000/svg">
<path d="M45.711 38.9356C28.905 41.9014 19.0951 53.6885 17.27 56.0459C17.0418 56.3501 17.1179 56.7303 17.4221 56.9585C17.5742 57.0345 17.6502 57.1106 17.8023 57.1106C18.0304 57.1106 18.1825 57.0345 18.3346 56.8824C20.0837 54.6011 29.6654 43.1182 45.9392 40.2284C46.3194 40.1524 46.5475 39.8482 46.4715 39.468C46.3954 39.1638 46.0152 38.8596 45.711 38.9356Z" fill="#F6C37D"/>
<path d="M20.9962 55.7414L20.0836 57.3383H21.9848H23.8859L22.8973 55.7414L21.9848 54.0684L20.9962 55.7414Z" fill="#F6C37D"/>
<path d="M26.6997 51.7101L25.7871 53.3071H27.6882H29.5133L28.6008 51.7101L27.6882 50.0371L26.6997 51.7101Z" fill="#F6C37D"/>
<path d="M32.403 48.2122L31.4905 49.8852H33.3156H35.2167L34.3042 48.2122L33.3156 46.6152L32.403 48.2122Z" fill="#F6C37D"/>
<path d="M38.1065 45.7042L37.1179 47.3012H39.0191H40.9202L39.9316 45.7042L39.0191 44.0312L38.1065 45.7042Z" fill="#F6C37D"/>
<path d="M44.7224 41.9004L43.7338 43.5734L42.8213 45.1704H44.7224H46.5475L45.635 43.5734L44.7224 41.9004Z" fill="#F6C37D"/>
<path d="M90.1977 74.8291C90.4259 74.5249 90.4259 74.1447 90.1217 73.9165C89.8175 73.6884 89.4373 73.6884 89.2091 73.9926C87.308 76.1979 77.1179 87.0724 60.692 89.0496C60.3118 89.1257 60.0837 89.4298 60.1597 89.734C60.2358 90.0382 60.4639 90.2663 60.7681 90.2663H60.8441C77.8023 88.2891 88.2205 77.0344 90.1977 74.8291Z" fill="#F6C37D"/>
<path d="M83.6578 73.1562L84.5704 74.9053L85.4069 76.5783L86.3955 74.9813L87.4601 73.3844L85.559 73.3083L83.6578 73.1562Z" fill="#F6C37D"/>
<path d="M78.6388 78.5558L79.4752 80.2288L80.5399 78.7079L81.5285 77.111L79.7034 77.0349L77.8022 76.8828L78.6388 78.5558Z" fill="#F6C37D"/>
<path d="M72.7833 81.7492L73.6198 83.4222L74.6844 81.8252L75.673 80.2283L73.7719 80.1522L71.9468 80.0762L72.7833 81.7492Z" fill="#F6C37D"/>
<path d="M66.9278 83.9543L67.8404 85.6273L68.8289 84.0303L69.8936 82.5094L67.9924 82.3573L66.0913 82.2812L66.9278 83.9543Z" fill="#F6C37D"/>
<path d="M61.1483 85.7803L62.0608 87.4533L63.0494 85.8563L64.114 84.2594L62.2129 84.1833L60.3118 84.0312L61.1483 85.7803Z" fill="#F6C37D"/>
<path d="M54.1521 92.6232V87.4521C54.1521 87.0719 53.848 86.8438 53.5438 86.8438C53.1636 86.8438 52.9354 87.1479 52.9354 87.4521V92.6993C52.9354 93.0795 53.2396 93.3076 53.5438 93.3076C53.924 93.3076 54.1521 93.0035 54.1521 92.6232Z" fill="#F6C37D"/>
<path d="M54.1521 113.613V108.366C54.1521 107.986 53.848 107.758 53.5438 107.758C53.1636 107.758 52.9354 108.062 52.9354 108.366V113.613C52.9354 113.994 53.2396 114.222 53.5438 114.222C53.924 114.222 54.1521 113.918 54.1521 113.613Z" fill="#F6C37D"/>
<path d="M53.5437 99.011C54.6357 99.011 55.5209 98.1258 55.5209 97.0338C55.5209 95.9419 54.6357 95.0566 53.5437 95.0566C52.4517 95.0566 51.5665 95.9419 51.5665 97.0338C51.5665 98.1258 52.4517 99.011 53.5437 99.011Z" fill="#F6C37D"/>
<path d="M53.5437 11.2547C54.3802 11.2547 55.0647 10.5703 55.0647 9.7338C55.0647 8.8973 54.3802 8.21289 53.5437 8.21289C52.7072 8.21289 52.0228 8.8973 52.0228 9.7338C52.0228 10.5703 52.7072 11.2547 53.5437 11.2547Z" fill="#F6C37D"/>
<path d="M53.5438 7.14881C54.1521 7.14881 54.6084 6.69253 54.6084 6.08417C54.6084 5.47581 54.1521 5.01953 53.5438 5.01953C52.9354 5.01953 52.4791 5.47581 52.4791 6.08417C52.4791 6.61649 52.9354 7.14881 53.5438 7.14881Z" fill="#F6C37D"/>
<path d="M53.5437 101.825C50.73 101.825 48.2966 100.076 47.384 97.5664C47.1559 98.2508 47.0038 99.0113 47.0038 99.8478C47.0038 103.422 49.8935 106.388 53.5437 106.388C57.1179 106.388 60.0836 103.498 60.0836 99.8478C60.0836 99.0873 59.9315 98.3269 59.7034 97.5664C58.7148 99.9999 56.3574 101.825 53.5437 101.825Z" fill="#FEF9DC"/>
<path d="M53.5437 116.197L52.8593 117.11L52.1749 118.098L52.8593 119.011L53.5437 120L54.2282 119.011L54.8365 118.098L54.2282 117.11L53.5437 116.197Z" fill="#F6C37D"/>
<path d="M53.5438 4.10646C53.772 4.10646 53.9241 3.95437 53.9241 3.72624V0.380228C53.9241 0.152091 53.772 0 53.5438 0C53.3157 0 53.1636 0.152091 53.1636 0.380228V3.72624C53.0876 3.95437 53.3157 4.10646 53.5438 4.10646Z" fill="#F6C37D"/>
<path d="M53.5437 16.2739C55.8251 16.2739 57.7262 14.4488 57.7262 12.0914C57.7262 11.559 57.6502 11.1028 57.4981 10.6465C56.8897 12.2434 55.3688 13.3841 53.6198 13.3841C51.8707 13.3841 50.3498 12.2434 49.7414 10.6465C49.5893 11.1028 49.5133 11.559 49.5133 12.0914C49.3612 14.3727 51.2623 16.2739 53.5437 16.2739Z" fill="#FEF9DC"/>
<path d="M19.3232 46.0833C19.4753 46.2354 19.6274 46.3114 19.7795 46.3114C19.9316 46.3114 20.0837 46.2354 20.2358 46.1593C20.4639 45.9312 20.54 45.4749 20.2358 45.2468L12.0989 36.5776C11.8708 36.3494 11.4145 36.2734 11.1863 36.5776C10.9582 36.8057 10.8822 37.262 11.1863 37.4901L19.3232 46.0833Z" fill="#F6C37D"/>
<path d="M25.1026 44.1835C25.2547 44.3356 25.4068 44.4116 25.635 44.4116C25.787 44.4116 25.9391 44.3356 26.0152 44.2595C26.3194 44.0314 26.3194 43.6511 26.1673 43.347L15.9011 29.9629C15.673 29.6587 15.2927 29.6587 14.9886 29.8108C14.6844 30.039 14.6844 30.4192 14.8365 30.7234L25.1026 44.1835Z" fill="#F6C37D"/>
<path d="M29.2852 38.4794C29.4373 38.7075 29.5894 38.7835 29.8175 38.7835C29.8936 38.7835 30.0456 38.7835 30.1217 38.7075C30.4259 38.5554 30.5019 38.0991 30.3498 37.7949L24.4183 27.5288C24.2662 27.2246 23.8099 27.1486 23.5057 27.3007C23.2015 27.4527 23.1255 27.909 23.2776 28.2132L29.2852 38.4794Z" fill="#F6C37D"/>
<path d="M35.2928 37.9467C35.3689 38.1748 35.597 38.3269 35.9012 38.3269C35.9772 38.3269 36.0533 38.3269 36.1293 38.2509C36.4335 38.0988 36.5856 37.7186 36.4335 37.4144L29.6654 21.9771C29.5133 21.6729 29.1331 21.5209 28.8289 21.6729C28.5248 21.825 28.3727 22.2053 28.5248 22.5094L35.2928 37.9467Z" fill="#F6C37D"/>
<path d="M40.6921 33.4598C40.7681 33.7639 40.9962 33.916 41.3004 33.916C41.3765 33.916 41.4525 33.916 41.4525 33.916C41.8327 33.84 41.9848 33.4597 41.9088 33.1556L38.7149 21.7487C38.6388 21.3685 38.2586 21.2164 37.9544 21.2924C37.6502 21.3685 37.4221 21.7487 37.4981 22.0529L40.6921 33.4598Z" fill="#F6C37D"/>
<path d="M46.5475 34.4485C46.6235 34.7527 46.8517 34.9809 47.1559 34.9809H47.2319C47.6121 34.9048 47.8403 34.6006 47.7642 34.2204L45.1787 17.5664C45.1026 17.1862 44.7985 16.9581 44.4182 17.0341C44.038 17.1101 43.8099 17.4143 43.8859 17.7946L46.5475 34.4485Z" fill="#F6C37D"/>
<path d="M53.5438 32.1676C53.924 32.1676 54.2282 31.8634 54.1521 31.4832L54.0001 19.6201C54.0001 19.2399 53.6959 19.0117 53.3156 19.0117C52.9354 19.0117 52.7073 19.3159 52.7073 19.6961L52.8594 31.5592C52.8594 31.8634 53.1636 32.1676 53.5438 32.1676Z" fill="#F6C37D"/>
<path d="M58.8669 34.7532C58.8669 34.7532 58.943 34.7532 58.8669 34.7532C59.2471 34.7532 59.5513 34.525 59.5513 34.1448L61.3764 17.3387C61.4525 16.9585 61.1483 16.6543 60.7681 16.6543C60.3878 16.5783 60.0836 16.8824 60.0836 17.2627L58.2585 34.0688C58.2585 34.3729 58.4867 34.7532 58.8669 34.7532Z" fill="#F6C37D"/>
<path d="M65.635 33.6128C65.711 33.6128 65.711 33.6128 65.787 33.6128C66.0912 33.6128 66.3194 33.3847 66.3954 33.1565L69.3612 21.6736C69.4372 21.2934 69.2091 20.9892 68.9049 20.9132C68.5247 20.8371 68.2205 21.0653 68.1445 21.3695L65.1787 32.8523C65.1026 33.1565 65.2547 33.5368 65.635 33.6128Z" fill="#F6C37D"/>
<path d="M70.0456 37.4912C70.1216 37.4912 70.1977 37.5672 70.2737 37.5672C70.5019 37.5672 70.8061 37.4151 70.8821 37.187L77.0418 21.4456C77.1939 21.1414 77.0418 20.7612 76.6616 20.6091C76.3574 20.457 75.9772 20.6091 75.8251 20.9893L69.6654 36.7307C69.5893 37.0349 69.7414 37.4151 70.0456 37.4912Z" fill="#F6C37D"/>
<path d="M76.9658 38.1742C77.0418 38.2502 77.1939 38.2502 77.27 38.2502C77.4981 38.2502 77.7262 38.0981 77.8023 37.946L83.6578 27.6038C83.8099 27.2996 83.7338 26.9194 83.4297 26.6913C83.1255 26.5392 82.7452 26.6152 82.5171 26.9194L76.6616 37.2616C76.5095 37.6419 76.6616 38.0221 76.9658 38.1742Z" fill="#F6C37D"/>
<path d="M80.3118 43.1941C80.3878 43.2701 80.5399 43.3462 80.692 43.3462C80.9201 43.3462 81.0722 43.2701 81.2243 43.042L91.1103 29.3538C91.3384 29.0496 91.2624 28.6694 90.9582 28.4412C90.654 28.2131 90.2738 28.2891 90.0456 28.5933L80.1597 42.2815C80.0076 42.5097 80.0836 42.966 80.3118 43.1941Z" fill="#F6C37D"/>
<path d="M86.9277 45.5516C87.0798 45.7036 87.2319 45.7036 87.384 45.7036C87.5361 45.7036 87.7642 45.6276 87.8402 45.4755L95.9011 36.8063C96.1292 36.5782 96.1292 36.1219 95.9011 35.8938C95.6729 35.6656 95.2167 35.6656 94.9885 35.8938L86.9277 44.639C86.6996 44.8671 86.6996 45.3234 86.9277 45.5516Z" fill="#F6C37D"/>
<path d="M42.8213 102.967H8.67684L24.4183 75.6663C24.5704 75.3621 24.4943 74.9819 24.1902 74.7538C23.886 74.6017 23.5057 74.6777 23.2776 74.9819L7.00384 103.271C6.85175 103.499 6.85175 103.727 7.00384 103.879C7.15593 104.107 7.30802 104.183 7.53616 104.183H42.8213C43.2016 104.183 43.4297 103.879 43.4297 103.575C43.4297 103.271 43.2016 102.967 42.8213 102.967Z" fill="#F6C37D"/>
<path d="M87.9924 82.4331C87.8403 82.1289 87.3841 82.0529 87.0799 82.205C86.7757 82.357 86.6997 82.8133 86.8517 83.1175L98.3346 103.041H64.1141C63.7339 103.041 63.5057 103.346 63.5057 103.65C63.5057 104.03 63.8099 104.258 64.1141 104.258H99.5514C99.7795 104.258 100.008 104.106 100.084 103.954C100.236 103.726 100.236 103.498 100.084 103.346L87.9924 82.4331Z" fill="#F6C37D"/>
<path d="M90.1217 65.2472L89.8175 64.8669C88.905 63.6502 85.3308 59.3156 79.3993 55.2852C71.4905 49.8099 62.8213 47.0723 53.5438 47.0723C44.2662 47.0723 35.597 49.8099 27.6883 55.2852C21.7567 59.3156 18.2586 63.6502 17.27 64.8669L16.9658 65.2472L17.27 65.6274C18.1825 66.8441 21.7567 71.1787 27.6883 75.2091C35.597 80.6844 44.2662 83.4221 53.5438 83.4221C62.8213 83.4221 71.4905 80.6844 79.3993 75.2091C85.3308 71.1787 88.8289 66.8441 89.8175 65.6274L90.1217 65.2472ZM53.5438 82.1293C33.5438 82.1293 21.5286 68.8213 18.6388 65.2472C21.5286 61.597 33.5438 48.289 53.5438 48.289C73.5438 48.289 85.559 61.597 88.4487 65.1711C85.559 68.8213 73.5438 82.1293 53.5438 82.1293Z" fill="#F6C37D"/>
<path d="M106.091 64.6389L99.019 60.9887C98.8669 60.9126 98.6387 60.9126 98.4106 60.9887L91.3384 64.6389C91.1102 64.7149 90.9581 64.943 90.9581 65.2472C90.9581 65.4754 91.1102 65.7035 91.3384 65.8556L98.4106 69.5058C98.4867 69.5818 98.6387 69.5818 98.7148 69.5818C98.7908 69.5818 98.9429 69.5818 99.019 69.5058L102.593 67.6807L106.167 65.8556C106.395 65.7795 106.547 65.5514 106.547 65.2472C106.471 65.0191 106.319 64.791 106.091 64.6389ZM98.7148 68.137L93.0114 65.2472L98.7148 62.3575L104.418 65.2472L98.7148 68.137Z" fill="#F6C37D"/>
<path d="M8.60077 69.5057C8.67682 69.5057 8.82891 69.5057 8.90495 69.4296L12.4791 67.6045L16.0532 65.7794C16.2814 65.7034 16.4335 65.4752 16.4335 65.1711C16.4335 64.9429 16.2814 64.7148 16.0532 64.5627L8.981 60.9125C8.82891 60.8365 8.60077 60.8365 8.37263 60.9125L1.22434 64.6387C0.996207 64.7908 0.844116 65.019 0.844116 65.2471C0.844116 65.4752 0.996207 65.7034 1.22434 65.8555L8.29659 69.5057C8.37263 69.5057 8.52472 69.5057 8.60077 69.5057ZM8.60077 68.1368L2.89735 65.2471L8.60077 62.3574L14.3042 65.2471L8.60077 68.1368Z" fill="#F6C37D"/>
<path d="M23.8859 100.152C24.2662 100.152 24.6464 99.8481 24.6464 99.5439C24.6464 99.1637 24.3422 98.9355 23.8859 98.9355C23.5057 98.9355 23.1255 99.2397 23.1255 99.5439C23.1255 99.9241 23.4297 100.152 23.8859 100.152Z" fill="#F6C37D"/>
<path d="M19.3993 100.152C19.7795 100.152 20.1597 99.8481 20.1597 99.5439C20.1597 99.1637 19.8555 98.9355 19.3993 98.9355C19.019 98.9355 18.6388 99.2397 18.6388 99.5439C18.6388 99.9241 19.019 100.152 19.3993 100.152Z" fill="#F6C37D"/>
<path d="M13.4677 99.5433C13.4677 100.076 14 100.532 14.6083 100.532C15.2167 100.532 15.749 100.076 15.749 99.5433C15.749 99.011 15.2167 98.5547 14.6083 98.5547C14 98.5547 13.4677 99.011 13.4677 99.5433Z" fill="#F6C37D"/>
<path d="M36.9658 99.5439C36.9658 99.9241 37.27 100.152 37.7263 100.152C38.1065 100.152 38.4867 99.8481 38.4867 99.5439C38.4867 99.1637 38.1826 98.9356 37.7263 98.9356C37.346 98.8595 36.9658 99.1637 36.9658 99.5439Z" fill="#F6C37D"/>
<path d="M32.5552 99.5439C32.5552 99.9241 32.8594 100.152 33.3156 100.152C33.6959 100.152 34.0761 99.8481 34.0761 99.5439C34.0761 99.1637 33.7719 98.9356 33.3156 98.9356C32.8594 98.8595 32.5552 99.1637 32.5552 99.5439Z" fill="#F6C37D"/>
<path d="M27.384 99.5433C27.384 100.076 27.9164 100.532 28.5247 100.532C29.1331 100.532 29.6654 100.076 29.6654 99.5433C29.6654 99.011 29.1331 98.5547 28.5247 98.5547C27.9164 98.5547 27.384 99.011 27.384 99.5433Z" fill="#F6C37D"/>
<path d="M22.8214 85.7796C22.5172 85.6275 22.1369 85.6275 21.9849 85.9317C21.8328 86.1598 21.9088 86.54 22.213 86.7682C22.5172 86.9203 22.8974 86.9203 23.0495 86.6161C23.2776 86.3119 23.1255 85.9317 22.8214 85.7796Z" fill="#F6C37D"/>
<path d="M24.7985 83.7255C24.9506 83.4973 24.8746 83.1171 24.5704 82.889C24.2662 82.7369 23.886 82.7369 23.7339 83.0411C23.5818 83.2692 23.6578 83.6494 23.962 83.8776C24.2662 84.0296 24.6464 83.9536 24.7985 83.7255Z" fill="#F6C37D"/>
<path d="M25.3308 79.7728C25.1026 80.153 25.2547 80.6853 25.711 80.9895C26.1673 81.2937 26.6996 81.1416 27.0038 80.7614C27.2319 80.3811 27.0798 79.8488 26.6235 79.5446C26.1673 79.2404 25.5589 79.3925 25.3308 79.7728Z" fill="#F6C37D"/>
<path d="M16.5856 94.9058C16.4335 95.134 16.5095 95.5142 16.8137 95.7423C17.1179 95.8944 17.4981 95.8944 17.6502 95.5902C17.8023 95.3621 17.7263 94.9819 17.4221 94.7537C17.1179 94.5256 16.7377 94.6017 16.5856 94.9058Z" fill="#F6C37D"/>
<path d="M19.3992 92.7001C19.5513 92.4719 19.4753 92.0917 19.1711 91.8636C18.8669 91.7115 18.4867 91.7115 18.3346 92.0157C18.1825 92.2438 18.2585 92.624 18.5627 92.8522C18.8669 93.0043 19.2471 92.9282 19.3992 92.7001Z" fill="#F6C37D"/>
<path d="M21.5285 89.734C21.7567 89.3538 21.6046 88.8215 21.1483 88.5173C20.692 88.2131 20.1597 88.3652 19.8555 88.7454C19.6274 89.1256 19.7795 89.658 20.2358 89.9621C20.7681 90.2663 21.3004 90.1142 21.5285 89.734Z" fill="#F6C37D"/>
<path d="M81.8327 98.8594C81.4525 98.8594 81.0723 99.1636 81.0723 99.4677C81.0723 99.848 81.3764 100.076 81.8327 100.076C82.2129 100.076 82.5932 99.7719 82.5932 99.4677C82.5171 99.1636 82.2129 98.8594 81.8327 98.8594Z" fill="#F6C37D"/>
<path d="M86.2434 100.152C86.6236 100.152 87.0038 99.8481 87.0038 99.5439C87.0038 99.1637 86.6996 98.9355 86.2434 98.9355C85.8631 98.9355 85.4829 99.2397 85.4829 99.5439C85.4829 99.9241 85.8631 100.152 86.2434 100.152Z" fill="#F6C37D"/>
<path d="M92.1749 99.5433C92.1749 99.011 91.6426 98.5547 91.0342 98.5547C90.4259 98.5547 89.8936 99.011 89.8936 99.5433C89.8936 100.076 90.4259 100.532 91.0342 100.532C91.6426 100.532 92.1749 100.076 92.1749 99.5433Z" fill="#F6C37D"/>
<path d="M67.1559 99.5439C67.1559 99.9241 67.4601 100.152 67.9163 100.152C68.2966 100.152 68.6768 99.8481 68.6768 99.5439C68.6768 99.1637 68.3726 98.9356 67.9163 98.9356C67.5361 98.8595 67.1559 99.1637 67.1559 99.5439Z" fill="#F6C37D"/>
<path d="M71.6426 99.5439C71.6426 99.9241 71.9468 100.152 72.403 100.152C72.7833 100.152 73.1635 99.8481 73.1635 99.5439C73.1635 99.1637 72.8593 98.9356 72.403 98.9356C71.9468 98.8595 71.6426 99.1637 71.6426 99.5439Z" fill="#F6C37D"/>
<path d="M76.0532 99.5433C76.0532 100.076 76.5855 100.532 77.1939 100.532C77.8023 100.532 78.3346 100.076 78.3346 99.5433C78.3346 99.011 77.8023 98.5547 77.1939 98.5547C76.5855 98.5547 76.0532 99.011 76.0532 99.5433Z" fill="#F6C37D"/>
<path d="M83.4297 86.6927C83.7339 86.5406 83.886 86.1604 83.6579 85.8562C83.5058 85.6281 83.1256 85.552 82.8214 85.7041C82.5172 85.8562 82.3651 86.2364 82.5932 86.5406C82.7453 86.8448 83.1256 86.9209 83.4297 86.6927Z" fill="#F6C37D"/>
<path d="M88.8289 95.6654C89.1331 95.5133 89.2852 95.1331 89.0571 94.8289C88.905 94.6007 88.5247 94.5247 88.2206 94.6768C87.9164 94.8289 87.7643 95.2091 87.9924 95.5133C88.1445 95.8175 88.5247 95.8935 88.8289 95.6654Z" fill="#F6C37D"/>
<path d="M87.308 92.0144C87.1559 91.7863 86.7757 91.7102 86.4715 91.8623C86.1673 92.0144 86.0153 92.3946 86.2434 92.6988C86.3955 92.927 86.7757 93.003 87.0799 92.8509C87.3841 92.6228 87.5362 92.3186 87.308 92.0144Z" fill="#F6C37D"/>
<path d="M85.711 88.7454C85.4829 88.3652 84.8745 88.2131 84.4183 88.5173C83.962 88.8215 83.8099 89.3538 84.038 89.734C84.2662 90.1142 84.8745 90.2663 85.3308 89.9621C85.7871 89.658 86.0152 89.1256 85.711 88.7454Z" fill="#F6C37D"/>
<path d="M57.346 39.4676C57.346 39.0874 57.1179 38.7832 56.8137 38.7832C56.4335 38.7832 56.2053 39.0113 56.1293 39.3916C56.1293 39.7718 56.3574 40.076 56.6616 40.076C56.9658 40.076 57.27 39.8478 57.346 39.4676Z" fill="#F6C37D"/>
<path d="M52.4031 39.1631C52.4031 39.5433 52.7073 39.7714 53.0114 39.8475C53.3156 39.8475 53.6198 39.6193 53.6198 39.2391C53.6198 38.8589 53.3917 38.5547 53.0114 38.5547C52.7073 38.5547 52.4031 38.8589 52.4031 39.1631Z" fill="#F6C37D"/>
<path d="M49.133 40.2273C49.6654 40.2273 50.0456 39.771 49.9695 39.2387C49.9695 38.7064 49.5133 38.3262 48.981 38.3262C48.4486 38.3262 48.0684 38.8585 48.1445 39.3908C48.1445 39.8471 48.6007 40.3034 49.133 40.2273Z" fill="#F6C37D"/>
<path d="M68.6007 41.9766C68.7528 41.6724 68.5247 41.2922 68.2205 41.1401C67.9163 41.0641 67.5361 41.2162 67.4601 41.5964C67.384 41.9006 67.5361 42.2808 67.8403 42.3568C68.1445 42.4329 68.4486 42.2808 68.6007 41.9766Z" fill="#F6C37D"/>
<path d="M64.2662 41.3682C64.5704 41.4442 64.9506 41.2161 65.0267 40.9119C65.1027 40.5317 64.9506 40.2275 64.5704 40.1515C64.2662 40.0754 63.886 40.3035 63.8099 40.6077C63.8099 40.9119 63.962 41.2921 64.2662 41.3682Z" fill="#F6C37D"/>
<path d="M60.692 38.9355C60.1597 38.8594 59.7035 39.2397 59.6274 39.772C59.5514 40.3043 59.8555 40.7606 60.3879 40.8366C60.8441 40.9127 61.3764 40.6085 61.4525 40.0762C61.5285 39.5438 61.2244 39.0115 60.692 38.9355Z" fill="#F6C37D"/>
<path d="M78.943 47.0726C79.1711 46.7684 79.0951 46.3882 78.7909 46.16C78.4867 46.0079 78.1065 46.084 77.9544 46.3882C77.8023 46.6924 77.8783 47.0726 78.1065 47.3007C78.3346 47.4528 78.7148 47.3007 78.943 47.0726Z" fill="#F6C37D"/>
<path d="M75.7491 45.0954C75.9012 44.7912 75.8251 44.411 75.5209 44.2589C75.2168 44.1068 74.8365 44.2589 74.6844 44.5631C74.5324 44.8673 74.6084 45.2475 74.9126 45.3996C75.2168 45.5517 75.597 45.4756 75.7491 45.0954Z" fill="#F6C37D"/>
<path d="M72.4791 43.4973C72.7072 43.041 72.4791 42.4327 72.0228 42.2045C71.5665 41.9764 70.9581 42.2806 70.8061 42.7369C70.5779 43.2692 70.8061 43.8015 71.2623 43.9536C71.7186 44.1817 72.2509 43.9536 72.4791 43.4973Z" fill="#F6C37D"/>
<path d="M87.6882 54.5251C87.9164 54.2969 87.9924 53.9167 87.7643 53.6125C87.5361 53.3844 87.1559 53.3844 86.8517 53.6125C86.6236 53.8406 86.5476 54.2969 86.7757 54.5251C87.0799 54.7532 87.4601 54.7532 87.6882 54.5251Z" fill="#F6C37D"/>
<path d="M85.1027 51.8623C85.3308 51.6341 85.3308 51.1779 85.1027 50.9497C84.8746 50.7216 84.4183 50.7216 84.1901 51.0258C83.962 51.33 83.962 51.7102 84.1901 51.9383C84.4943 52.1665 84.8746 52.1665 85.1027 51.8623Z" fill="#F6C37D"/>
<path d="M82.2889 49.5064C82.5931 49.1262 82.5931 48.5178 82.1368 48.1376C81.7566 47.8334 81.1482 47.9095 80.8441 48.3657C80.5399 48.822 80.6159 49.3543 80.9962 49.6585C81.3764 49.9627 81.9848 49.8866 82.2889 49.5064Z" fill="#F6C37D"/>
<path d="M53.5437 51.6348C46.0912 51.6348 40.0076 57.7184 40.0076 65.1709C40.0076 72.6234 46.0912 78.707 53.5437 78.707C60.9962 78.707 67.0798 72.6234 67.0798 65.1709C67.0798 57.7184 60.9962 51.6348 53.5437 51.6348ZM53.5437 77.4903C46.7756 77.4903 41.3003 72.015 41.3003 65.2469C41.3003 58.4789 46.7756 53.0036 53.5437 53.0036C60.3118 53.0036 65.787 58.4789 65.787 65.2469C65.787 72.015 60.3118 77.4903 53.5437 77.4903Z" fill="#F6C37D"/>
<path d="M53.5438 60.3809C50.8822 60.3809 48.6769 62.5862 48.6769 65.2478C48.6769 67.9094 50.8822 70.1147 53.5438 70.1147C56.2054 70.1147 58.4107 67.9094 58.4107 65.2478C58.4107 62.5101 56.2054 60.3809 53.5438 60.3809Z" fill="#FEF9DC"/>
</svg>
