<svg width="110" height="120" viewBox="0 0 110 120" fill="none" xmlns="http://www.w3.org/2000/svg">
<path d="M107.055 69.4152L106.666 69.0927L105.803 69.3583C105.328 69.5101 104.74 69.6713 104.494 69.7187C104.001 69.8136 101.61 69.9748 99.8938 70.0222C99.2962 70.0412 98.4995 70.0696 98.1201 70.0886L97.4278 70.1265L97.6838 69.8325C98.0253 69.4342 98.0253 69.254 97.6459 68.7418C97.1812 68.1158 95.2179 66.2569 95.0187 66.2569C94.8006 66.2569 94.516 66.4181 94.2315 66.6837L93.928 66.9682L93.5107 66.5509C92.7709 65.8111 91.1016 63.9047 90.6274 63.2597C90.1436 62.5958 89.2521 61.2395 89.2521 61.1637C89.2521 61.1352 89.3754 61.0024 89.5366 60.8602C89.7168 60.6989 89.8212 60.5377 89.8212 60.4334C89.8212 60.329 89.9065 60.1963 90.0298 60.0919C90.1437 59.9971 90.2575 59.8264 90.2859 59.7031C90.3239 59.5228 90.2954 59.447 90.1152 59.2573C90.0014 59.134 89.897 58.9727 89.9065 58.9158C89.9065 58.7831 88.9296 57.8061 87.6018 56.5921C86.4352 55.5393 82.6224 51.6697 80.9721 49.8771C80.2608 49.0994 78.6958 47.4111 77.5008 46.1212C76.3057 44.8313 74.8641 43.2759 74.3045 42.6594C72.8344 41.0565 71.203 39.2923 70.2072 38.2396C69.1259 37.0919 67.7033 35.546 67.0299 34.7682C66.4608 34.1043 66.1763 33.8008 64.5639 32.0651C62.2402 29.5612 61.0356 28.3567 59.0344 26.4788C57.8773 25.407 57.0047 24.5629 56.9763 24.5155C56.9668 24.4965 57.0996 24.4016 57.2703 24.3258C57.6307 24.155 57.6591 24.0412 57.4125 23.7377C57.3177 23.6239 57.1565 23.3678 57.0616 23.1687C56.6917 22.4099 56.4831 22.2487 55.7622 22.1064C55.3639 22.0305 55.3354 22.0115 55.1552 21.6796C55.0509 21.4899 54.9655 21.3097 54.9655 21.2907C54.9655 21.2623 55.0888 21.1769 55.2406 21.0821C55.3923 20.9967 56.189 20.2379 57.0047 19.4033C60.3338 16.0268 60.9218 15.4482 61.6332 14.8792C63.1412 13.6746 64.6967 12.7262 65.9771 12.252C67.5136 11.6734 67.8076 11.4742 68.0257 10.8577C68.3672 9.92826 69.42 7.9365 70.1123 6.91218C70.7668 5.93527 72.18 3.70641 72.2463 3.51672C72.3317 3.29857 72.123 3.08991 71.3169 2.61569C70.9849 2.426 70.596 2.18888 70.4538 2.10352C70.0459 1.85692 67.7602 1.0128 67.4851 1.0128C67.0393 1.0128 66.8022 1.16455 66.4513 1.69569C65.9866 2.39754 64.3363 4.54104 63.4163 5.64125C62.3635 6.90269 62.4393 6.80785 62.4963 6.64661C63.4257 4.05733 64.2699 1.1361 64.2414 0.614451C64.213 0.168678 64.0897 0.13074 62.1738 0.0453793C61.2728 0.00744118 60.4666 -0.0115273 60.3812 0.00744175C60.182 0.0548644 60.1725 0.235069 60.3812 0.32043C60.6088 0.405791 61.8798 0.548059 62.4868 0.557543H63.0084V0.766204C63.0084 0.880018 62.8946 1.30682 62.7618 1.72414C62.629 2.13197 62.4014 2.84331 62.2591 3.29857C61.6996 5.07218 61.2158 6.47589 60.7606 7.58558C60.2389 8.8565 60.2389 8.87547 60.6847 9.02722C60.9787 9.13155 61.3581 9.09362 61.7185 8.9229C62.4109 8.60042 64.6113 6.17238 66.0909 4.10476C66.9066 2.96661 67.7222 1.85692 67.7602 1.85692C67.7981 1.85692 68.8319 2.25527 69.1354 2.37857L69.3915 2.49239L68.8793 3.24166C68.5948 3.65898 68.1775 4.38929 67.9499 4.89197C67.7222 5.38517 67.4377 5.97321 67.3049 6.20084C67.1721 6.42846 66.7453 7.22517 66.347 7.96496C65.2562 10.0041 64.5259 10.9431 63.7767 11.2845C62.8946 11.6829 60.4381 13.0012 59.6509 13.5039C58.7688 14.0635 57.9911 14.661 57.5833 15.0973C57.2987 15.3913 56.6443 16.2544 56.0088 17.1649C55.1363 18.4074 54.0266 19.7542 53.8653 19.7542C53.8369 19.7542 53.6567 19.5076 53.4765 19.2136C53.2963 18.9196 53.0781 18.5781 52.9928 18.4738C52.9074 18.3695 52.8315 18.2462 52.8315 18.2082C52.8315 18.1703 53.0022 17.9332 53.2109 17.6771C53.4196 17.421 53.8748 16.7951 54.2163 16.2829C54.5672 15.7707 55.0414 15.0973 55.2785 14.7938C55.5156 14.4903 56.1227 13.6177 56.6443 12.859C58.7878 9.71011 59.2336 8.90393 59.9923 6.78888C60.9029 4.26599 61.6142 0.84208 61.2728 0.623936C61.121 0.529091 60.6278 0.538573 60.4855 0.633418C60.4002 0.690325 60.201 1.33527 59.8311 2.7295C58.8542 6.43795 58.1523 8.0598 56.3408 10.7724C55.8855 11.4553 55.3354 12.2899 55.1173 12.6219C54.8991 12.9633 54.368 13.7221 53.9412 14.3196C53.5144 14.9171 52.9169 15.7707 52.6134 16.226C51.9779 17.1839 51.5132 17.753 51.314 17.8004C51.2002 17.8289 50.9536 17.5728 50.0146 16.501C48.6204 14.8981 47.947 14.0635 46.9796 12.7641C46.4105 11.9959 43.9445 9.0462 43.7264 8.87547C43.6979 8.8565 43.4513 8.553 43.1573 8.19259C42.6262 7.53815 41.839 6.35259 41.3552 5.49898C41.0233 4.91094 40.8146 4.78764 40.1507 4.81609C39.7144 4.83506 39.6385 4.86352 39.06 5.2429C38.0831 5.87836 36.4328 7.60455 36.4328 8.0029C36.4328 8.10723 36.5087 8.28743 36.594 8.41073C36.6794 8.53403 36.9639 9.02722 37.22 9.51094C37.6658 10.3551 38.5478 11.7493 39.2687 12.7641C40.1981 14.073 42.8823 17.0986 45.8035 20.1241L46.8847 21.2433L46.5148 21.6322C46.3156 21.8408 46.0501 22.1348 45.9458 22.2771C45.7561 22.5237 45.7466 22.5522 45.8225 22.8557C45.8699 23.0359 46.0121 23.3204 46.1354 23.5006C46.2587 23.6808 46.5338 24.174 46.7519 24.6008L47.1313 25.388L46.5717 26.0519C45.3957 27.4462 43.053 30.5381 41.8579 32.2928C41.3363 33.0515 39.2971 36.2573 38.0546 38.2585C37.5709 39.0363 36.5466 40.6391 35.7878 41.8247C34.3272 44.0915 33.9858 44.6416 30.9128 49.7158C29.8505 51.4705 28.7029 53.3484 28.352 53.8985C28.001 54.4486 27.394 55.416 26.9957 56.042C25.8101 57.9105 23.6002 61.3628 22.519 63.0321C21.9594 63.8857 21.3903 64.8057 21.2481 65.0713C21.1058 65.3369 20.9351 65.6593 20.8687 65.7826L20.7454 66.0103L20.5083 65.7921C20.3091 65.6214 20.2048 65.574 19.9392 65.574C19.5883 65.574 19.4365 65.6593 19.4365 65.8585C19.4365 65.9249 19.3891 65.9818 19.3227 65.9818C19.0856 65.9818 18.7631 66.2 18.6303 66.4466C18.5544 66.5888 18.2509 66.9587 17.9664 67.2622C17.6724 67.5657 17.3025 67.983 17.1412 68.1727C16.9421 68.4099 16.7714 68.5331 16.6196 68.5711C16.2592 68.647 15.9367 68.8366 15.4151 69.2824C15.1495 69.51 14.8839 69.6997 14.846 69.6997C14.7986 69.6997 14.6658 69.5859 14.552 69.4531C14.2959 69.1591 12.5507 66.475 12.3516 66.0577C12.0575 65.4602 11.5264 65.4791 10.1701 66.1051C9.58208 66.3802 9.45878 66.5509 9.46827 67.063C9.47775 67.5088 9.60105 67.9167 9.96146 68.7228C10.2175 69.2824 10.3693 69.7092 10.4641 70.0886L10.5116 70.2783H9.93301C9.62002 70.2783 9.04146 70.2973 8.66208 70.3162C7.89384 70.3637 5.62703 70.2214 4.1759 70.0412C2.17467 69.7946 1.84271 69.7661 1.45384 69.7851C1.18828 69.8041 0.979615 69.861 0.856317 69.9558C0.676111 70.0886 0.666626 70.1265 0.666626 70.6103C0.666626 70.9896 0.723533 71.2931 0.88477 71.7863C1.2357 72.8581 1.54869 74.1385 1.67198 74.9637C1.73838 75.381 1.82374 75.7983 1.88065 75.8837C1.94704 75.988 2.09879 76.0639 2.36436 76.1303C2.73425 76.2156 2.81961 76.2061 3.5025 76.0354C4.35611 75.8268 7.22992 75.362 8.1025 75.3051C9.22167 75.2197 11.7161 74.755 13.1862 74.3472C13.9734 74.129 14.7606 73.9298 14.9503 73.9109C15.1305 73.8919 15.4246 73.854 15.5953 73.835C15.8039 73.8065 15.9083 73.8255 15.9083 73.8729C15.9083 73.9583 15.2538 74.9352 14.7606 75.5991C14.1631 76.4053 13.4043 77.2969 12.5033 78.2832C11.6118 79.2601 9.28806 81.8874 8.54827 82.7505C8.35858 82.9781 7.78951 83.6135 7.28683 84.1637C6.16765 85.4061 5.56064 86.1744 5.47528 86.4779C5.25714 87.2461 6.12971 88.6309 7.50497 89.7026C8.33961 90.3476 8.92765 90.708 9.25961 90.7554C9.6295 90.8123 10.1417 90.708 10.3314 90.5467C10.3978 90.4898 10.8151 89.8733 11.2703 89.181C11.7256 88.4886 12.4749 87.3884 12.9301 86.7529C14.1726 84.9983 15.8134 82.6935 16.3256 81.9538C16.9326 81.0812 17.6344 79.9525 18.3932 78.5962C18.7346 77.9892 19.2468 77.1166 19.5219 76.6614C19.8064 76.2061 20.0909 75.7034 20.1668 75.5517L20.2996 75.2766L20.8212 75.2387C21.5705 75.1818 21.8266 75.0585 22.3957 74.461L22.8889 73.9393L23.3726 74.0626C23.9891 74.2144 24.634 74.2144 26.6827 74.0531C28.2856 73.9298 30.9792 73.816 31.0835 73.8635C31.112 73.8824 31.112 76.889 31.074 80.55L31.0171 87.2082L30.6567 87.3789C30.173 87.6065 30.0023 87.9195 29.9928 88.6024C29.9833 89.2094 30.0971 89.3991 30.6282 89.6931L30.9887 89.8923L30.9507 94.2741L30.9128 98.656L30.6946 98.8362C30.3911 99.0828 30.2014 99.4812 30.2014 99.889C30.2014 100.278 30.3342 100.496 30.7041 100.705L30.9412 100.837L30.9697 101.957C31.1404 108.055 31.1214 109.279 30.8274 109.734C30.5429 110.17 30.1445 111.185 30.0497 111.735C29.9074 112.484 29.8979 114.514 30.0307 115.045C30.3153 116.193 31.5862 116.933 32.5157 116.496C32.933 116.297 33.1416 115.984 33.3218 115.292C33.6443 114.068 33.4357 112.152 32.7812 110.284C32.4967 109.487 32.3734 109.222 32.2406 109.136C32.1647 109.089 32.1268 108.491 32.0604 105.912C32.013 104.167 31.9656 102.345 31.9561 101.862L31.9276 100.98L32.1932 100.913C32.7054 100.781 33.0373 100.392 33.0468 99.908C33.0468 99.595 32.8571 99.3863 32.307 99.1207C31.9845 98.9595 31.9371 98.9216 32.0699 98.9026L32.2311 98.8836L32.0604 98.7319L31.8897 98.5801L31.8517 96.0098C31.8328 94.5966 31.8233 92.6713 31.8328 91.7323L31.8517 90.0251L32.1458 89.9682C32.326 89.9302 32.5252 89.8354 32.6579 89.6931L32.8761 89.475L32.8381 88.8585C32.8002 88.1756 32.7528 88.0807 32.2975 87.7867C32.1553 87.6919 32.0414 87.5781 32.0414 87.5212C32.0414 87.4643 31.975 87.3789 31.8992 87.3315L31.7569 87.2366L31.8707 80.5311L31.9845 73.8255L35.0196 73.9014C36.6889 73.9393 38.1779 74.0057 38.3297 74.0342L38.6047 74.0911L38.6142 74.7171C38.6237 75.0585 38.6616 76.3958 38.7091 77.6762C38.8703 81.8968 38.8988 83.1867 38.8798 85.3682L38.8608 87.5212L38.5763 87.6824C38.3676 87.7962 38.2443 87.9385 38.1305 88.2041C37.7037 89.1335 37.8839 89.8354 38.6522 90.2053L38.8798 90.3191L38.8039 95.915L38.728 101.511L38.4909 102.165C38.3581 102.526 38.14 103.104 38.0072 103.446C37.8744 103.787 37.7132 104.366 37.6468 104.726C37.3907 106.187 37.2864 108.463 37.4286 109.193C37.5519 109.791 37.9029 110.512 38.2443 110.825C38.6806 111.232 39.041 111.318 39.9136 111.242C40.6724 111.176 40.8431 111.081 41.0992 110.597C41.4122 109.999 41.4785 109.535 41.4975 107.79C41.526 105.921 41.4785 105.608 41.0138 103.872C40.5206 102.051 40.1602 101.131 39.9326 101.131C39.8946 101.131 39.8282 101.084 39.7713 101.027C39.686 100.942 39.6765 100.164 39.7049 95.9339C39.7239 93.1834 39.7239 90.8028 39.7049 90.6416L39.667 90.3476L40.0084 90.1768C40.1981 90.082 40.4163 89.9302 40.5016 89.8449C40.7198 89.6172 40.8715 89.143 40.881 88.7352C40.881 88.4317 40.8526 88.3653 40.6534 88.1661C40.5206 88.0428 40.255 87.7867 40.0559 87.597L39.686 87.2556L39.667 84.0783C39.648 81.2329 39.6196 79.5731 39.5058 75.3241L39.4678 74.0531L40.5396 74.1006C41.1276 74.129 41.7251 74.167 41.8579 74.1859C41.9907 74.2049 42.8064 74.2428 43.6695 74.2713C44.5326 74.2997 45.3293 74.3377 45.4526 74.3566L45.6707 74.3946L45.7086 75.7319C45.7276 76.4717 45.7655 78.0841 45.794 79.336C45.8225 80.5785 45.8699 82.447 45.8983 83.4808C45.9268 84.5146 45.9552 86.734 45.9647 88.4222L45.9742 91.4857L45.6328 91.6944C44.855 92.1686 44.3618 92.823 44.1247 93.7051C43.8686 94.663 43.935 95.9909 44.2765 96.6643C44.4282 96.9583 44.9688 97.404 45.3293 97.5368C46.1923 97.8403 47.046 97.7265 47.5202 97.2333C48.1462 96.5884 48.3738 95.8296 48.3928 94.3311C48.4022 93.3541 48.3928 93.2119 48.2505 92.8515C48.1651 92.6333 48.0229 92.3583 47.928 92.254C47.7573 92.0548 47.3684 91.8935 47.027 91.8841C46.8658 91.8841 46.8468 91.8651 46.9227 91.7797C46.9701 91.7228 46.9891 91.6564 46.9701 91.6185C46.9511 91.59 46.8942 90.1863 46.8563 88.4981C46.8088 86.8193 46.7614 85.3682 46.7425 85.2923C46.695 85.0552 46.5622 79.7913 46.5338 76.9649L46.5053 74.4041H48.6014C49.7585 74.4041 51.1243 74.4136 51.6554 74.4136L52.6134 74.423L52.6418 76.4053C52.6608 77.496 52.7272 79.3645 52.7936 80.55C52.8979 82.428 53.0212 86.5917 53.0117 88.0049V88.4696L52.6513 88.8205C51.9589 89.4939 51.8926 89.6647 51.8736 90.5752C51.8641 91.1727 51.94 91.4098 52.234 91.6849C52.6323 92.0643 53.3911 92.1781 53.9412 91.9315C54.3301 91.7608 54.8517 91.2391 55.0319 90.8502C55.1078 90.6795 55.1932 90.357 55.2121 90.1389C55.2501 89.769 55.2311 89.7216 54.9561 89.3043C54.7474 88.9913 54.5672 88.8111 54.3301 88.6688C54.1499 88.5645 53.9791 88.4412 53.9602 88.3937C53.9412 88.3463 53.8843 87.2082 53.8369 85.8519C53.7895 84.5051 53.6756 82.2383 53.5903 80.8156C53.4575 78.6816 53.3247 74.4799 53.3911 74.3851C53.429 74.3282 59.2525 74.11 59.3 74.167C59.4707 74.3377 59.7932 90.9641 59.6414 91.5616C59.613 91.6564 59.4043 91.9599 59.1767 92.2255C58.949 92.4911 58.6835 92.8325 58.5886 92.9843C58.2472 93.5249 58.0575 94.4354 58.1808 94.9286C58.2851 95.3175 58.7973 95.8107 59.2905 96.0003C59.7932 96.19 59.9259 96.19 60.4381 96.0098C61.2633 95.7063 61.4719 95.2605 61.4814 93.7335C61.4909 92.9274 61.4624 92.7282 61.3297 92.3014C61.1589 91.7892 60.8934 91.3624 60.7511 91.3529C60.6847 91.3529 60.6563 90.8218 60.6373 88.868C60.6278 87.5022 60.5899 85.7381 60.5614 84.9509C60.533 84.1637 60.476 82.741 60.4476 81.783C60.3433 78.6531 60.22 75.5991 60.1631 74.8878C60.1346 74.5084 60.1346 74.167 60.1725 74.129C60.2389 74.0626 65.9107 74.1764 66.8876 74.2618L67.4472 74.3092L67.5136 75.9026C67.5515 76.7847 67.561 77.5245 67.542 77.5624C67.523 77.6004 67.4472 77.6288 67.3808 77.6288C67.1721 77.6288 66.7548 77.9608 66.5746 78.2643C66.3375 78.6721 66.2901 78.9377 66.3849 79.4119C66.4513 79.7439 66.5177 79.8671 66.7548 80.1043C66.935 80.2845 67.1626 80.4267 67.3618 80.4836L67.6843 80.5785L67.7222 81.214C67.7602 81.8589 67.855 85.9562 67.855 86.5632C67.855 86.8857 67.8455 86.8952 67.561 86.9711C66.916 87.1608 66.5936 87.7773 66.7548 88.517C66.8686 89.0197 67.0678 89.2758 67.5136 89.4939L67.893 89.6836L67.8645 93.2309C67.836 96.5504 67.8266 96.7876 67.7127 96.8255C66.8307 97.1005 66.4418 97.6222 66.4323 98.5232C66.4228 98.95 66.4513 99.0164 66.641 99.2346C66.7738 99.3863 67.0299 99.557 67.3239 99.6803L67.7981 99.8795L67.8266 102.26C67.8455 103.569 67.836 104.717 67.8171 104.802C67.7886 104.925 67.6653 105.011 67.3713 105.124C67.0868 105.238 66.8307 105.418 66.5082 105.741C65.7874 106.452 65.3796 107.42 65.3701 108.425C65.3606 109.269 65.6925 109.914 66.66 110.891C67.3144 111.555 67.6558 111.754 68.3292 111.887C69.1449 112.039 69.8562 111.839 70.321 111.327C70.8806 110.711 71.1367 110.094 71.2789 108.937C71.3927 108.046 71.2884 107.477 70.8047 106.49C70.4063 105.665 70.0744 105.257 69.6666 105.077C69.5053 105.001 69.3536 104.887 69.3346 104.802C69.3061 104.717 69.2113 104.641 69.088 104.612C68.8319 104.555 68.8414 104.612 68.7655 102.251C68.6802 99.5096 68.6327 99.8226 69.1544 99.5855C69.6476 99.3578 69.8562 99.1682 70.0175 98.7888C70.2546 98.2387 69.8562 97.2902 69.2777 97.0057C69.1164 96.9298 68.9362 96.8634 68.8699 96.854C68.6138 96.854 68.6138 96.7401 68.6612 93.1645L68.7086 89.6647L68.9457 89.6078C69.4958 89.4655 69.9132 88.9438 69.9795 88.2989C70.027 87.8342 69.8657 87.5496 69.4389 87.3315C69.2777 87.2461 69.107 87.1228 69.0595 87.0564C69.0121 86.99 68.8983 86.9142 68.8035 86.8857L68.6327 86.8383L68.6422 85.0836C68.6517 84.1162 68.6327 82.722 68.6138 81.9727C68.5758 80.7966 68.5853 80.6069 68.6707 80.55C68.7276 80.5121 68.8699 80.4173 68.9931 80.3414C69.2777 80.1612 69.5338 79.668 69.5338 79.2791C69.5338 78.9661 69.3631 78.71 69.0216 78.5109C68.8888 78.435 68.8888 78.4255 69.0406 78.3212C69.1259 78.2643 69.2018 78.1599 69.2018 78.0936C69.2018 77.9133 68.9647 77.6857 68.7181 77.6288C68.6043 77.6003 68.5 77.5719 68.5 77.5719C68.4715 77.5245 68.3672 74.423 68.3956 74.3946C68.4146 74.3756 70.2641 74.3851 72.5119 74.4136L76.5903 74.4705L76.6282 75.7414C76.6472 76.4432 76.7136 78.103 76.7799 79.4498C76.8463 80.7872 76.9032 82.7505 76.9127 83.8032C76.9222 84.856 76.9602 86.7529 76.9791 88.0144C77.0076 89.2758 77.0171 90.689 77.0171 91.1537L77.0076 91.9979L76.761 92.0737C76.448 92.1686 76.1255 92.4342 75.9833 92.7092C75.8125 93.0317 75.8315 93.743 76.0117 94.0465C76.1445 94.2741 76.742 94.6535 76.9602 94.6535C77.0929 94.6535 77.1119 94.8053 77.1498 95.9055C77.1688 96.4651 77.2257 97.5273 77.2826 98.2766C77.4154 100.098 77.387 100.42 77.0171 101.065C76.6092 101.795 76.5333 102.118 76.3437 103.816C76.1065 106.016 76.1729 106.851 76.6282 107.524C76.7989 107.78 77.1688 108.027 77.5103 108.112L77.7 108.159L77.6905 108.842C77.6905 109.222 77.6999 110.18 77.7189 110.986L77.7474 112.446L77.4439 112.646C76.6661 113.158 76.3911 114.78 76.8653 116.089C77.1973 117.018 78.0129 117.502 78.8476 117.284C79.4166 117.132 79.7391 116.572 79.8435 115.529C79.9193 114.789 79.8814 114.467 79.6538 113.85C79.5115 113.452 79.4546 113.385 78.6863 112.674L78.4303 112.446L78.4113 110.275L78.3923 108.103L78.6674 107.922C79.0183 107.695 79.521 107.021 79.7107 106.547C80.09 105.561 80.2039 103.977 79.9573 102.99C79.7486 102.146 79.4356 101.52 78.9519 100.961C78.7148 100.695 78.4492 100.382 78.3544 100.278C78.1647 100.05 78.1457 99.8605 78.0604 97.0911C78.0319 96.0762 77.994 95.1372 77.9655 94.995C77.9276 94.7484 77.9371 94.7389 78.3164 94.5587C78.8096 94.3216 79.0183 94.0181 79.0278 93.5059C79.0373 93.2024 78.9993 93.1076 78.8381 92.9368C78.7338 92.823 78.5915 92.6238 78.5251 92.4911C78.4492 92.3393 78.307 92.2065 78.1268 92.1212L77.8422 91.9884L77.8043 91.0399C77.7853 90.5183 77.7379 88.8395 77.6905 87.3125C77.6146 84.5146 77.5482 83.0065 77.4344 81.47C77.2352 78.6342 77.055 74.5463 77.1214 74.4799C77.1404 74.461 77.6715 74.4325 78.3164 74.4041C79.9952 74.3472 81.4274 74.2523 83.1915 74.0721C84.0451 73.9867 84.8418 73.9204 84.9746 73.9204H85.2022L85.3065 76.0639C85.3634 77.2399 85.4583 79.0515 85.5247 80.0853C85.648 82.077 85.6764 82.8453 85.8946 88.9913C86.0463 93.2214 86.1032 94.5871 86.236 96.9298C86.4542 100.629 86.5111 102.26 86.53 104.935L86.549 107.79L86.3024 107.932C85.9705 108.122 85.8377 108.33 85.7428 108.842C85.629 109.44 85.7333 109.772 86.1317 110.056C86.4637 110.294 86.4826 110.341 86.3593 110.644C86.2076 111.024 85.4204 113.689 85.3445 114.068C85.2781 114.419 85.2876 114.495 85.4867 115.007C85.9041 116.06 86.881 119 87.0137 119.598C87.0422 119.702 87.1276 119.835 87.2034 119.892C87.5354 120.129 88.1519 119.949 88.1519 119.617C88.1519 119.465 88.3511 118.536 88.8727 116.212C88.996 115.681 89.1383 115.102 89.2047 114.931C89.3375 114.562 89.309 114.362 89.0055 113.499C88.8822 113.158 88.6071 112.323 88.3985 111.65C88.1803 110.976 88.0001 110.398 87.9907 110.36C87.9812 110.322 88.095 110.218 88.2467 110.123C88.702 109.848 88.9107 109.497 88.9391 108.918C88.9865 108.093 88.6641 107.714 87.8389 107.628L87.507 107.59L87.5164 105.95C87.5354 103.55 87.3837 99.595 87.1465 96.1616C86.8146 91.4003 86.7008 88.7447 86.5964 83.9455C86.568 82.6651 86.5206 80.9389 86.4921 80.1138C86.3973 77.4202 86.3024 74.5179 86.3024 74.167V73.816L86.9284 73.7402C87.2698 73.6927 87.9338 73.6169 88.389 73.5599C88.8443 73.503 89.3564 73.4272 89.5177 73.3892L89.8117 73.3228L90.3428 73.8729C91.7086 75.3051 92.0785 75.656 92.2208 75.694C92.4294 75.7509 92.9131 75.5232 93.302 75.1818L93.6245 74.8973L93.5865 75.2103C93.5581 75.4663 93.5676 75.5232 93.6624 75.5232C93.7193 75.5232 93.7952 75.4948 93.8142 75.4568C93.909 75.3146 93.9944 75.4094 94.3358 75.9975C94.5255 76.3294 94.9523 77.0313 95.2748 77.5529C96.8682 80.1232 97.4467 81.176 98.0253 82.5702C98.2529 83.1109 98.5375 83.7937 98.6702 84.0878C98.803 84.3723 98.9643 84.7707 99.0307 84.9604C99.0971 85.15 99.2014 85.3777 99.2678 85.463C99.429 85.6812 99.9317 85.7096 100.548 85.5484C100.814 85.4725 101.354 85.3302 101.753 85.2354C102.521 85.0362 103.024 84.7138 103.033 84.4387C103.033 84.249 102.834 83.8601 102.198 82.8168C101.895 82.3237 101.667 81.9063 101.686 81.8874C101.705 81.8684 101.952 82.0201 102.236 82.2193C103.365 83.0255 103.422 83.054 103.659 83.054C104.02 83.054 104.266 82.9307 105.509 82.096C106.817 81.214 107.443 80.7113 107.51 80.4742C107.529 80.3888 107.5 80.2276 107.443 80.1138C107.311 79.8577 106.362 78.9377 105.357 78.0936C103.725 76.7373 100.558 73.9773 100.178 73.6074C100.036 73.4651 100.055 73.4651 103.1 73.541C104.788 73.5789 106.96 73.6358 107.937 73.6643C109.046 73.7022 109.748 73.6927 109.805 73.6548C109.862 73.6169 109.919 73.4272 109.938 73.1995C109.966 72.8581 109.947 72.7727 109.748 72.4123C109.198 71.5587 107.994 70.1835 107.055 69.4152ZM2.96188 73.6358C2.77219 73.0383 2.19363 70.9802 2.1557 70.7999L2.11776 70.5628L2.47817 70.6103C4.6691 70.9043 5.4658 70.9707 7.19198 70.9991C10.0373 71.0465 11.3557 70.9422 11.6402 70.6482C11.7825 70.4964 11.7825 70.4775 11.6971 70.0791C11.6402 69.8515 11.46 69.2445 11.2988 68.7228C10.7771 67.1389 10.7487 66.6647 11.1755 66.475L11.4126 66.3707L12.3516 67.8028C13.3285 69.3014 13.632 69.6903 14.0588 70.0033C14.3054 70.1835 14.3054 70.2024 14.1916 70.3257C13.5656 70.9991 13.594 71.2078 14.3623 71.7105C14.5235 71.8148 14.6373 71.9286 14.5994 71.9571C14.533 72.014 11.9437 72.3364 10.8909 72.4123C10.1701 72.4692 9.6295 72.5356 7.09714 72.9055C5.97796 73.0668 4.03363 73.4556 3.60683 73.5979C3.12312 73.7402 2.99982 73.7496 2.96188 73.6358ZM15.0262 72.4408C14.6089 72.4408 13.6509 72.6779 11.9722 73.2185C10.4736 73.6927 8.93713 74.0437 7.37219 74.2523C6.85054 74.3282 5.86415 74.4989 5.19074 74.6507C4.51734 74.7929 3.806 74.9637 3.61631 75.0111C3.42662 75.068 3.27487 75.0964 3.27487 75.0775C3.27487 75.0585 3.22745 74.8024 3.17054 74.5179C3.05673 73.9583 3.08518 73.8729 3.36972 73.8729C3.43611 73.8729 3.72064 73.816 3.99569 73.7402C5.02951 73.4651 9.49672 72.8296 11.4316 72.6969C11.9058 72.6589 12.9396 72.5451 13.7173 72.4313C14.4951 72.3175 15.178 72.2511 15.2349 72.2701C15.434 72.3364 15.3202 72.4408 15.0262 72.4408ZM78.6768 115.87C78.6389 116.07 78.5441 116.354 78.4777 116.506L78.3544 116.79L78.2026 116.629C77.7284 116.117 77.5956 114.4 77.9655 113.537L78.0698 113.281L78.1931 113.452C78.6863 114.068 78.8571 114.96 78.6768 115.87ZM77.6146 102.051C77.7853 101.558 78.0319 101.169 78.1362 101.198C78.2595 101.236 78.6294 102.042 78.8665 102.782C79.208 103.825 79.1795 105.115 78.7907 106.367C78.6484 106.813 78.288 107.344 78.0129 107.515C77.7379 107.685 77.662 107.676 77.5387 107.477C77.2637 107.04 77.1973 106.651 77.2067 105.57C77.2447 104.261 77.4249 102.573 77.6146 102.051ZM87.1276 111.526C87.156 111.545 87.2793 111.83 87.4026 112.171C87.5259 112.513 87.7535 113.129 87.9148 113.556C88.076 113.983 88.2183 114.438 88.2467 114.581C88.2752 114.77 88.1898 115.254 87.9243 116.383C87.7251 117.236 87.5449 117.966 87.5354 118.004C87.5259 118.042 87.4311 117.796 87.3267 117.445C87.2224 117.103 86.9758 116.278 86.7766 115.624C86.568 114.931 86.4067 114.296 86.4067 114.125C86.4162 113.651 87.0232 111.46 87.1276 111.526ZM96.5457 69.6144C96.6216 69.7092 96.688 69.8325 96.688 69.8989C96.688 69.9653 96.6405 70.0602 96.5836 70.1076C96.4983 70.1835 96.4793 70.155 96.4793 69.9463C96.4793 69.8136 96.4603 69.6428 96.4414 69.5764C96.4129 69.4721 96.4414 69.4816 96.5457 69.6144ZM95.9102 70.2214C95.9482 69.4721 96.0904 69.1876 96.1663 69.7187C96.2137 70.0602 96.1568 70.5439 96.0525 70.743C95.9102 70.9991 95.8723 70.8474 95.9102 70.2214ZM83.7037 54.847C83.7226 54.828 84.2917 55.3402 84.9651 55.9851C85.6385 56.6301 86.4921 57.3983 86.8525 57.6923C87.2129 57.9864 87.782 58.4985 88.114 58.821C88.683 59.3806 88.721 59.4375 88.7115 59.7031V59.9876L88.4459 59.9591C88.2847 59.9402 88.0855 59.9781 87.9622 60.0445C87.8484 60.1014 87.7346 60.1488 87.7251 60.1488C87.7156 60.1488 87.4121 59.9402 87.0517 59.6936C85.8187 58.84 84.8608 57.7967 84.3296 56.7249C84.121 56.3076 83.6562 54.8944 83.7037 54.847ZM69.8278 40.0796C69.8847 40.0416 69.9511 40.0132 69.9701 40.0132C70.0175 40.0132 71.7911 41.9575 72.7964 43.1051C76.5144 47.3732 77.3775 48.3216 80.9437 51.9827L83.1441 54.24L83.2958 55.0177C83.4571 55.8334 83.6373 56.4119 83.9218 57C84.4624 58.1191 85.5626 59.2952 86.7197 59.9876C87.3552 60.367 87.4311 60.4239 87.3931 60.5756C87.3552 60.7748 87.6492 61.3344 88.3321 62.3872C89.3469 63.9332 90.1437 64.9006 91.9647 66.788C92.6191 67.4709 93.008 67.9261 92.989 67.983C92.97 68.04 92.695 68.4099 92.3725 68.8177C92.0595 69.2255 91.7655 69.5575 91.7371 69.5575C91.6991 69.5575 91.6043 69.4247 91.5189 69.2635C91.4335 69.1022 91.0542 68.4952 90.6748 67.9167C90.2954 67.3381 89.8686 66.6552 89.7168 66.4086C89.1952 65.5266 87.2319 62.52 86.8335 61.9888C86.5016 61.5525 86.3878 61.4482 86.255 61.4577C86.1127 61.4672 85.9989 61.3439 85.5152 60.6325C84.7659 59.5323 84.3486 59.0391 84.2063 59.0866C84.1494 59.1055 84.0261 59.0581 83.9408 58.9727C83.789 58.8305 83.7606 58.821 83.495 58.9064C83.3338 58.9538 83.0966 59.0866 82.9733 59.2099L82.7362 59.428L82.8026 60.1204C82.8406 60.4998 82.9354 61.0119 83.0113 61.2585C83.0872 61.5051 83.1346 61.7138 83.1156 61.7422C83.0966 61.7612 83.0018 61.7327 82.907 61.6663C82.7362 61.5525 82.4138 60.8507 81.7688 59.2288C81.5791 58.7546 81.2566 58.1191 81.0006 57.7113L80.5548 57.0094L80.6496 56.7439C80.8298 56.2507 80.7824 55.2074 80.5263 54.0408C80.2608 52.8363 78.895 50.4462 77.5292 48.7769C77.2067 48.388 76.2109 47.2404 75.3098 46.2255C74.4088 45.2107 73.4224 44.082 73.1094 43.7121C72.7964 43.3422 71.9144 42.3843 71.1461 41.5876C70.0554 40.4779 69.7519 40.127 69.8278 40.0796ZM91.5094 69.9179C91.4335 70.0317 91.3387 70.0033 91.2533 69.8325C91.2059 69.7472 91.0067 69.4721 90.8076 69.216C90.0867 68.3055 89.3469 67.2243 88.3795 65.6688C87.8389 64.7962 87.2034 63.7909 86.9758 63.4494L86.5585 62.8235L86.881 63.108C87.0612 63.2692 87.3173 63.5822 87.469 63.8099C88.1709 64.8911 88.8443 65.9723 89.29 66.7026C89.954 67.8123 90.8645 69.1212 91.2344 69.5101C91.4146 69.6903 91.5379 69.8705 91.5094 69.9179ZM73.0525 44.3286C73.1853 44.4899 74.0769 45.5237 75.0443 46.6429C76.0117 47.762 77.0076 48.9381 77.2731 49.2701C77.9655 50.1426 78.8571 51.5464 79.3882 52.5897C79.9098 53.614 80.0711 54.202 80.1944 55.454C80.3082 56.6395 80.2892 56.668 79.8245 56.042C79.6063 55.7575 79.1985 55.2169 78.914 54.8375C78.4682 54.2589 78.4113 54.1451 78.4967 54.0787C78.5536 54.0313 78.601 53.9649 78.601 53.927C78.601 53.8132 77.994 52.1154 77.8422 51.8119C77.681 51.4895 77.6525 51.4515 76.7515 50.228C75.2719 48.2173 73.2707 45.7513 71.5255 43.7785C70.8616 43.0293 70.0554 42.1093 69.7329 41.7488C67.3523 39.0173 65.5313 37.5851 64.4121 37.5567L64.0327 37.5472L63.3973 36.8548C63.0464 36.4754 62.7523 36.134 62.7523 36.115C62.7429 35.9633 64.7346 36.4754 65.3321 36.779C65.7779 37.0066 66.6979 37.5946 66.6979 37.661C66.6979 37.68 66.6694 37.68 66.6315 37.661C66.5367 37.6041 66.2806 37.68 66.2806 37.7653C66.2806 37.8033 66.3185 37.8317 66.3565 37.8317C66.5746 37.8317 68.168 39.1785 69.3441 40.3546C70.5012 41.5022 72.3412 43.4845 73.0525 44.3286ZM78.1552 53.7942C78.1173 53.7942 76.3152 51.6222 74.8736 49.8391C73.0051 47.5154 72.3886 46.7851 70.9185 45.1348C70.2356 44.3666 69.3536 43.3612 68.9552 42.8965C67.7317 41.4643 66.9729 40.6297 65.6925 39.3018C65.0097 38.6 64.4785 38.0025 64.4975 37.974C64.5544 37.9171 65.3226 38.3344 65.9012 38.7422C66.8117 39.3777 67.7127 40.3072 70.1313 43.0482C70.6055 43.5888 71.0039 44.0441 71.0228 44.0631C71.4402 44.4709 73.3465 46.7662 74.6744 48.4449C76.9507 51.3282 77.3585 51.9257 77.994 53.4148C78.1078 53.6235 78.1742 53.7942 78.1552 53.7942ZM67.4756 37.5567C67.4567 37.5567 67.1532 37.3575 66.8022 37.1109C66.4513 36.8643 65.9676 36.5703 65.7305 36.447C65.095 36.134 63.881 35.8495 63.1127 35.8305L62.4678 35.8115L62.1169 35.4227C61.9272 35.214 61.2633 34.5027 60.6563 33.8387C60.0398 33.1843 59.1008 32.141 58.5507 31.5245C57.2134 30.0165 56.3693 29.1155 54.7284 27.4746C53.9697 26.7159 53.3627 26.0804 53.3816 26.0614C53.467 25.9856 54.4344 25.5303 54.5198 25.5303C54.5767 25.5303 55.0035 25.9381 55.4777 26.4218C59.3094 30.3864 59.4422 30.5097 61.3581 32.0651C62.3824 32.8998 63.3973 33.7155 63.6059 33.8862C64.1181 34.3035 65.8727 35.9253 66.7738 36.8169C67.1911 37.2342 67.4946 37.5567 67.4756 37.5567ZM65.1519 34.5596C65.2278 34.6639 65.2847 34.7493 65.2657 34.7493C65.2562 34.7493 65.0381 34.5596 64.7915 34.3225C64.5449 34.0853 64.0707 33.687 63.7482 33.4309C62.5911 32.5204 60.6088 30.9175 60.0967 30.4717C59.5466 29.988 54.994 25.407 54.994 25.3311C54.994 25.2837 55.8571 24.9328 55.9804 24.9328C56.1511 24.9328 64.6398 33.8577 65.1519 34.5596ZM54.4344 19.7068C55.1363 18.967 55.7148 18.3031 55.9614 17.9522C56.8814 16.6338 57.6971 15.5905 58.1144 15.2111C58.8732 14.5093 60.5045 13.4565 62.0979 12.6219C62.6385 12.3373 63.4542 11.92 63.9189 11.6734C64.8958 11.1612 64.8674 11.1897 65.3321 10.6491C65.7779 10.1369 66.347 9.27382 66.8402 8.36331C67.0488 7.98393 67.4472 7.28207 67.7222 6.79836C68.0068 6.32413 68.443 5.50846 68.7086 4.9963C69.2967 3.84867 69.8562 2.91919 69.9701 2.91919C70.0175 2.91919 70.1882 3.01404 70.3494 3.11837L70.6435 3.31754L69.8468 4.45568C69.4105 5.08166 68.794 5.95424 68.481 6.39053C67.5231 7.71836 66.8117 9.05568 66.3754 10.3361C66.2616 10.6586 66.1099 10.981 66.015 11.0664C65.9296 11.1423 65.5503 11.332 65.1709 11.4837C64.0991 11.9105 63.3688 12.2709 62.4204 12.8495C60.1156 14.2437 59.281 14.9645 55.62 18.7204C54.8328 19.5266 54.1688 20.181 54.1309 20.181C54.0076 20.181 54.074 20.0862 54.4344 19.7068ZM54.9086 23.3583C55.1268 23.2256 55.326 23.1117 55.3639 23.1117C55.4398 23.1117 55.8476 23.6998 55.8476 23.8041C55.8476 23.88 55.7812 23.9179 54.3301 24.4965C53.0497 25.0087 51.2002 25.9097 50.5552 26.346C50.2707 26.5357 50.0336 26.6874 50.0146 26.6874C49.9956 26.6874 49.9862 26.6305 49.9862 26.5641C49.9862 26.4788 50.3086 26.2037 50.8777 25.7864C52.0633 24.9138 52.0253 24.9423 53.3532 24.2309C53.9886 23.88 54.6905 23.4911 54.9086 23.3583ZM49.7965 24.9233C49.6921 25.0087 49.5878 25.075 49.5594 25.075C49.5309 25.075 49.5119 24.8474 49.5119 24.5629C49.5214 24.0223 49.5594 23.9464 49.9293 23.7567L50.1 23.6713L50.0431 24.2214C49.9862 24.7051 49.9577 24.7905 49.7965 24.9233ZM50.3371 24.3447C50.3371 24.2404 50.3655 23.9843 50.3845 23.7852C50.4225 23.4722 50.4604 23.3963 50.6596 23.2825C50.7829 23.2066 50.8967 23.1497 50.9156 23.1497C50.9346 23.1497 50.9251 23.3868 50.9156 23.6713C50.8872 24.1456 50.8682 24.2025 50.6975 24.3163C50.3561 24.5534 50.3371 24.5534 50.3371 24.3447ZM53.3437 22.059C53.3911 21.8882 53.3911 21.8882 53.5808 22.1633C53.8179 22.5142 53.8084 22.5711 53.5618 22.7513C53.448 22.8272 53.3437 22.8936 53.3152 22.8936C53.2583 22.8841 53.2868 22.2771 53.3437 22.059ZM52.4616 22.2392C52.528 22.1159 52.9264 21.8788 52.9833 21.9357C53.0022 21.9546 52.9928 22.2392 52.9643 22.5711L52.9074 23.1687L52.6418 23.3014C52.4996 23.3773 52.3573 23.4342 52.3383 23.4342C52.2814 23.4342 52.3857 22.372 52.4616 22.2392ZM51.9779 23.4247C51.94 23.586 51.8546 23.6903 51.6365 23.8136C51.4752 23.9084 51.3235 23.9843 51.295 23.9843C51.2381 23.9843 51.2571 23.3299 51.314 23.0454C51.3519 22.8651 51.7977 22.4668 51.9684 22.4573C52.0348 22.4573 52.0348 23.1212 51.9779 23.4247ZM50.8587 20.1621C51.0579 20.0008 51.2476 19.8775 51.2855 19.8775C51.3425 19.8775 51.8356 21.101 51.8262 21.2433C51.8262 21.2812 51.5321 21.4614 51.1812 21.6322C50.8303 21.8124 50.0146 22.2961 49.3697 22.7134C48.7247 23.1307 48.1651 23.4722 48.1272 23.4722C48.0323 23.4722 47.5676 22.7513 47.5676 22.6091C47.5676 22.4573 48.1746 21.9736 49.3981 21.1769C50.0051 20.7691 50.6596 20.3233 50.8587 20.1621ZM49.2274 24.2309V24.6862C49.2274 24.9423 49.2084 25.1414 49.1989 25.1414C49.18 25.1414 49.0756 24.9802 48.9523 24.7905C48.7152 24.4206 48.7247 24.3447 49.0472 24.2689L49.2274 24.2309ZM46.6761 15.2491C46.7709 15.3439 47.2926 15.913 47.8427 16.5105C48.3928 17.108 49.0472 17.8289 49.3128 18.1039L49.787 18.6161L49.6258 18.7868C49.5404 18.8816 49.4266 18.9575 49.3792 18.9575C49.1705 18.9575 47.2356 16.4062 46.7045 15.4198C46.5053 15.0689 46.5053 15.0689 46.6761 15.2491ZM43.7833 12.0623C44.4567 12.6883 44.7886 13.0487 44.9499 13.3332C46.4105 15.9604 47.2451 17.2029 48.4686 18.5971L49.0567 19.261L48.6204 19.6499C48.3833 19.868 48.1367 20.0482 48.0703 20.0482C48.0039 20.0482 47.6625 19.6973 47.302 19.261C46.9416 18.8247 46.3536 18.1229 46.0027 17.6961C45.4051 16.9753 44.4567 15.8656 43.4418 14.699C42.9297 14.1109 41.8579 12.6693 41.3078 11.8157C40.6439 10.8008 39.2687 7.92702 39.3825 7.81321C39.4489 7.7563 40.3783 8.62888 41.6588 9.95671C42.3132 10.6396 43.2616 11.5786 43.7833 12.0623ZM46.4484 19.4697C45.8794 18.8058 45.1206 17.9237 44.7602 17.5254C42.7874 15.306 40.9664 13.0866 40.3878 12.1666C39.1738 10.2697 38.6047 9.20743 38.3012 8.27795L38.1779 7.88908L38.3392 7.65197C38.5478 7.34846 39.648 6.13444 39.7144 6.13444C39.7429 6.13444 39.8662 6.31465 39.9895 6.53279C40.4827 7.43382 40.9379 8.07877 42.0097 9.38764C42.3891 9.85238 42.759 10.3076 42.8348 10.4025C42.9107 10.4973 42.4649 10.0705 41.839 9.45403C40.7482 8.37279 40.2171 7.89857 39.8377 7.64249C39.686 7.53816 39.6385 7.53815 39.4678 7.62352C39.2876 7.71836 39.2781 7.71836 39.3161 7.58558C39.3825 7.3864 39.1833 7.40537 39.0695 7.61403C38.9841 7.76578 39.0031 7.85114 39.1643 8.32537C39.7618 10.0516 41.175 12.6788 42.2563 14.054C42.5503 14.4239 44.2385 16.4346 44.3429 16.5295C44.4282 16.6148 45.3387 17.6866 46.1165 18.6351C46.5812 19.1946 47.1218 19.8301 47.3115 20.0577C47.634 20.4181 47.6625 20.475 47.5676 20.5699C47.4917 20.6742 47.359 20.5414 46.4484 19.4697ZM38.4625 41.3126C38.5289 41.2082 39.0031 40.402 39.5247 39.5105C41.6398 35.9159 44.4851 31.3823 45.5759 29.8647C46.107 29.1249 47.1977 27.5695 47.8237 26.64C47.8427 26.6021 48.0323 26.8012 48.222 27.0763C48.4212 27.3513 48.6583 27.6359 48.7532 27.7023C48.9618 27.873 48.9618 27.8825 48.7152 28.186C48.3643 28.6317 48.0039 29.1534 47.3495 30.1872C46.7614 31.1167 45.2154 33.5068 44.7697 34.1802C44.4662 34.6449 43.034 36.4944 42.5408 37.0825C42.2847 37.386 41.6967 38.0404 41.2414 38.5336C40.0559 39.8045 38.3202 41.5402 38.4625 41.3126ZM34.46 48.6915C34.9911 47.1266 35.0765 46.9274 35.6835 45.8841C36.9734 43.6552 37.1631 43.4181 38.6427 41.967C39.1643 41.4548 40.1792 40.4115 40.9 39.6528C43.8592 36.5229 44.7792 35.2899 47.6909 30.5476C48.848 28.6602 49.2369 28.0816 49.3886 28.0247C49.5499 27.9678 49.5973 28.0627 49.4835 28.2334C49.4266 28.3188 49.1136 28.8404 48.7911 29.3905C48.4592 29.9406 47.9849 30.7089 47.7383 31.0882C47.4822 31.4676 46.8658 32.454 46.3536 33.2697C45.8414 34.0853 45.1775 35.1381 44.8645 35.6029C43.7169 37.3385 43.4039 37.8317 42.3796 39.5105C41.5734 40.8383 41.3078 41.2272 41.194 41.2177C41.0138 41.2177 39.4773 42.7637 38.8798 43.5509C38.3486 44.2433 37.0588 46.6808 36.4328 48.1699C36.1957 48.7389 35.9111 49.4123 35.8068 49.6589C35.6456 50.0383 33.9194 52.6561 32.8571 54.1167C32.4303 54.7047 32.3449 54.8185 32.3449 54.7616C32.3449 54.7332 32.4872 54.3538 32.6579 53.9175C32.8287 53.4812 33.1796 52.5043 33.4451 51.7455C33.6823 50.9963 34.147 49.6115 34.46 48.6915ZM40.5585 42.4412C40.5396 42.4791 40.255 42.9439 39.9231 43.475C39.5911 44.0062 38.8608 45.1443 38.2823 45.9979C37.7132 46.8515 37.2105 47.5818 37.1726 47.6198C37.0398 47.7525 37.3433 47.1266 37.808 46.3014C38.0641 45.8462 38.453 45.1538 38.6711 44.7554C39.06 44.0536 39.5342 43.4181 40.1223 42.7921C40.4163 42.4886 40.6439 42.3084 40.5585 42.4412ZM17.587 71.5113C17.5965 71.5018 17.7862 71.7579 17.9949 72.0804C18.213 72.4028 18.3742 72.6779 18.3648 72.6779C18.3553 72.6779 18.2225 72.5925 18.0707 72.4787C17.8621 72.327 17.7767 72.1942 17.6819 71.9096C17.6155 71.6915 17.5775 71.5208 17.587 71.5113ZM16.8757 70.449C16.9231 70.6577 17.0464 71.0845 17.1507 71.3975C17.2551 71.7105 17.312 71.976 17.2835 71.976C17.2171 71.976 16.9421 71.6346 16.9421 71.5682C16.9421 71.5397 16.8852 71.2268 16.8093 70.8663C16.667 70.155 16.7334 69.8041 16.8757 70.449ZM16.4299 70.9422C16.5627 71.4164 16.5248 71.5397 16.3161 71.3121C16.2118 71.1983 16.1454 71.0465 16.1454 70.8663C16.1359 70.4775 16.3161 70.5249 16.4299 70.9422ZM10.7582 82.6082C10.872 82.4849 11.441 81.8115 12.0006 81.1096C12.5697 80.4078 13.3854 79.4024 13.8217 78.8713C15.8039 76.4717 16.3446 75.7414 17.0749 74.5084C17.3025 74.129 17.4922 73.8065 17.5017 73.7971C17.5206 73.7781 17.6819 73.854 17.8716 73.9867C17.9474 74.0437 17.8621 74.2428 17.4542 75.0111C16.6765 76.4527 16.079 77.2969 14.5804 79.0325C13.5087 80.2845 13.1957 80.5975 12.2757 81.3562C11.8489 81.7072 11.3083 82.1814 11.0617 82.4185C10.6254 82.8548 10.3788 82.997 10.7582 82.6082ZM11.3747 86.2882C11.0427 86.7434 10.4262 87.616 10.0089 88.223C9.59157 88.83 9.22167 89.3422 9.19322 89.3517C8.92765 89.4465 9.37342 88.6214 10.0753 87.7014C10.2365 87.4927 10.5685 87.028 10.8151 86.6676C11.2988 85.9562 12.418 84.5715 12.9111 84.0498C13.2241 83.7179 12.693 84.4861 11.3747 86.2882ZM18.9054 75.0585C18.8105 75.1818 18.5924 75.5422 18.4217 75.8457C18.2509 76.1492 17.625 77.1641 17.0274 78.0936C16.4299 79.023 15.7281 80.1138 15.472 80.5121C15.14 81.0338 14.7701 81.4795 14.1536 82.096C12.4749 83.7937 11.1281 85.3397 10.2081 86.6486C9.89507 87.0849 9.49672 87.6445 9.326 87.8911C9.14579 88.1377 8.93713 88.4696 8.85177 88.6309C8.76641 88.7921 8.69054 88.9249 8.67157 88.9249C8.62414 88.9249 8.23528 88.4507 8.01714 88.1282C7.7326 87.7014 7.39116 86.9711 7.40064 86.7719C7.40064 86.5727 7.52394 86.3451 7.61878 86.3451C7.75157 86.3451 9.15528 85.0173 9.95198 84.1352C11.1945 82.7599 11.5928 82.3711 12.6266 81.5175C13.5561 80.7492 14.1347 80.1612 15.5099 78.5488C16.6291 77.2399 17.1887 76.4243 17.8241 75.1723L18.2889 74.2523L18.6113 74.4799C18.7916 74.6032 18.9623 74.7265 19.0002 74.755C19.0476 74.8024 19.0002 74.9257 18.9054 75.0585ZM21.4757 73.2564C21.2765 73.4461 21.1058 73.5979 21.0773 73.5979C21.0584 73.5979 20.7833 73.247 20.4798 72.8107C19.9107 71.995 19.4934 71.2457 19.0571 70.2783L18.8105 69.7187L19.5883 70.5249C20.0151 70.9707 20.6885 71.6915 21.0963 72.1183L21.8266 72.9055L21.4757 73.2564ZM23.0122 71.5966C22.9268 71.7294 22.7087 71.7863 22.7087 71.682C22.7087 71.6441 22.0542 70.9232 21.2481 70.0791C20.4419 69.235 19.6926 68.4383 19.5883 68.315L19.3891 68.0779L19.7874 67.689C20.1573 67.3286 20.1953 67.3096 20.2711 67.4329C20.5177 67.8408 21.9973 70.0127 22.5 70.6861C22.9553 71.3216 23.0691 71.5018 23.0122 71.5966ZM22.5949 68.5331C22.5759 68.5331 22.4052 68.3435 22.2155 68.0969C22.0353 67.8597 21.7792 67.5373 21.6559 67.395L21.4283 67.1294L21.9025 66.6078C22.168 66.3138 22.6043 65.8395 22.8794 65.5455C23.5528 64.8247 24.4254 63.6012 26.2938 60.7748C27.1569 59.4659 28.4184 57.5785 29.0918 56.5637C30.6188 54.2874 31.2258 53.3484 32.4208 51.3946C32.9425 50.5505 33.3788 49.8676 33.3882 49.8866C33.4357 49.934 32.4872 52.7509 32.032 53.8796C31.7948 54.4676 31.4344 55.416 31.2258 55.9756C30.9697 56.6585 30.7231 57.1897 30.4765 57.569C29.5186 59.0391 27.5458 61.7517 25.0608 65.0239C24.8142 65.3463 24.1693 66.2758 23.6192 67.0725C23.0786 67.8692 22.6138 68.5331 22.5949 68.5331ZM30.3058 72.1847C29.1676 72.2416 27.1759 72.3839 25.5161 72.5356C24.7478 72.602 24.065 72.6779 23.9986 72.6969C23.9322 72.7158 23.8753 72.7063 23.8753 72.6684C23.8753 72.5641 24.0365 72.4408 24.1693 72.4408C24.2357 72.4408 24.3685 72.4028 24.4538 72.3459C24.7194 72.1847 27.1948 71.9191 28.9969 71.8622C31.2827 71.7863 31.1214 71.7769 31.1214 71.976C31.1214 72.1468 31.112 72.1467 30.3058 72.1847ZM24.6056 71.407C24.3495 71.1604 24.1977 70.9043 24.3779 71.0181C24.4159 71.0465 24.9565 71.0371 25.5825 70.9991C26.2085 70.9612 27.6027 70.8948 28.6934 70.8474C29.7841 70.7999 30.7895 70.7525 30.9223 70.743C31.1499 70.7336 31.1689 70.743 31.1878 70.9612C31.1973 71.094 31.1878 71.2647 31.1689 71.3501C31.1309 71.5018 31.093 71.5018 29.7557 71.5397C27.8872 71.5872 26.787 71.6725 25.8386 71.8338C25.4023 71.9096 24.966 71.9855 24.8806 72.0045C24.7004 72.0519 24.6909 72.014 24.8142 71.8148C24.8901 71.701 24.8711 71.6536 24.6056 71.407ZM31.9845 111.299C32.2406 112.124 32.4967 113.613 32.4872 114.23C32.4777 114.713 32.3165 115.444 32.1363 115.795C31.9466 116.155 31.9181 116.164 31.6905 116.003C31.4155 115.804 31.1783 115.349 31.093 114.837C30.9981 114.324 31.0645 112.447 31.1973 111.802C31.2922 111.337 31.6146 110.512 31.7 110.512C31.719 110.512 31.8517 110.863 31.9845 111.299ZM38.6427 71.7769L38.6332 72.3649L38.159 72.3459C37.9029 72.3364 37.3148 72.308 36.8596 72.2701C36.4043 72.2416 35.1429 72.2037 34.0616 72.1847L32.0983 72.1562V71.9855C32.0983 71.8243 32.1173 71.8148 32.4967 71.8148C34.5454 71.8243 35.5223 71.7768 36.4802 71.6156C37.0398 71.5208 37.7227 71.388 38.0167 71.3121C38.3012 71.2362 38.5668 71.1793 38.5952 71.1793C38.6237 71.1888 38.6427 71.4544 38.6427 71.7769ZM38.6616 70.7525C38.5952 70.8569 37.2674 71.1793 36.1008 71.3785C35.4179 71.4923 34.9816 71.5208 33.6917 71.5113L32.1173 71.5018L32.0794 71.1224C32.0604 70.9138 32.0604 70.7241 32.0983 70.6861C32.1742 70.6103 36.2051 70.4585 37.6278 70.468C38.747 70.4964 38.8229 70.5154 38.6616 70.7525ZM41.5354 72.5925C41.4121 72.5736 39.9705 72.4692 39.6575 72.4597L39.4014 72.4503L39.4109 71.7294L39.4204 70.9991L39.8093 70.8948C41.0423 70.5439 41.3932 70.5059 42.3891 70.5723L43.3375 70.6387L42.9866 70.8569C42.4934 71.1698 42.0761 71.6441 41.8295 72.1562C41.7157 72.4028 41.5829 72.602 41.5354 72.5925ZM39.4678 70.5249C39.5152 70.5059 39.5911 70.5059 39.6385 70.5249C39.686 70.5439 39.648 70.5628 39.5532 70.5628C39.4583 70.5534 39.4204 70.5439 39.4678 70.5249ZM45.5948 72.0424L45.5853 72.7822H45.3198C45.1775 72.7822 45.0352 72.7632 45.0068 72.7348C44.8456 72.5736 45.1396 71.7105 45.462 71.4259C45.6043 71.3026 45.6043 71.3026 45.5948 72.0424ZM45.206 71.1035C44.7507 71.5397 44.4187 72.1183 44.4187 72.4692V72.6969L43.7359 72.6779C43.366 72.6684 42.8728 72.6494 42.6546 72.6305C42.2752 72.602 42.2563 72.5925 42.3037 72.4503C42.5029 71.8432 42.9676 71.3026 43.679 70.8569C44.0394 70.6292 44.1247 70.6103 44.5895 70.6197C44.8645 70.6197 45.2154 70.6482 45.3577 70.6672L45.6233 70.7146L45.206 71.1035ZM46.0311 96.9678C45.9078 96.8729 45.9078 96.8634 46.088 96.8634C46.1923 96.8634 46.2777 96.8919 46.2777 96.9298C46.2777 97.0531 46.1639 97.0626 46.0311 96.9678ZM50.0905 72.8865L48.3264 72.8676C46.9701 72.8581 46.5528 72.8296 46.5338 72.7633C46.5148 72.7158 46.4959 72.2416 46.4769 71.72L46.4484 70.762H46.7804C46.9606 70.762 47.5676 70.8189 48.1272 70.8758C48.6868 70.9327 49.6542 71.0086 50.2802 71.0371C51.6839 71.1035 52.1486 71.1509 52.1486 71.2362C52.1486 71.2742 51.9115 71.5492 51.608 71.8527C51.2097 72.2606 50.9441 72.4692 50.5837 72.6399L50.0905 72.8865ZM52.4806 72.915L51.6839 72.9055C51.2476 72.9055 50.8872 72.8865 50.8872 72.8771C50.8872 72.8581 51.0959 72.7348 51.3424 72.5925C51.5985 72.4503 51.94 72.1847 52.1012 72.014L52.4047 71.6915L52.4427 72.0045C52.4616 72.1752 52.4806 72.4503 52.4806 72.621V72.915ZM53.3437 89.2094C53.6377 88.9533 53.6756 88.9723 53.9981 89.4845C54.368 90.082 54.2257 90.8692 53.6567 91.3624C53.2868 91.6849 53.1445 91.7038 52.9453 91.4573C52.7462 91.2012 52.7082 90.8882 52.8126 90.3001C52.9169 89.6836 53.0117 89.4939 53.3437 89.2094ZM58.5886 72.7538C58.2282 72.7538 57.2229 72.7727 56.3408 72.8012C55.4587 72.8296 54.406 72.8581 53.9981 72.8676L53.2583 72.8771L53.2204 72.6684C53.2014 72.5546 53.1635 72.1657 53.1445 71.8148C53.0971 71.075 53.135 71.0465 53.5239 71.388C53.8559 71.682 54.0645 71.7674 55.1457 72.0235C55.7622 72.1657 56.4356 72.2701 57.1849 72.327C58.9775 72.4597 59.1956 72.4977 59.2241 72.6399C59.2336 72.7538 59.1672 72.7632 58.5886 72.7538ZM53.78 71.2173L55.1363 71.1698C55.8855 71.1414 57.0711 71.094 57.7824 71.0465C58.4938 70.9991 59.0818 70.9707 59.0913 70.9802C59.1008 70.9896 59.1292 71.2552 59.1482 71.5682L59.1862 72.1373L58.8447 72.1278C56.6064 72.0424 54.7759 71.7579 54.1309 71.407L53.78 71.2173ZM59.8501 71.1319L59.8406 70.9232L60.6088 70.8853C62.0695 70.8094 65.1519 70.7336 66.1952 70.7336L67.2385 70.743L67.2765 71.2457C67.2954 71.5208 67.3049 71.7579 67.2954 71.7674C67.267 71.7958 64.3078 71.9665 62.3066 72.0614C59.6699 72.1847 59.9544 72.2226 59.907 71.7484C59.8785 71.5208 59.8596 71.2457 59.8501 71.1319ZM67.229 72.8676C67.1721 72.8676 65.5313 72.8486 63.587 72.8202C60.0777 72.7727 59.9354 72.7632 59.9354 72.5546C59.9354 72.5356 60.3338 72.4977 60.827 72.4787C63.6439 72.3744 64.9812 72.308 66.0624 72.2321C66.7264 72.1847 67.2859 72.1562 67.2954 72.1562C67.3049 72.1657 67.3144 72.327 67.3239 72.5166C67.3239 72.7917 67.3049 72.8676 67.229 72.8676ZM68.1206 71.5208C68.1016 71.3975 68.0826 71.1793 68.0826 71.0276V70.762L72.2274 70.7999L76.3626 70.8379V70.9991C76.3626 71.1983 76.2583 71.2173 74.4088 71.3026C73.6975 71.3406 72.6637 71.407 72.1136 71.4544C71.554 71.5018 70.634 71.5777 70.0554 71.6061C69.4769 71.6441 68.8224 71.682 68.5853 71.701L68.1585 71.7389L68.1206 71.5208ZM74.3519 73.1711C72.4076 73.1426 71.4307 73.1047 69.1259 72.9624L68.2059 72.9055V72.4977V72.0898H68.4336C68.775 72.0898 71.3643 71.9191 72.5593 71.8148C73.9725 71.6915 76.2868 71.5777 76.3342 71.6251C76.3531 71.6441 76.3816 72.014 76.4006 72.4313L76.429 73.1995L74.3519 73.1711ZM76.9222 70.9707C76.9222 70.8474 76.9696 70.8284 77.4628 70.8379C77.7569 70.8379 78.2216 70.8284 78.4872 70.8094C78.876 70.7905 78.7812 70.8094 78.0319 70.9422C76.8653 71.1414 76.9222 71.1414 76.9222 70.9707ZM80.1754 73.1616C79.7012 73.19 78.8002 73.209 78.1837 73.209C77.1688 73.1995 77.055 73.19 77.0266 73.0762C77.0076 73.0098 76.9886 72.6305 76.9791 72.2321L76.9602 71.5018L79.0847 71.1793C80.2513 70.9991 81.2661 70.8284 81.323 70.7999C81.3894 70.7715 81.9206 70.7146 82.5086 70.6767C83.0966 70.6387 83.9028 70.5818 84.3107 70.5534C84.709 70.5154 85.0694 70.4964 85.0979 70.4964C85.1263 70.4964 85.1453 70.8094 85.1453 71.1888L85.1358 71.8812L84.8418 71.9571C84.6806 71.995 83.7606 72.2795 82.8026 72.5736C81.1428 73.0762 80.9911 73.1142 80.1754 73.1616ZM85.1358 72.7253C85.1074 72.7538 84.7185 72.8107 84.2822 72.8486C83.8459 72.8865 83.3243 72.934 83.1346 72.9435C82.8406 72.9719 82.9164 72.934 83.6278 72.7063C84.0925 72.5546 84.6142 72.3934 84.7849 72.3364L85.1074 72.2416L85.1453 72.4597C85.1643 72.583 85.1643 72.6969 85.1358 72.7253ZM83.201 69.3298C81.7404 69.3867 78.1742 69.4057 70.947 69.3962C61.0356 69.3773 59.8216 69.3962 58.1429 69.567C57.0616 69.6808 50.8208 69.6239 49.5499 69.4911C45.9552 69.1117 40.8715 68.9125 37.1157 69.0074C32.6484 69.1212 29.3383 69.3014 25.2126 69.6334C24.4823 69.6903 24.1029 69.7567 23.9037 69.8515C23.6002 70.0033 23.5149 69.9463 23.8089 69.7946C24.1219 69.6334 24.6814 68.9694 25.2979 68.04C26.3223 66.494 26.5689 66.1525 27.9536 64.3789C30.5998 60.9835 31.5672 59.6556 34.147 55.8713C35.9775 53.1967 36.7363 52.0396 37.8175 50.2659C38.2348 49.5831 39.0695 48.2552 39.6765 47.3257C40.6724 45.7798 41.2699 44.7839 44.1058 39.9563C44.6179 39.0837 45.519 37.5662 46.0975 36.5987C47.3115 34.5785 49.3033 31.1262 49.6732 30.3959C49.9672 29.8268 50.5078 28.3567 50.5078 28.1101C50.5078 27.9868 50.6596 27.8256 51.0864 27.4841L51.6649 27.0289L51.7123 27.2944C51.7408 27.4462 51.7598 28.0058 51.7503 28.5369C51.7503 29.068 51.7787 29.8078 51.8072 30.1682C51.8451 30.5286 51.9115 31.6763 51.9589 32.7101C52.0064 33.7439 52.0633 34.8346 52.0822 35.1192C52.1391 35.9064 52.2909 37.974 52.3288 38.2965C52.3573 38.581 52.3573 38.5905 52.0253 38.7422C51.7123 38.894 51.6934 38.9225 51.646 39.2354C51.6175 39.4251 51.5321 39.6433 51.4563 39.7192C51.2761 39.9088 51.1338 40.421 51.1907 40.715C51.2666 41.1229 51.9874 41.7868 52.3573 41.7868C52.4142 41.7868 52.4711 41.8152 52.4996 41.8437C52.5185 41.8721 52.5754 42.593 52.6323 43.4466C52.7462 45.3245 52.7462 46.7377 52.6323 46.8515C52.5754 46.9084 52.566 46.9748 52.6229 47.0981C52.6893 47.2499 52.6703 47.2878 52.4332 47.468C51.4468 48.2078 50.6121 49.9719 50.2612 52.0301C50.0905 53.0165 50.0431 55.8144 50.1759 56.5542C50.3276 57.3983 50.8398 58.8969 51.1717 59.4849C51.7882 60.5851 52.3668 61.0024 53.7136 61.3154C53.8748 61.3534 53.8938 61.3818 53.8369 61.4861C53.7895 61.581 53.8179 61.894 53.9317 62.5769C54.0171 63.108 54.074 63.5538 54.0455 63.5633C53.8369 63.6296 53.5144 63.8857 53.4006 64.0754C53.135 64.5022 53.2583 65.0808 53.6851 65.4033C54.1973 65.8016 54.975 65.9154 55.5251 65.6783C55.895 65.5171 56.2459 65.0523 56.2554 64.7299C56.2649 64.1797 55.7053 63.5158 55.2216 63.5158C54.9845 63.5158 54.9466 63.4969 54.9466 63.3546C54.9466 62.814 54.8138 61.7327 54.7379 61.562L54.6431 61.3723L54.994 61.287C55.7053 61.1162 56.208 60.4239 56.7012 58.9538C57.128 57.6923 57.2987 56.4024 57.441 53.5191C57.5169 51.8688 57.2703 50.4936 56.6443 49.1657C56.2934 48.426 56.0183 48.113 55.269 47.6198C54.5198 47.1266 54.4249 47.0791 54.0266 46.9843L53.6756 46.8989L53.6377 46.1022C53.4954 43.1431 53.467 42.555 53.429 42.242L53.3911 41.8911L53.7895 41.7678C54.6525 41.5022 55.1173 40.5633 54.7948 39.7571C54.5862 39.2544 53.8653 38.6664 53.448 38.6569C53.3721 38.6569 53.2963 38.6189 53.2678 38.581C53.173 38.4293 52.9359 34.7113 52.7841 31.202C52.6229 27.4272 52.6039 26.7823 52.6323 26.7443C52.6893 26.6874 54.7853 28.9163 55.5062 29.7983C56.6253 31.1641 58.0954 32.8998 58.8068 33.687C59.1767 34.0948 60.0208 35.0433 60.6942 35.7926C61.3676 36.5418 62.6575 37.9835 63.568 38.9794C67.7697 43.5983 70.9375 47.193 72.5499 49.1847C73.062 49.8202 74.1053 51.0626 74.8641 51.9447C77.9845 55.5773 79.815 57.9579 80.3651 59.0771C80.6781 59.7125 81.029 60.5946 81.2851 61.4198C81.5412 62.2354 81.7783 62.5294 82.2146 62.5958C82.3663 62.6148 82.7457 62.6812 83.0492 62.7286C83.6942 62.8329 83.8839 62.8045 84.1874 62.5579L84.4055 62.3777L84.9841 63.2787C85.3065 63.7719 85.7333 64.4927 85.942 64.8816C86.6913 66.2853 87.3931 67.4329 88.1993 68.5237C88.4554 68.8746 88.6641 69.1876 88.6641 69.2066C88.6641 69.2255 87.9053 69.2445 86.9853 69.235C86.0179 69.2445 84.3391 69.2824 83.201 69.3298ZM53.4196 47.9328C53.5239 47.8569 53.6093 47.7525 53.6187 47.6956C53.6187 47.6387 53.6472 47.6008 53.6756 47.6008C53.7705 47.6008 54.4913 48.0561 54.8233 48.3027C55.2501 48.6346 55.4303 48.9476 55.8286 49.9814C56.3882 51.461 56.5115 52.1629 56.4925 53.9554C56.4831 55.3497 56.3787 56.6111 56.2175 57.5026C55.9899 58.7641 55.3354 60.3195 54.8517 60.7369C54.5482 61.0024 54.2163 61.0214 53.6851 60.8127C52.9738 60.5282 52.4142 59.6841 52.0064 58.3278C51.646 57.0948 51.5701 56.5068 51.589 55.0841C51.6175 53.0734 51.921 51.0816 52.4047 49.7728C52.6513 49.0614 53.1919 48.0845 53.4196 47.9328ZM54.681 64.5307C54.7 64.5496 54.7095 64.616 54.681 64.6635C54.662 64.7204 54.6431 64.7014 54.6431 64.6255C54.6431 64.5496 54.662 64.5117 54.681 64.5307ZM89.7358 72.0519L89.5461 72.308L87.9338 72.4882C87.0517 72.583 86.3024 72.6684 86.2834 72.6684C86.2171 72.6589 86.1601 72.0804 86.217 72.0235C86.2455 71.995 86.5206 71.9286 86.8241 71.8622C87.3931 71.7389 89.9255 71.6536 89.9255 71.7484C89.9255 71.7769 89.8401 71.9096 89.7358 72.0519ZM90.1721 71.4544L89.1952 71.3975C88.4839 71.3595 88.0191 71.369 87.45 71.4449C87.0327 71.5018 86.568 71.5682 86.4352 71.5872L86.1791 71.6251L86.1317 71.056C86.1032 70.743 86.0938 70.4775 86.1127 70.468C86.1222 70.4585 86.8525 70.4206 87.7251 70.3826C88.5977 70.3447 89.3375 70.3068 89.3659 70.2878C89.3944 70.2688 89.5177 70.3447 89.6315 70.4585C89.7453 70.5723 89.9729 70.7525 90.1436 70.8569C90.3049 70.9612 90.4566 71.056 90.4756 71.075C90.4946 71.094 90.4282 71.1793 90.3333 71.2742L90.1721 71.4544ZM90.4851 72.6115C90.4377 72.5641 90.3997 72.4977 90.3997 72.4692C90.3997 72.4313 90.6748 72.0993 91.0162 71.72C91.3577 71.3406 91.6991 70.9422 91.775 70.8474C92.4484 69.9653 92.8278 69.4626 93.2166 68.922C93.4727 68.5711 93.8142 68.1822 93.9944 68.0589C94.1841 67.9167 94.3168 67.7554 94.3358 67.6511C94.3453 67.5562 94.3927 67.4424 94.4307 67.395C94.5255 67.2812 94.8195 67.4424 95.0187 67.7175L95.1704 67.9261L94.829 68.296C94.6393 68.4952 94.3168 68.8651 94.0987 69.1117C93.89 69.3583 93.0933 70.1455 92.3441 70.8663C91.5948 71.5872 90.8834 72.289 90.7696 72.4313C90.6179 72.64 90.5515 72.6779 90.4851 72.6115ZM92.3915 74.5653C92.3725 74.5843 92.2397 74.461 92.088 74.2903L91.8034 73.9962L92.0026 73.8445C92.1069 73.7591 92.2113 73.6927 92.2302 73.6927C92.2492 73.6927 92.2966 73.8824 92.3441 74.1195C92.382 74.3472 92.401 74.5463 92.3915 74.5653ZM93.3874 73.2185L93.3779 74.0721L93.1123 74.4041C92.97 74.5843 92.8467 74.736 92.8467 74.736C92.7898 74.736 92.7424 74.5938 92.7519 74.3946C92.7519 74.2618 92.7045 73.9488 92.6476 73.7117L92.5432 73.2754L92.9131 72.8486C93.1123 72.6115 93.3115 72.4028 93.3399 72.3933C93.3684 72.3744 93.3968 72.7443 93.3874 73.2185ZM94.0513 72.5925C94.0039 73.1711 93.9659 73.3228 93.8331 73.5125L93.6624 73.7307L93.6719 72.896C93.6814 72.1467 93.6909 72.0329 93.8331 71.8717C93.9659 71.7105 93.9944 71.701 94.0418 71.7958C94.0797 71.8432 94.0797 72.2037 94.0513 72.5925ZM93.7193 71.1224C93.1408 71.7105 92.4199 72.4787 92.1164 72.8296C91.8129 73.1806 91.5474 73.4651 91.5189 73.4651C91.4904 73.4651 91.3671 73.3703 91.2344 73.2659L90.9973 73.0667L91.3766 72.6399C91.5853 72.4028 92.2682 71.7484 92.8942 71.1793C93.5201 70.6103 94.4022 69.7661 94.848 69.3109C95.3981 68.7513 95.6731 68.5142 95.7016 68.5806C95.7869 68.8177 94.9902 69.8325 93.7193 71.1224ZM95.6162 70.6672C95.5783 71.1983 95.5404 71.3406 95.3791 71.5682C95.2748 71.7199 95.1799 71.8338 95.1704 71.8338C95.161 71.8338 95.1325 71.5492 95.1135 71.2078L95.0661 70.5818L95.2843 70.3068C95.6352 69.8894 95.6731 69.9369 95.6162 70.6672ZM94.3453 72.8012C94.3074 72.8012 94.3074 72.6874 94.3263 72.5451C94.3548 72.4028 94.3737 72.0614 94.3737 71.7958C94.3737 71.369 94.4022 71.2742 94.5634 71.0845C94.81 70.7905 94.8669 70.8853 94.8575 71.6156C94.8575 72.1562 94.8385 72.2131 94.6203 72.4977C94.5065 72.6589 94.3737 72.8012 94.3453 72.8012ZM101.781 84.581L101.269 84.7422C100.681 84.9224 100.358 84.9414 100.216 84.7991C100.083 84.6663 99.7515 83.8412 99.3342 82.6366C98.8979 81.3467 98.3383 80.1043 97.7123 79.0325C97.1243 78.0177 96.2043 76.3674 96.2043 76.3294C96.2043 76.3105 95.8344 75.7129 95.3696 75.0016C94.5539 73.7212 94.535 73.6927 94.6488 73.522C94.7057 73.4272 94.7816 73.3608 94.8195 73.3703C94.848 73.3892 95.1704 73.7971 95.5403 74.2808C95.9102 74.7645 96.337 75.3051 96.4888 75.4758C96.8777 75.9026 97.8451 77.3917 98.2624 78.2074C98.4521 78.5678 98.841 79.4214 99.1255 80.0948C99.6946 81.4511 100.814 83.8601 100.871 83.8601C100.89 83.8601 100.965 83.8222 101.041 83.7653C101.174 83.6705 101.174 83.661 101.022 83.329C100.795 82.8168 101.051 83.2057 101.44 83.955L101.781 84.581ZM104.56 82.0391C104.351 82.1719 104.124 82.2857 104.048 82.2857C103.925 82.2857 102.815 81.5649 102.587 81.3373C102.511 81.2614 102.587 81.2045 103.024 81.0338C103.308 80.9199 103.621 80.8251 103.716 80.8251C103.925 80.8251 104.465 81.176 104.655 81.4321C104.74 81.5459 104.835 81.6692 104.873 81.7166C104.911 81.7735 104.835 81.8589 104.56 82.0391ZM104.143 79.1368C105.556 80.2181 106.248 80.8441 106.163 80.9768C106.135 81.0243 105.916 81.1855 105.689 81.3278C105.234 81.6123 105.148 81.6408 105.148 81.508C105.148 81.3847 104.608 80.863 104.323 80.7208C104.038 80.5785 103.422 80.5595 103.109 80.6828C102.995 80.7303 102.768 80.7871 102.597 80.8156L102.293 80.863L102.35 80.3414C102.417 79.668 102.483 79.5162 102.711 79.4593C103.081 79.374 103.792 79.7249 104.807 80.5026C105.262 80.8535 105.755 81.0527 105.878 80.9294C105.926 80.882 105.897 80.8441 105.793 80.8156C105.708 80.7871 105.499 80.6354 105.319 80.4742C104.503 79.7439 103.384 79.1558 102.796 79.1558C102.502 79.1558 102.009 79.3834 101.914 79.5637C101.867 79.649 101.81 79.943 101.791 80.2276C101.762 80.5121 101.734 80.7397 101.724 80.7397C101.705 80.7397 101.535 80.6449 101.326 80.5311C100.804 80.2276 100.444 80.2465 100.064 80.5975C99.9222 80.7208 99.9222 80.7113 99.5902 79.943C98.6702 77.7806 97.7977 76.2915 96.7449 75.068C96.0335 74.2428 95.161 73.0952 95.161 72.9814C95.161 72.8391 95.5783 72.327 95.6542 72.3744C95.6826 72.3933 95.73 72.5166 95.749 72.6494C95.7775 72.7822 95.9292 73.1806 96.0999 73.522C96.394 74.129 96.4414 74.1764 97.1907 74.8024C98.1486 75.5896 99.0686 76.1872 99.8179 76.4907C100.605 76.8131 102.312 77.7047 102.663 77.9797C102.796 78.103 103.479 78.6247 104.143 79.1368ZM100.738 76.3863C100.795 76.4432 100.804 76.4812 100.776 76.4812C100.662 76.4812 99.6756 76.0164 99.1919 75.7414C98.5564 75.381 97.1148 74.2523 96.8302 73.9014C96.4603 73.4367 95.8628 72.0045 95.9861 71.8812C96.0051 71.8622 96.5742 72.4123 97.257 73.0952C97.9399 73.7781 98.9737 74.774 99.5618 75.3146C100.15 75.8457 100.681 76.3294 100.738 76.3863ZM108.591 72.3649C107.643 72.2701 99.9412 72.1183 98.7082 72.1752C98.5185 72.1847 98.3857 72.0993 97.8641 71.6251C97.5226 71.3121 97.2476 71.0465 97.2381 71.0276C97.2381 71.0086 98.0822 70.9612 99.1255 70.9232C101.108 70.8569 104.921 70.5439 105.755 70.3637C106.78 70.155 106.59 70.0791 107.548 71.056C108.012 71.5303 108.468 72.0235 108.553 72.1562C108.705 72.3554 108.705 72.3744 108.591 72.3649Z" fill="#F6C37D"/>
<path d="M53.0971 56.3921C53.2109 56.7051 53.4859 57.0371 53.6946 57.1319C53.8938 57.2173 54.3206 57.2173 54.5103 57.1319C55.1837 56.8284 55.6769 54.7039 55.4303 53.12C55.2975 52.2379 54.9086 51.5266 54.4913 51.3938C54.1878 51.2989 53.2962 51.5455 53.0022 51.8111C52.5754 52.1905 52.49 53.689 52.803 55.1971C52.9074 55.6997 53.0401 56.2404 53.0971 56.3921Z" fill="#FEF9DC"/>
<path d="M38.4055 8.165C38.3865 8.18397 38.4245 8.27882 38.4909 8.37366C38.6426 8.58232 38.8323 8.55387 38.7185 8.34521C38.6426 8.20294 38.4719 8.09861 38.4055 8.165Z" fill="#FEF9DC"/>
</svg>
