<svg width="120" height="118" viewBox="0 0 120 118" fill="none" xmlns="http://www.w3.org/2000/svg">
<path d="M108.607 58.8284C108.66 31.9541 86.9164 10.1254 60.0421 10.0727C33.1677 10.02 11.3391 31.7632 11.2864 58.6376C11.2336 85.5119 32.9769 107.341 59.8512 107.393C86.7255 107.446 108.554 85.7028 108.607 58.8284Z" stroke="#F6C37D" stroke-width="2" stroke-miterlimit="10" stroke-linecap="round" stroke-linejoin="round"/>
<path d="M60 0.871582L8.46887 85.2735H111.388L60 0.871582Z" fill="#1F160A"/>
<path d="M60 116.566L111.388 32.3071H8.46887L60 116.566Z" fill="#1F160A"/>
<path d="M84.6889 58.7185C84.6889 58.7185 73.6363 71.2065 59.9999 71.2065C46.3635 71.2065 35.3109 58.7185 35.3109 58.7185C35.3109 58.7185 46.3635 46.2305 59.9999 46.2305C73.6363 46.2305 84.6889 58.7185 84.6889 58.7185Z" stroke="#F6C37D" stroke-width="1.2" stroke-miterlimit="10" stroke-linecap="round" stroke-linejoin="round"/>
<path d="M68.0382 47.666C70.0477 49.6756 71.3396 52.5464 71.3396 55.5608C71.3396 61.733 66.3157 66.7569 60.1434 66.7569C53.9712 66.7569 48.9473 61.733 48.9473 55.5608C48.9473 52.5464 50.0956 49.8191 52.1052 47.8096" stroke="#F6C37D" stroke-width="1.2" stroke-miterlimit="10" stroke-linecap="round" stroke-linejoin="round"/>
<path d="M65.3109 55.5605C65.3109 58.5749 62.8708 61.015 59.8564 61.015C56.842 61.015 54.4019 58.5749 54.4019 55.5605C54.4019 52.5461 56.842 50.106 59.8564 50.106C63.0143 50.2495 65.3109 52.6897 65.3109 55.5605Z" fill="#F6C37D"/>
<path d="M62.8707 55.5608C62.8707 57.1397 61.5788 58.4316 59.9998 58.4316C58.4209 58.4316 57.129 57.1397 57.129 55.5608C57.129 53.9818 58.4209 52.6899 59.9998 52.6899C61.5788 52.6899 62.8707 53.9818 62.8707 55.5608Z" fill="#1F160A"/>
<path d="M60 0.871582L8.46887 85.2735H111.388L60 0.871582Z" stroke="#F6C37D" stroke-width="1.2" stroke-miterlimit="10" stroke-linecap="round" stroke-linejoin="round"/>
<path d="M60 116.566L111.388 32.3071H8.46887L60 116.566Z" stroke="#F6C37D" stroke-width="1.2" stroke-miterlimit="10" stroke-linecap="round" stroke-linejoin="round"/>
<path d="M60 36.6133V41.3501" stroke="#F6C37D" stroke-width="0.75" stroke-miterlimit="10" stroke-linecap="round" stroke-linejoin="round"/>
<path d="M54.689 37.3311L55.5502 42.0679" stroke="#F6C37D" stroke-width="0.75" stroke-miterlimit="10" stroke-linecap="round" stroke-linejoin="round"/>
<path d="M49.665 39.3408L51.6746 43.5035" stroke="#F6C37D" stroke-width="0.75" stroke-miterlimit="10" stroke-linecap="round" stroke-linejoin="round"/>
<path d="M65.3109 37.3311L64.3062 42.0679" stroke="#F6C37D" stroke-width="0.75" stroke-miterlimit="10" stroke-linecap="round" stroke-linejoin="round"/>
<path d="M70.1913 39.3408L68.1818 43.5035" stroke="#F6C37D" stroke-width="0.75" stroke-miterlimit="10" stroke-linecap="round" stroke-linejoin="round"/>
<path d="M60 80.9673V76.0869" stroke="#F6C37D" stroke-width="0.75" stroke-miterlimit="10" stroke-linecap="round" stroke-linejoin="round"/>
<path d="M65.3109 80.2495L64.3062 75.5127" stroke="#F6C37D" stroke-width="0.75" stroke-miterlimit="10" stroke-linecap="round" stroke-linejoin="round"/>
<path d="M70.1913 78.2398L68.1818 74.0771" stroke="#F6C37D" stroke-width="0.75" stroke-miterlimit="10" stroke-linecap="round" stroke-linejoin="round"/>
<path d="M54.689 80.2495L55.5502 75.5127" stroke="#F6C37D" stroke-width="0.75" stroke-miterlimit="10" stroke-linecap="round" stroke-linejoin="round"/>
<path d="M49.665 78.2398L51.6746 74.0771" stroke="#F6C37D" stroke-width="0.75" stroke-miterlimit="10" stroke-linecap="round" stroke-linejoin="round"/>
<path d="M5.59809 58.7185C5.59809 60.2974 4.30622 61.4458 2.87081 61.4458C1.29187 61.5893 0 60.2974 0 58.7185C0 57.2831 1.29187 55.9912 2.72727 55.9912C4.30622 55.9912 5.59809 57.2831 5.59809 58.7185Z" fill="#F6C37D"/>
<path d="M120 58.7185C120 60.2974 118.708 61.4458 117.273 61.4458C115.694 61.4458 114.546 60.1539 114.546 58.7185C114.546 57.1395 115.837 55.9912 117.273 55.9912C118.708 55.9912 120 57.2831 120 58.7185Z" fill="#F6C37D"/>
<path d="M28.134 11.4934C28.134 13.0723 26.8421 14.2207 25.4067 14.2207C23.9713 14.2207 22.6794 13.0723 22.6794 11.4934C22.6794 9.91444 23.9713 8.76611 25.4067 8.76611C26.8421 8.76611 28.134 10.058 28.134 11.4934Z" fill="#F6C37D"/>
<path d="M97.3205 11.4934C97.3205 13.0723 96.0286 14.2207 94.5932 14.2207C93.0143 14.2207 91.866 12.9288 91.866 11.4934C91.866 10.058 93.1578 8.76611 94.5932 8.76611C96.0286 8.76611 97.3205 10.058 97.3205 11.4934Z" fill="#F6C37D"/>
<path d="M28.134 105.943C28.134 107.522 26.8421 108.67 25.4067 108.67C23.9713 108.67 22.6794 107.378 22.6794 105.943C22.6794 104.508 23.9713 103.216 25.4067 103.216C26.8421 103.216 28.134 104.364 28.134 105.943Z" fill="#F6C37D"/>
<path d="M97.3205 105.943C97.3205 107.522 96.0286 108.67 94.5932 108.67C93.0143 108.67 91.866 107.378 91.866 105.943C91.866 104.508 93.1578 103.216 94.5932 103.216C96.0286 103.216 97.3205 104.364 97.3205 105.943Z" fill="#F6C37D"/>
</svg>
