<svg width="125" height="156" viewBox="0 0 125 156" fill="none" xmlns="http://www.w3.org/2000/svg">
<path d="M101.421 36.3351C101.022 36.6012 101.022 37.1336 101.421 37.5329C101.554 37.7991 101.82 37.9322 101.953 37.9322C102.22 37.9322 102.353 37.9322 102.486 37.7991C102.619 37.666 102.752 37.5329 102.752 37.2667C102.752 37.0005 102.752 36.7343 102.486 36.6012C102.22 36.3351 101.687 36.202 101.421 36.3351Z" fill="#F6C37D"/>
<path d="M121.12 58.1632C121.519 58.0301 121.785 57.4977 121.519 56.9653C121.386 56.4329 120.853 56.0336 120.454 56.1667C120.055 56.2998 119.922 56.8322 120.055 57.3646C120.321 57.897 120.72 58.1632 121.12 58.1632Z" fill="#F6C37D"/>
<path d="M108.874 33.1407C109.14 33.2738 109.274 33.2738 109.54 33.1407C109.673 33.0076 109.806 32.8745 109.806 32.6083C109.806 32.3421 109.673 32.0759 109.54 31.8097C109.14 31.2773 108.608 31.1442 108.209 31.4104C107.809 31.6766 107.943 32.209 108.209 32.7414C108.475 32.8745 108.608 33.0076 108.874 33.1407Z" fill="#F6C37D"/>
<path d="M83.8522 20.8956C84.2515 21.1618 84.7839 21.1618 85.0501 20.7625C85.3163 20.3632 85.0501 19.8308 84.6508 19.5646C84.2515 19.2984 83.586 19.2984 83.4529 19.6977C83.1867 20.097 83.3198 20.6294 83.8522 20.8956Z" fill="#F6C37D"/>
<path d="M88.5106 13.8414C89.043 14.1076 89.5754 14.1076 89.8416 13.8414C90.1078 13.4421 89.8416 12.9097 89.3092 12.6435C88.7768 12.2442 88.2444 12.3773 87.9782 12.6435C87.712 12.9097 87.9782 13.4421 88.5106 13.8414Z" fill="#F6C37D"/>
<path d="M63.3547 3.19354C63.887 3.32664 64.5525 3.06045 64.5525 2.66115C64.6856 2.26186 64.2863 1.86256 63.6209 1.72946C63.0885 1.59636 62.423 1.72946 62.423 2.12876C62.2899 2.66115 62.6892 3.06045 63.3547 3.19354Z" fill="#F6C37D"/>
<path d="M112.335 58.4294C111.936 58.5625 111.67 59.0949 111.803 59.6273C111.936 60.1597 112.335 60.4259 112.734 60.4259C113.134 60.2928 113.4 59.7604 113.267 59.228C113.267 58.5625 112.734 58.2963 112.335 58.4294Z" fill="#F6C37D"/>
<path d="M78.7943 26.8851C78.5281 27.2844 78.6612 27.6836 79.0605 27.9498C79.4598 28.216 79.9921 28.0829 80.1252 27.8167C80.3914 27.4175 80.2583 27.0182 79.859 26.752C79.5928 26.4858 79.0605 26.6189 78.7943 26.8851Z" fill="#F6C37D"/>
<path d="M104.216 60.692C103.817 60.8251 103.55 61.2244 103.684 61.7568C103.817 62.1561 104.216 62.4223 104.615 62.4223C105.015 62.2892 105.281 61.8899 105.148 61.3575C105.015 60.9582 104.615 60.5589 104.216 60.692Z" fill="#F6C37D"/>
<path d="M105.547 82.9195C105.547 83.3188 105.813 83.8511 106.213 83.8511C106.612 83.8511 107.011 83.585 107.011 83.0526C107.011 82.5202 106.745 82.1209 106.346 82.1209C106.08 82.1209 105.68 82.3871 105.547 82.9195Z" fill="#F6C37D"/>
<path d="M94.6328 41.5259C94.2335 41.7921 94.2335 42.3245 94.4997 42.5907C94.6328 42.7238 94.7659 42.8569 95.0321 42.99C95.1652 42.99 95.4314 42.99 95.5645 42.8569C95.6976 42.7238 95.8307 42.5907 95.8307 42.3245C95.8307 42.0583 95.8307 41.9252 95.6976 41.659C95.4314 41.3928 94.899 41.2597 94.6328 41.5259Z" fill="#F6C37D"/>
<path d="M114.065 83.5849C114.065 84.1173 114.331 84.5166 114.731 84.6497C115.13 84.6497 115.529 84.2504 115.529 83.718C115.529 83.1857 115.263 82.6533 114.864 82.6533C114.464 82.6533 114.065 83.1857 114.065 83.5849Z" fill="#F6C37D"/>
<path d="M61.4914 11.4456C62.0238 11.5787 62.5562 11.3125 62.5562 10.9132C62.6893 10.5139 62.29 10.1147 61.7576 9.98155C61.2252 9.84845 60.6928 10.1147 60.6928 10.5139C60.5597 10.9132 60.959 11.3125 61.4914 11.4456Z" fill="#F6C37D"/>
<path d="M99.0253 132.698C98.626 133.098 98.4929 133.63 98.7591 134.029C99.0253 134.295 99.6908 134.295 100.09 133.896C100.489 133.497 100.622 132.831 100.356 132.565C100.09 132.299 99.5577 132.299 99.0253 132.698Z" fill="#F6C37D"/>
<path d="M87.3128 120.453C86.9135 120.719 86.9135 121.252 87.1797 121.518C87.4459 121.784 87.9783 121.784 88.3776 121.518C88.7769 121.252 88.7769 120.719 88.5107 120.32C88.2445 120.054 87.7121 120.187 87.3128 120.453Z" fill="#F6C37D"/>
<path d="M72.9379 139.886C72.4055 140.152 72.1393 140.551 72.2724 140.95C72.4055 141.35 72.9379 141.483 73.4703 141.217C74.0027 140.95 74.2689 140.551 74.1358 140.152C73.8696 139.752 73.3372 139.619 72.9379 139.886Z" fill="#F6C37D"/>
<path d="M76.1323 147.738C75.5999 148.005 75.2006 148.537 75.4668 148.803C75.5999 149.202 76.2654 149.336 76.7978 149.069C77.3302 148.803 77.7295 148.271 77.4633 148.005C77.3302 147.605 76.6647 147.472 76.1323 147.738Z" fill="#F6C37D"/>
<path d="M93.1689 126.576C92.7696 126.975 92.6365 127.507 93.0358 127.774C93.302 128.04 93.8344 128.04 94.2337 127.641C94.633 127.241 94.7661 126.709 94.3668 126.443C94.1006 126.176 93.5682 126.176 93.1689 126.576Z" fill="#F6C37D"/>
<path d="M120.321 99.6899L98.3597 92.9018C99.8238 87.9772 100.622 82.7864 100.622 77.4624C100.622 76.6638 100.622 75.9984 100.622 75.1998L123.648 73.8688C124.048 73.8688 124.447 73.4695 124.314 73.0702C124.314 72.6709 123.915 72.2716 123.515 72.4047L100.489 73.7357C100.09 67.7463 98.6259 61.8899 96.3632 56.4329L117.393 47.116C117.792 46.9829 117.925 46.4505 117.792 46.1843C117.659 45.785 117.127 45.6519 116.86 45.785L95.8308 55.1019C93.4351 49.778 89.9745 44.7202 85.8484 40.328L101.953 23.9569C102.22 23.6907 102.22 23.1583 101.953 22.8921C101.687 22.6259 101.155 22.6259 100.889 22.8921L84.6506 38.997C80.3914 34.7379 75.4668 31.1442 70.1428 28.6153L79.5928 7.98508C79.7259 7.58578 79.5928 7.18649 79.1935 6.92029C78.7942 6.78719 78.3949 6.92029 78.1287 7.31959L68.6788 27.9498C63.2217 25.421 57.3654 23.9569 51.376 23.4245L52.9732 0.797766C52.9732 0.398471 52.707 -0.000823975 52.3077 -0.000823975C51.9084 -0.000823975 51.5091 0.265373 51.5091 0.664668L49.9119 23.2914C48.714 23.1583 47.5161 23.1583 46.3182 23.1583C43.6563 23.1583 40.9943 23.2914 38.4654 23.6907C38.0661 23.6907 37.7999 24.09 37.7999 24.3562C37.7999 24.7555 37.933 25.0217 38.3323 25.2879C48.0485 29.8132 55.9013 37.2667 61.2253 46.1843C56.5668 46.3174 52.0415 46.8498 47.6492 47.7815C43.3901 48.5801 39.264 49.778 35.2711 51.3751C17.8352 57.7639 6.52182 68.811 0 76.93V77.0631C0 77.0631 0 77.0631 0 77.1962C0 77.1962 0 77.1962 0 77.3293C0 77.3293 0 77.3293 0 77.4624C0 77.4624 0 77.4624 0 77.5955C0 77.5955 0 77.5955 0 77.7286C0 77.7286 0 77.7286 0 77.8617C0 77.8617 0 77.8617 0 77.9948C0 77.9948 0 77.9948 0 78.1279C0 78.1279 0 78.1279 0 78.261C0 78.261 0 78.3941 0.133098 78.3941C9.58308 89.9737 21.695 98.7582 35.138 104.082C39.1309 105.679 43.257 106.877 47.383 107.809H47.5161C49.7788 108.341 52.0415 108.741 54.4372 109.007C46.4513 117.658 35.6704 123.648 23.5584 125.378C23.1591 125.378 22.8929 125.777 22.8929 126.043C22.8929 126.443 23.026 126.709 23.4253 126.975C27.6845 128.972 32.0767 130.436 36.7352 131.234L32.6091 153.062C32.476 153.462 32.8753 153.861 33.2746 153.994H33.4077C33.807 153.994 34.0732 153.728 34.2063 153.329L38.1992 131.101C40.8612 131.5 43.6563 131.767 46.4513 131.767C49.7788 131.767 52.9732 131.5 56.1675 130.835L60.2936 153.195C60.4267 153.595 60.6929 153.861 61.0922 153.861H61.2253C61.6245 153.728 61.8907 153.329 61.8907 152.929L57.7647 130.569C63.621 129.371 69.3443 127.108 74.402 124.047L86.2477 143.612C86.3808 143.879 86.647 144.012 86.9132 144.012C87.0463 144.012 87.1794 144.012 87.3125 143.879C87.7118 143.612 87.8449 143.213 87.5787 142.814L75.733 123.248C79.0604 121.119 82.1217 118.723 84.9168 115.795C86.3809 114.331 87.7118 112.867 88.9097 111.269L107.011 125.511C107.144 125.644 107.277 125.644 107.41 125.644C107.677 125.644 107.81 125.511 107.943 125.378C108.209 125.112 108.076 124.579 107.81 124.313L89.5752 110.072C93.1689 105.28 95.9639 99.9561 97.8273 94.2328L119.922 101.154C120.055 101.154 120.055 101.154 120.188 101.154C120.454 101.154 120.853 100.888 120.853 100.622C120.986 100.355 120.72 99.823 120.321 99.6899ZM35.6704 102.086C22.7598 97.0279 11.0472 88.5096 1.73028 77.4624C8.119 69.4765 19.1662 58.9618 35.5373 52.8392C38.3323 51.7744 41.2605 50.8428 44.1887 50.1773C39.264 54.4364 35.5373 59.7604 33.1415 65.4836C30.3464 72.4047 29.814 79.592 31.4112 86.38C33.6739 95.1645 39.264 101.287 43.5232 104.614C40.8612 103.949 38.1992 103.15 35.6704 102.086ZM47.9154 105.812C44.3218 103.55 35.9366 97.161 33.1415 85.9807C29.814 72.804 35.6704 58.2963 47.9154 49.2456C52.4408 48.3139 57.2323 47.7815 61.8907 47.7815C63.621 50.9759 64.952 54.1702 66.0168 57.6308C65.8837 57.6308 65.7506 57.6308 65.7506 57.6308C55.1027 57.6308 46.4513 66.2822 46.4513 76.93C46.4513 86.6462 53.6386 94.6321 62.9555 95.9631C60.9591 99.9561 58.5633 103.683 55.6351 107.01C53.1063 106.744 50.4443 106.345 47.9154 105.812ZM46.1851 130.036C40.8612 130.036 35.5373 129.238 30.4795 127.641C31.2781 127.641 32.0767 127.641 33.0084 127.641C40.3288 127.641 50.7105 126.176 60.826 119.655C62.8224 118.324 64.8189 116.86 66.6823 115.262C67.0816 114.996 67.0816 114.464 66.8154 114.064C66.5492 113.665 66.0168 113.665 65.6175 113.931C63.8872 115.529 61.8907 116.86 59.8943 118.191C47.5161 126.176 34.8718 126.31 27.9507 125.644C38.9978 123.115 48.9802 117.126 56.5668 108.474C56.5668 108.474 56.5668 108.474 56.6999 108.341C65.2182 98.492 70.0098 85.8476 70.0098 72.804C70.0098 62.2892 66.9485 52.0406 61.3584 43.2561C56.6999 36.0688 50.3112 30.0794 42.9908 25.6872C49.7788 26.885 61.7576 30.6118 71.4738 41.659C73.071 43.3892 74.5351 45.2526 75.733 47.2491C75.8661 47.5153 76.1323 47.6484 76.3985 47.6484C76.5316 47.6484 76.6647 47.6484 76.7978 47.5153C77.1971 47.2491 77.3302 46.7167 77.064 46.3174C75.733 44.3209 74.2689 42.3245 72.6717 40.4611C63.7541 30.6118 52.8401 26.4858 45.6527 24.8886C45.7858 24.8886 46.052 24.8886 46.1851 24.8886C75.2006 24.8886 98.759 48.447 98.759 77.4624C98.8921 106.478 75.2006 130.036 46.1851 130.036Z" fill="#F6C37D"/>
<path d="M123.382 83.4519C122.983 83.4519 122.584 83.8512 122.584 84.5167C122.584 85.0491 122.85 85.5815 123.249 85.7146C123.649 85.7146 124.048 85.3153 124.048 84.6498C124.048 83.9843 123.782 83.4519 123.382 83.4519Z" fill="#F6C37D"/>
<path d="M99.957 103.284C99.8239 103.683 99.957 104.215 100.223 104.348C100.622 104.481 101.022 104.348 101.288 103.949C101.554 103.55 101.288 103.017 101.022 102.884C100.622 102.751 100.09 102.884 99.957 103.284Z" fill="#F6C37D"/>
<path d="M116.328 110.072C115.929 109.938 115.396 110.205 115.13 110.737C114.864 111.269 114.997 111.802 115.396 112.068C115.796 112.201 116.328 111.935 116.594 111.403C116.86 110.87 116.727 110.338 116.328 110.072Z" fill="#F6C37D"/>
<path d="M108.608 106.478C108.209 106.345 107.677 106.611 107.544 107.01C107.277 107.543 107.41 108.075 107.81 108.208C108.209 108.341 108.741 108.208 108.875 107.676C109.141 107.276 109.008 106.611 108.608 106.478Z" fill="#F6C37D"/>
<path d="M48.9803 138.155C49.5127 138.155 49.7789 137.756 49.7789 137.357C49.7789 136.957 49.3796 136.691 48.8472 136.691C48.4479 136.691 48.0486 137.091 48.0486 137.49C48.0486 137.756 48.4479 138.155 48.9803 138.155Z" fill="#F6C37D"/>
<path d="M69.6105 132.033C69.2112 132.166 68.945 132.698 69.0781 133.098C69.2112 133.497 69.7436 133.63 70.1429 133.497C70.5422 133.364 70.8083 132.831 70.6753 132.432C70.5422 132.033 70.0098 131.9 69.6105 132.033Z" fill="#F6C37D"/>
<path d="M59.6279 19.6977C60.0272 19.8308 60.5596 19.5646 60.5596 19.1653C60.6927 18.7661 60.4265 18.3668 59.8941 18.2337C59.3617 18.1006 58.9624 18.3668 58.8293 18.7661C58.8293 19.2984 59.0955 19.6977 59.6279 19.6977Z" fill="#F6C37D"/>
<path d="M49.5123 153.595C48.9799 153.595 48.4475 153.994 48.4475 154.393C48.4475 154.793 48.9799 155.192 49.5123 155.059C50.1778 155.059 50.5771 154.66 50.5771 154.26C50.5771 153.861 50.1778 153.595 49.5123 153.595Z" fill="#F6C37D"/>
<path d="M50.1781 145.875C50.1781 145.476 49.6457 145.21 49.1133 145.21C48.5809 145.21 48.1816 145.609 48.1816 146.008C48.1816 146.407 48.5809 146.807 49.2464 146.674C49.7788 146.541 50.1781 146.274 50.1781 145.875Z" fill="#F6C37D"/>
<path d="M85.7156 74.2681C85.7156 73.8688 85.3163 73.4695 84.917 73.4695C84.5177 73.4695 84.1184 73.8688 84.1184 74.2681C84.1184 74.8005 84.1184 75.3329 84.1184 75.8653C84.1184 76.2646 84.5177 76.6638 84.917 76.6638C85.3163 76.6638 85.7156 76.2646 85.7156 75.8653C85.7156 75.3329 85.7156 74.8005 85.7156 74.2681Z" fill="#F6C37D"/>
<path d="M84.5173 69.0772C84.9166 69.0772 85.3159 68.5448 85.1828 68.1455C85.0497 67.0807 84.9166 66.016 84.6504 65.0843C84.5173 64.685 84.118 64.2857 83.7187 64.4188C83.3194 64.5519 82.9201 64.9512 83.0532 65.3505C83.1863 66.2821 83.4525 67.3469 83.5856 68.4117C83.5856 68.6779 83.9849 69.0772 84.5173 69.0772C84.3842 69.0772 84.3842 69.0772 84.5173 69.0772Z" fill="#F6C37D"/>
<path d="M81.4564 59.2279C81.5895 59.6272 81.8557 59.7603 82.255 59.7603C82.3881 59.7603 82.3881 59.7603 82.5212 59.7603C82.9205 59.6272 83.1867 59.0948 83.0536 58.6956C82.3881 56.8322 81.7226 54.9688 80.924 53.1054C80.7909 52.7061 80.2585 52.4399 79.8592 52.7061C79.4599 52.8392 79.1937 53.3716 79.4599 53.7709C80.1254 55.6343 80.7909 57.3646 81.4564 59.2279Z" fill="#F6C37D"/>
<path d="M82.3879 88.3765C81.9886 88.2434 81.4562 88.5096 81.3231 88.9089C81.19 89.4413 81.0569 89.9737 80.9238 90.5061C80.7907 90.9054 81.0569 91.4378 81.4562 91.5709C81.5893 91.5709 81.5893 91.5709 81.7224 91.5709C82.1217 91.5709 82.3879 91.3047 82.521 91.0385C82.6541 90.5061 82.7872 89.9737 82.9203 89.4413C83.0534 89.042 82.7872 88.5096 82.3879 88.3765Z" fill="#F6C37D"/>
<path d="M79.9922 95.83C79.5929 95.6969 79.0605 95.83 78.9274 96.2293C78.5281 97.161 78.1288 98.0927 77.5964 99.0244C77.3302 99.4237 77.5964 99.9561 77.9957 100.089C78.1288 100.089 78.2619 100.222 78.395 100.222C78.6612 100.222 78.9274 100.089 79.1936 99.823C79.726 98.8913 80.1253 97.9596 80.5246 97.0279C80.5246 96.4955 80.3915 95.9631 79.9922 95.83Z" fill="#F6C37D"/>
<path d="M75.4668 104.082C75.0675 103.816 74.5351 103.949 74.2689 104.348C73.2041 105.945 72.0062 107.543 70.8083 109.007C70.5421 109.406 70.5421 109.938 70.9414 110.205C71.0745 110.338 71.3407 110.471 71.4738 110.471C71.74 110.471 72.0062 110.338 72.1393 110.205C73.4703 108.741 74.6682 107.143 75.733 105.413C75.9991 104.881 75.866 104.348 75.4668 104.082Z" fill="#F6C37D"/>
<path d="M9.18378 59.0949C9.31688 59.228 9.58308 59.361 9.84928 59.361C10.1155 59.361 10.2486 59.228 10.3817 59.0949C10.781 58.8287 10.781 58.2963 10.3817 57.897L5.98942 53.2385C5.72323 52.8392 5.19083 52.8392 4.79154 53.2385C4.39224 53.5047 4.39224 54.0371 4.79154 54.4364L9.18378 59.0949Z" fill="#F6C37D"/>
<path d="M15.7056 53.6378C15.8387 53.904 16.1049 54.0371 16.3711 54.0371C16.5042 54.0371 16.7704 54.0371 16.9035 53.904C17.3028 53.6378 17.3028 53.1054 17.0366 52.7061L13.3098 47.3822C13.0436 46.9829 12.5113 46.9829 12.112 47.2491C11.7127 47.5153 11.7127 48.0477 11.9789 48.447L15.7056 53.6378Z" fill="#F6C37D"/>
<path d="M23.026 49.1125C23.1591 49.3787 23.4253 49.5118 23.8246 49.5118C23.9577 49.5118 24.0908 49.5118 24.2239 49.3787C24.6232 49.1125 24.7563 48.7132 24.6232 48.3139L21.4288 42.5907C21.1626 42.1914 20.7633 42.0583 20.364 42.1914C19.9647 42.4576 19.8316 42.8569 19.9647 43.2561L23.026 49.1125Z" fill="#F6C37D"/>
<path d="M30.6125 45.5188C30.7456 45.9181 31.0118 46.0512 31.4111 46.0512C31.5442 46.0512 31.5442 46.0512 31.6773 46.0512C32.0766 45.9181 32.3428 45.3857 32.2097 44.9864L29.947 38.8639C29.8139 38.4646 29.2815 38.1984 28.8822 38.3315C28.4829 38.4646 28.2167 38.997 28.3498 39.3963L30.6125 45.5188Z" fill="#F6C37D"/>
<path d="M39.6631 43.6555H39.7962C40.1955 43.5224 40.4617 43.1231 40.4617 42.7238L38.9976 36.4681C38.8645 36.0688 38.4652 35.6695 37.9328 35.8026C37.5335 35.9357 37.2673 36.335 37.2673 36.8674L38.7314 43.1231C38.9976 43.3893 39.2638 43.6555 39.6631 43.6555Z" fill="#F6C37D"/>
<path d="M48.0484 42.3245C48.5807 42.3245 48.98 41.9252 48.8469 41.3928L48.1814 35.0041C48.1814 34.6048 47.7822 34.2055 47.2498 34.2055C46.8505 34.2055 46.4512 34.6048 46.4512 35.1372L47.1167 41.5259C47.2498 41.9252 47.6491 42.3245 48.0484 42.3245Z" fill="#F6C37D"/>
</svg>
