<svg width="180" height="152" viewBox="0 0 180 152" fill="none" xmlns="http://www.w3.org/2000/svg">
<path d="M138.364 89.8779C138.223 89.8779 138.047 89.8426 137.941 89.737C137.554 89.4904 137.448 88.9972 137.695 88.6098C143.331 79.6626 146.29 69.3417 146.29 58.7037C146.29 27.7056 121.068 2.44926 90.0351 2.44926C59.0019 2.44926 33.7455 27.6704 33.7455 58.7037C33.7455 69.3064 36.7044 79.6626 42.3404 88.6098C42.587 88.9972 42.4813 89.4904 42.0938 89.737C41.7064 89.9835 41.2132 89.8779 40.9666 89.4904C35.1897 80.2966 32.1252 69.6235 32.1252 58.7037C32.0899 26.7546 58.086 0.793686 89.9999 0.793686C121.914 0.793686 147.91 26.7546 147.91 58.7037C147.91 69.6235 144.845 80.2614 139.068 89.4904C138.892 89.737 138.61 89.8779 138.364 89.8779Z" fill="#F6C37D"/>
<path d="M52.5556 102.594C52.3443 102.594 52.1682 102.524 51.992 102.383C51.8864 102.312 51.8159 102.207 51.7807 102.101C51.6046 101.678 51.7807 101.185 52.2034 101.009C52.5204 100.868 52.9079 100.939 53.1545 101.185C53.4715 101.502 53.4715 102.03 53.1545 102.347C52.9783 102.524 52.767 102.594 52.5556 102.594Z" fill="#F6C37D"/>
<path d="M136.462 74.5901C136.039 74.5901 135.687 74.3083 135.652 73.8856C135.581 73.4277 135.898 73.005 136.356 72.9346C139.456 72.5119 142.45 72.0187 145.303 71.4903C166.016 67.7213 178.344 62.0853 178.344 56.3788C178.344 50.4962 165.452 44.7545 143.859 40.9855C143.401 40.915 143.119 40.4923 143.19 40.0344C143.26 39.5765 143.683 39.2947 144.141 39.3651C154.885 41.232 163.832 43.6978 169.926 46.4453C176.583 49.4395 179.965 52.7858 179.965 56.3788C179.965 65.5373 158.407 70.7858 145.55 73.1459C142.697 73.6743 139.667 74.1322 136.532 74.5901C136.532 74.5901 136.497 74.5901 136.462 74.5901Z" fill="#F6C37D"/>
<path d="M44.4892 74.6958C44.454 74.6958 44.4188 74.6958 44.3836 74.6958C40.9315 74.2379 37.5851 73.7095 34.4149 73.1107C21.5577 70.8211 0 65.5373 0 56.3788C0 52.7858 3.3816 49.4395 10.0391 46.4453C16.1683 43.6978 25.0802 41.232 35.8239 39.3651C36.2818 39.2947 36.7045 39.5765 36.775 40.0344C36.8454 40.4923 36.5636 40.915 36.1057 40.9855C14.5127 44.7545 1.62035 50.4962 1.62035 56.3788C1.62035 62.0853 13.9843 67.7565 34.6614 71.4903C37.7965 72.0539 41.1076 72.5823 44.5597 73.0402C45.0176 73.1107 45.3346 73.5334 45.2642 73.9561C45.229 74.414 44.8767 74.6958 44.4892 74.6958Z" fill="#F6C37D"/>
<path d="M90 52.0814C79.6439 52.0814 71.2955 43.6978 71.2955 33.3769C71.2955 31.6156 71.5421 29.8896 72 28.2692C74.2192 36.1244 81.4403 41.9013 90.0353 41.9013C98.5949 41.9013 105.816 36.1244 108.07 28.2692C108.528 29.8896 108.775 31.6156 108.775 33.3769C108.705 43.6978 100.321 52.0814 90 52.0814Z" fill="#F6C37D"/>
<path d="M90 52.7154C79.3268 52.7154 70.6262 44.0148 70.6262 33.3416C70.6262 31.5452 70.8728 29.7839 71.3659 28.0579C71.4364 27.7761 71.683 27.5999 72 27.5999C72.2818 27.5999 72.5284 27.7761 72.634 28.0579C74.818 35.8074 81.9687 41.1968 90.0352 41.1968C98.1018 41.1968 105.252 35.8074 107.436 28.0579C107.507 27.7761 107.753 27.5999 108.07 27.5999C108.352 27.5999 108.599 27.7761 108.705 28.0579C109.198 29.7839 109.444 31.5452 109.444 33.3416C109.374 44.0501 100.673 52.7154 90 52.7154ZM72.1409 30.6293C72 31.5099 71.9295 32.4258 71.9295 33.3416C71.9295 43.3103 80.0313 51.4121 90 51.4121C99.9687 51.4121 108.07 43.3103 108.07 33.3416C108.07 32.4258 108 31.5099 107.859 30.6293C104.865 37.7448 97.82 42.5001 90 42.5001C82.1448 42.5354 75.0998 37.7448 72.1409 30.6293Z" fill="#F6C37D"/>
<path d="M152.207 21.0833C151.961 21.0833 151.714 20.9776 151.538 20.8015C151.186 20.4493 151.186 19.8504 151.538 19.463L152.489 18.5119C152.841 18.1596 153.44 18.1596 153.828 18.5119C154.18 18.8641 154.18 19.463 153.828 19.8504L152.877 20.8015C152.7 21.0129 152.454 21.0833 152.207 21.0833Z" fill="#F6C37D"/>
<path d="M149.178 24.1479C148.931 24.1479 148.685 24.0422 148.509 23.8661C148.156 23.5138 148.156 22.915 148.509 22.5275L149.46 21.5765C149.812 21.2242 150.411 21.2242 150.798 21.5765C151.151 21.9287 151.151 22.5275 150.798 22.915L149.847 23.8661C149.636 24.0422 149.425 24.1479 149.178 24.1479Z" fill="#F6C37D"/>
<path d="M150.094 21.0833C149.847 21.0833 149.601 20.9776 149.425 20.8015L148.474 19.8504C148.121 19.4982 148.121 18.8994 148.474 18.5119C148.826 18.1596 149.425 18.1596 149.812 18.5119L150.763 19.463C151.115 19.8152 151.115 20.414 150.763 20.8015C150.587 21.0129 150.34 21.0833 150.094 21.0833Z" fill="#F6C37D"/>
<path d="M153.159 24.1479C152.912 24.1479 152.665 24.0422 152.489 23.8661L151.538 22.915C151.186 22.5628 151.186 21.9639 151.538 21.5765C151.89 21.2242 152.489 21.2242 152.877 21.5765L153.828 22.5275C154.18 22.8798 154.18 23.4786 153.828 23.8661C153.617 24.0422 153.405 24.1479 153.159 24.1479Z" fill="#F6C37D"/>
<path d="M26.4891 82.3044C26.2425 82.3044 25.996 82.1988 25.8199 82.0226C25.4676 81.6704 25.4676 81.0716 25.8199 80.6841L26.7709 79.733C27.1232 79.3808 27.722 79.3808 28.1095 79.733C28.4617 80.0853 28.4617 80.6841 28.1095 81.0716L27.1584 82.0226C26.9471 82.234 26.7357 82.3044 26.4891 82.3044Z" fill="#F6C37D"/>
<path d="M23.4246 85.3338C23.178 85.3338 22.9314 85.2281 22.7553 85.052C22.403 84.6997 22.403 84.1009 22.7553 83.7134L23.7064 82.7624C24.0586 82.4101 24.6574 82.4101 25.0449 82.7624C25.3972 83.1146 25.3972 83.7134 25.0449 84.1009L24.0938 85.052C23.9177 85.2633 23.6711 85.3338 23.4246 85.3338Z" fill="#F6C37D"/>
<path d="M24.3756 82.3044C24.1291 82.3044 23.8825 82.1988 23.7064 82.0226L22.7553 81.0716C22.403 80.7193 22.403 80.1205 22.7553 79.733C23.1075 79.3808 23.7064 79.3808 24.0938 79.733L25.0449 80.6841C25.3972 81.0363 25.3972 81.6352 25.0449 82.0226C24.8688 82.1988 24.6222 82.3044 24.3756 82.3044Z" fill="#F6C37D"/>
<path d="M27.4049 85.3338C27.1584 85.3338 26.9118 85.2281 26.7357 85.052L25.7846 84.1009C25.4323 83.7486 25.4323 83.1498 25.7846 82.7624C26.1368 82.4101 26.7357 82.4101 27.1231 82.7624L28.0742 83.7134C28.4265 84.0657 28.4265 84.6645 28.0742 85.052C27.8981 85.2633 27.6515 85.3338 27.4049 85.3338Z" fill="#F6C37D"/>
<path d="M127.726 49.2281C127.479 49.2281 127.233 49.1224 127.057 48.9463C126.704 48.5941 126.704 47.9952 127.057 47.6078L128.008 46.6567C128.36 46.3044 128.959 46.3044 129.346 46.6567C129.699 47.0089 129.699 47.6078 129.346 47.9952L128.395 48.9463C128.219 49.1224 127.973 49.2281 127.726 49.2281Z" fill="#F6C37D"/>
<path d="M124.697 52.2575C124.45 52.2575 124.203 52.1518 124.027 51.9757C123.675 51.6234 123.675 51.0246 124.027 50.6371L124.978 49.686C125.331 49.3338 125.93 49.3338 126.317 49.686C126.669 50.0383 126.669 50.6371 126.317 51.0246L125.366 51.9757C125.155 52.1518 124.943 52.2575 124.697 52.2575Z" fill="#F6C37D"/>
<path d="M125.613 49.2281C125.366 49.2281 125.119 49.1224 124.943 48.9463L123.992 47.9952C123.64 47.643 123.64 47.0442 123.992 46.6567C124.344 46.3044 124.943 46.3044 125.331 46.6567L126.282 47.6078C126.634 47.96 126.634 48.5588 126.282 48.9463C126.106 49.1224 125.859 49.2281 125.613 49.2281Z" fill="#F6C37D"/>
<path d="M128.677 52.2575C128.431 52.2575 128.184 52.1518 128.008 51.9757L127.057 51.0246C126.705 50.6723 126.705 50.0735 127.057 49.686C127.409 49.3338 128.008 49.3338 128.395 49.686L129.346 50.6371C129.699 50.9894 129.699 51.5882 129.346 51.9757C129.135 52.1518 128.888 52.2575 128.677 52.2575Z" fill="#F6C37D"/>
<path d="M115.855 53.8426H115.785C115.256 53.8426 114.834 53.4199 114.834 52.8915C114.834 52.3632 115.256 51.9405 115.785 51.9405H115.855C116.384 51.9405 116.806 52.3632 116.806 52.8915C116.806 53.4199 116.384 53.8426 115.855 53.8426Z" fill="#F6C37D"/>
<path d="M157.879 32.0031H157.808C157.28 32.0031 156.857 31.5804 156.857 31.052C156.857 30.5236 157.28 30.1009 157.808 30.1009H157.879C158.407 30.1009 158.83 30.5236 158.83 31.052C158.83 31.5804 158.407 32.0031 157.879 32.0031Z" fill="#F6C37D"/>
<path d="M13.9491 78.6763H13.8787C13.3503 78.6763 12.9276 78.2536 12.9276 77.7252C12.9276 77.1968 13.3503 76.7741 13.8787 76.7741H13.9491C14.4775 76.7741 14.9002 77.1968 14.9002 77.7252C14.9002 78.2536 14.4775 78.6763 13.9491 78.6763Z" fill="#F6C37D"/>
<path d="M30.8218 94.5275H30.7514C30.223 94.5275 29.8003 94.1048 29.8003 93.5765C29.8003 93.0481 30.223 92.6254 30.7514 92.6254H30.8218C31.3502 92.6254 31.7729 93.0481 31.7729 93.5765C31.7729 94.1048 31.3502 94.5275 30.8218 94.5275Z" fill="#F6C37D"/>
<path d="M160.873 15.1303H160.802C160.274 15.1303 159.851 14.7076 159.851 14.1792C159.851 13.6508 160.274 13.2281 160.802 13.2281H160.873C161.401 13.2281 161.824 13.6508 161.824 14.1792C161.824 14.7076 161.366 15.1303 160.873 15.1303Z" fill="#F6C37D"/>
<path d="M140.337 13.4747H140.266C139.738 13.4747 139.315 13.052 139.315 12.5236C139.315 11.9953 139.738 11.5726 140.266 11.5726H140.337C140.865 11.5726 141.288 11.9953 141.288 12.5236C141.288 13.052 140.865 13.4747 140.337 13.4747Z" fill="#F6C37D"/>
<path d="M90.0353 89.8426H89.9649C89.4365 89.8426 89.0138 89.4199 89.0138 88.8916C89.0138 88.3632 89.4365 87.9405 89.9649 87.9405H90.0353C90.5637 87.9405 90.9864 88.3632 90.9864 88.8916C90.9864 89.4199 90.5637 89.8426 90.0353 89.8426Z" fill="#F6C37D"/>
<path d="M90.0353 84.1362H89.9649C89.4365 84.1362 89.0138 83.7135 89.0138 83.1851C89.0138 82.6567 89.4365 82.234 89.9649 82.234H90.0353C90.5637 82.234 90.9864 82.6567 90.9864 83.1851C90.9864 83.7135 90.5637 84.1362 90.0353 84.1362Z" fill="#F6C37D"/>
<path d="M90.0353 78.3945H89.9649C89.4365 78.3945 89.0138 77.9718 89.0138 77.4434C89.0138 76.915 89.4365 76.4923 89.9649 76.4923H90.0353C90.5637 76.4923 90.9864 76.915 90.9864 77.4434C90.9864 77.9718 90.5637 78.3945 90.0353 78.3945Z" fill="#F6C37D"/>
<path d="M90.0353 136.727H89.9649C89.4365 136.727 89.0138 136.304 89.0138 135.776C89.0138 135.248 89.4365 134.825 89.9649 134.825H90.0353C90.5637 134.825 90.9864 135.248 90.9864 135.776C90.9864 136.304 90.5637 136.727 90.0353 136.727Z" fill="#F6C37D"/>
<path d="M90.0353 130.985H89.9649C89.4365 130.985 89.0138 130.563 89.0138 130.034C89.0138 129.506 89.4365 129.083 89.9649 129.083H90.0353C90.5637 129.083 90.9864 129.506 90.9864 130.034C90.9864 130.563 90.5637 130.985 90.0353 130.985Z" fill="#F6C37D"/>
<path d="M90.0353 125.279H89.9649C89.4365 125.279 89.0138 124.856 89.0138 124.328C89.0138 123.8 89.4365 123.377 89.9649 123.377H90.0353C90.5637 123.377 90.9864 123.8 90.9864 124.328C90.9864 124.856 90.5637 125.279 90.0353 125.279Z" fill="#F6C37D"/>
<path d="M90.0353 72.688H89.9649C89.4365 72.688 89.0138 72.2653 89.0138 71.7369C89.0138 71.2086 89.4365 70.7859 89.9649 70.7859H90.0353C90.5637 70.7859 90.9864 71.2086 90.9864 71.7369C90.9864 72.2653 90.5637 72.688 90.0353 72.688Z" fill="#F6C37D"/>
<path d="M89.8592 151.346C89.5774 151.346 89.3308 151.205 89.1547 150.958L79.6791 135.776C76.9316 131.373 76.2271 127.216 77.6009 123.447C79.2564 118.833 83.5891 115.874 86.6185 114.324C81.9335 113.62 78.4815 111.365 76.2975 107.631C71.6126 99.5648 74.184 86.1792 79.0099 77.69C85.6674 65.9953 89.2251 58.3162 89.2604 58.2458C89.4365 57.8231 89.9296 57.6469 90.3523 57.8583C90.775 58.0344 90.9512 58.5276 90.7398 58.9503C90.7046 59.0207 87.1116 66.735 80.4541 78.5354C75.8044 86.7428 73.5148 99.5648 77.7418 106.821C80.1018 110.872 84.2232 112.95 90.0001 112.95C90.4228 112.95 90.7398 113.232 90.8103 113.655C90.8807 114.042 90.6341 114.43 90.2467 114.571C90.1762 114.606 81.4404 117.6 79.1508 124.081C77.9883 127.357 78.6224 131.021 81.0881 134.966L90.5637 150.148C90.8103 150.535 90.6694 151.029 90.2819 151.275C90.141 151.31 90.0001 151.346 89.8592 151.346Z" fill="#F6C37D"/>
<path d="M76.3326 114.148C76.2622 114.148 76.1917 114.148 76.1213 114.113C64.8845 111.189 59.9178 95.2321 58.7553 86.2849C57.6281 77.6195 51.499 75.1186 51.2524 75.0129C50.9002 74.872 50.6888 74.5197 50.724 74.1323C50.7593 73.7448 51.0763 73.463 51.4638 73.4278C61.045 72.4767 67.4912 75.8935 71.225 78.9229C75.2407 82.1988 77.0019 85.6861 77.0724 85.827C77.2837 86.2497 77.1076 86.7428 76.6849 86.919C76.2622 87.1303 75.769 86.9542 75.5929 86.5315C75.5929 86.4963 73.9021 83.1851 70.133 80.1205C65.7299 76.5628 60.4109 74.8015 54.317 74.9072C56.5714 76.598 59.636 79.9796 60.4109 86.0736C61.5381 94.6332 66.1878 109.815 76.544 112.492C77.0019 112.598 77.2485 113.056 77.1428 113.514C77.0371 113.901 76.7201 114.148 76.3326 114.148Z" fill="#F6C37D"/>
<path d="M62.8767 132.712C59.8121 132.712 56.6066 132.218 53.5421 130.809C53.2603 130.668 53.0489 130.387 53.0489 130.07C53.0489 129.964 53.1546 119.185 62.8415 115.663C56.9941 112.563 39.6986 102.348 38.7475 89.3142C38.7123 88.8915 39.0293 88.5041 39.452 88.4336C40.1918 88.3279 57.91 86.0383 62.2427 94.5628C62.454 94.9855 62.2779 95.4786 61.8904 95.69C61.4677 95.9013 60.9746 95.7252 60.7632 95.3377C57.4168 88.7859 43.8904 89.6665 40.4736 90.0187C42.3053 104.074 65.2016 115.064 65.4481 115.169C65.7652 115.31 65.9413 115.663 65.9061 116.015C65.8708 116.367 65.6243 116.649 65.272 116.719C56.043 118.798 54.8806 127.322 54.7045 129.576C64.9902 133.874 77.2837 127.674 77.3894 127.604C77.8121 127.393 78.3053 127.569 78.5166 127.956C78.728 128.379 78.5518 128.872 78.1644 129.083C77.7769 129.224 70.8728 132.712 62.8767 132.712Z" fill="#F6C37D"/>
<path d="M76.3328 106.715C76.2976 106.715 76.2271 106.715 76.1919 106.715C67.7379 105.236 61.5735 81.7761 61.3269 80.7546C61.2212 80.2966 61.4678 79.8739 61.9257 79.733C62.3484 79.6274 62.8063 79.8739 62.9472 80.3319C64.638 86.8485 70.3445 104.003 76.5089 105.06C76.9668 105.13 77.2486 105.553 77.1782 106.011C77.0725 106.434 76.7203 106.715 76.3328 106.715Z" fill="#F6C37D"/>
<path d="M53.8591 130.88C53.6478 130.88 53.4012 130.774 53.2603 130.598C52.9433 130.246 52.9785 129.753 53.3307 129.436C53.8943 128.907 67.4912 116.719 83.5538 116.367C84.0118 116.367 84.3992 116.719 84.3992 117.177C84.3992 117.635 84.047 118.023 83.5891 118.023C68.1253 118.375 54.5636 130.528 54.4227 130.668C54.2818 130.809 54.0705 130.88 53.8591 130.88Z" fill="#F6C37D"/>
<path d="M69.7103 115.275C69.6399 115.275 69.6047 115.275 69.5342 115.275C60.0939 113.373 47.9765 97.8035 47.4833 97.1342C47.2015 96.782 47.272 96.2536 47.6242 95.9718C47.9765 95.69 48.5049 95.7604 48.7867 96.1127C48.8923 96.2536 61.045 111.858 69.8512 113.619C70.3092 113.725 70.591 114.148 70.4853 114.606C70.4501 114.993 70.0978 115.275 69.7103 115.275Z" fill="#F6C37D"/>
<path d="M90.1408 151.346C89.9999 151.346 89.8238 151.31 89.7181 151.205C89.3306 150.958 89.225 150.465 89.4363 150.077L98.9118 134.895C101.378 130.95 102.012 127.287 100.849 124.011C98.5244 117.53 89.8238 114.535 89.7533 114.5C89.3659 114.359 89.1193 113.972 89.1897 113.584C89.2602 113.197 89.6124 112.88 89.9999 112.88C95.7768 112.88 99.8981 110.837 102.258 106.751C106.485 99.4943 104.196 86.6372 99.5459 78.4649C92.8531 66.6998 89.2954 58.9855 89.2602 58.8798C89.0841 58.4571 89.2602 57.964 89.6477 57.7878C90.0704 57.6117 90.5635 57.7878 90.7396 58.1753C90.7749 58.2458 94.3326 65.9248 100.99 77.6195C105.816 86.1088 108.387 99.4943 103.702 107.561C101.519 111.295 98.0664 113.549 93.3815 114.254C96.4109 115.803 100.744 118.762 102.399 123.377C103.738 127.146 103.033 131.303 100.321 135.706L90.8453 150.888C90.7044 151.205 90.4226 151.346 90.1408 151.346Z" fill="#F6C37D"/>
<path d="M103.667 114.148C103.315 114.148 102.963 113.901 102.857 113.514C102.751 113.056 102.998 112.633 103.456 112.492C113.812 109.78 118.462 94.598 119.589 86.0736C120.399 79.9796 123.464 76.598 125.683 74.9072C119.589 74.8015 114.27 76.5628 109.867 80.1205C106.098 83.1851 104.407 86.4962 104.407 86.5315C104.196 86.9542 103.703 87.0951 103.315 86.919C102.892 86.7076 102.751 86.2144 102.928 85.827C102.998 85.6861 104.724 82.1988 108.775 78.9229C112.474 75.8935 118.92 72.5119 128.536 73.4277C128.924 73.463 129.241 73.7448 129.276 74.1322C129.311 74.5197 129.1 74.872 128.748 75.0129C128.501 75.1185 122.372 77.6195 121.245 86.2849C120.082 95.2321 115.115 111.189 103.879 114.113C103.808 114.148 103.738 114.148 103.667 114.148Z" fill="#F6C37D"/>
<path d="M117.123 132.711C109.127 132.711 102.223 129.224 101.836 129.013C101.413 128.801 101.272 128.308 101.483 127.886C101.695 127.463 102.188 127.322 102.611 127.533C102.751 127.604 115.01 133.803 125.295 129.506C125.155 127.252 123.992 118.727 114.728 116.649C114.376 116.578 114.129 116.297 114.094 115.944C114.059 115.592 114.235 115.24 114.552 115.099C114.798 114.993 137.695 104.003 139.526 89.9483C136.074 89.596 122.548 88.7154 119.237 95.2673C119.025 95.69 118.532 95.8309 118.11 95.6195C117.687 95.4082 117.546 94.915 117.757 94.4923C122.09 86.0031 139.808 88.2927 140.548 88.3632C140.971 88.4336 141.288 88.8211 141.252 89.2438C140.301 102.277 123.006 112.492 117.158 115.592C126.881 119.115 126.951 129.893 126.951 129.999C126.951 130.316 126.775 130.633 126.458 130.739C123.393 132.218 120.188 132.711 117.123 132.711Z" fill="#F6C37D"/>
<path d="M103.667 106.715C103.28 106.715 102.928 106.434 102.857 106.046C102.787 105.588 103.069 105.166 103.526 105.095C109.656 104.038 115.397 86.8837 117.088 80.3671C117.194 79.9092 117.652 79.6626 118.11 79.7683C118.568 79.8739 118.814 80.3319 118.708 80.7898C118.462 81.7761 112.262 105.271 103.843 106.751C103.738 106.715 103.703 106.715 103.667 106.715Z" fill="#F6C37D"/>
<path d="M126.141 130.88C125.93 130.88 125.753 130.809 125.577 130.668C125.436 130.563 111.875 118.375 96.411 118.023C95.9531 118.023 95.6008 117.635 95.6008 117.177C95.6008 116.719 95.9883 116.367 96.4462 116.367C112.544 116.719 126.106 128.907 126.669 129.436C127.022 129.753 127.022 130.281 126.74 130.598C126.564 130.809 126.352 130.88 126.141 130.88Z" fill="#F6C37D"/>
<path d="M110.29 115.275C109.902 115.275 109.55 114.993 109.479 114.606C109.374 114.148 109.691 113.725 110.113 113.619C118.955 111.823 131.072 96.2536 131.178 96.1127C131.46 95.7604 131.988 95.69 132.34 95.9718C132.693 96.2536 132.763 96.782 132.481 97.1342C131.953 97.8035 119.871 113.338 110.43 115.275C110.395 115.24 110.325 115.275 110.29 115.275Z" fill="#F6C37D"/>
<path d="M89.9649 108.23C84.2232 108.23 79.5735 103.58 79.5735 97.8387C79.5735 97.3808 79.961 97.0285 80.3837 97.0285C80.8064 97.0285 81.1938 97.416 81.1938 97.8387C81.1938 102.665 85.1038 106.575 89.9297 106.575C94.7555 106.575 98.6655 102.665 98.6655 97.8387C98.6655 97.3808 99.0529 97.0285 99.4756 97.0285C99.8983 97.0285 100.286 97.416 100.286 97.8387C100.356 103.58 95.7066 108.23 89.9649 108.23Z" fill="#F6C37D"/>
</svg>
