<svg width="136" height="157" viewBox="0 0 136 157" fill="none" xmlns="http://www.w3.org/2000/svg">
<path d="M134.752 116.653C125.789 114.126 118.176 108.763 112.708 101.703L130.288 78.9331C130.53 78.587 130.53 78.1372 130.288 77.7911L110.736 52.4603C116.238 44.0513 124.647 37.5802 134.752 34.708C135.098 34.6041 135.34 34.2927 135.34 33.912C135.34 33.5314 135.098 33.2199 134.752 33.1161C130.841 32.0088 126.793 31.4551 122.709 31.4551C114.231 31.4551 106.306 33.8428 99.5931 37.9954L70.4557 0.345226C70.2827 0.102991 70.0058 -0.000823975 69.729 -0.000823975C69.4521 -0.000823975 69.1753 0.137596 69.0023 0.345226L11.4888 75.784C7.05941 74.6767 3.42589 71.2854 2.14551 66.7868C2.04169 66.4407 1.73025 66.1985 1.34959 66.1985C0.968939 66.1985 0.657494 66.4407 0.553679 66.7868C0.20763 68.0671 0 69.4167 0 70.7317C0 78.7255 6.50573 85.2658 14.5341 85.2658C14.5687 85.2658 14.6379 85.2658 14.6725 85.2658L68.9677 156.483C69.1407 156.725 69.4175 156.829 69.6944 156.829C69.9712 156.829 70.2481 156.69 70.4211 156.483L102.431 115.026C108.487 118.175 115.373 119.94 122.675 119.94C126.758 119.94 130.807 119.386 134.717 118.279C135.063 118.175 135.305 117.864 135.305 117.483C135.34 117.102 135.098 116.756 134.752 116.653ZM128.419 78.414L111.601 100.215C106.652 93.1903 103.815 84.7121 103.815 75.7494C103.815 67.9979 105.96 60.5925 109.698 54.1905L128.419 78.414ZM69.729 154.372L16.8872 85.0582C23.8082 83.9508 29.1028 77.9295 29.1028 70.7317C29.1028 69.3821 28.9297 68.0671 28.5491 66.7868C28.4453 66.4407 28.1338 66.1985 27.7532 66.1985C27.3725 66.1985 27.0611 66.4407 26.9573 66.7868C25.4 72.3235 20.2785 76.1647 14.5341 76.1647C14.188 76.1647 13.842 76.1647 13.4959 76.1301L69.729 2.42152L98.0359 39.1028C86.2702 47.0619 78.5187 60.4886 78.5187 75.7148C78.5187 92.1176 87.5159 106.479 100.839 114.092L69.729 154.372Z" fill="#F6C37D"/>
<path d="M74.2968 53.8099C74.6428 53.7061 74.885 53.3946 74.885 53.014C74.885 52.6333 74.6428 52.3219 74.2968 52.2181C72.1512 51.5952 69.9019 51.3183 67.6526 51.3183C54.1913 51.3183 43.2561 62.2535 43.2561 75.7148C43.2561 89.1762 54.1913 100.111 67.6526 100.111C69.9019 100.111 72.1512 99.7999 74.2968 99.2116C74.6428 99.1078 74.885 98.7963 74.885 98.4157C74.885 98.035 74.6428 97.7236 74.2968 97.6198C64.5382 94.8514 57.7556 85.8541 57.7556 75.7148C57.7556 65.5756 64.5728 56.5783 74.2968 53.8099Z" fill="#F6C37D"/>
<path d="M74.02 36.369H73.9508C73.4317 36.369 73.0165 36.7842 73.0165 37.3033C73.0165 37.8224 73.4317 38.2377 73.9508 38.2377H74.02C74.5391 38.2377 74.9544 37.8224 74.9544 37.3033C74.9544 36.7842 74.5391 36.369 74.02 36.369Z" fill="#F6C37D"/>
<path d="M70.1096 133.471H70.0404C69.5213 133.471 69.1061 133.886 69.1061 134.405C69.1061 134.924 69.5213 135.339 70.0404 135.339H70.1096C70.6287 135.339 71.044 134.924 71.044 134.405C71.044 133.886 70.6287 133.471 70.1096 133.471Z" fill="#F6C37D"/>
<path d="M65.7147 117.033H65.6455C65.1264 117.033 64.7112 117.448 64.7112 117.967C64.7112 118.487 65.1264 118.902 65.6455 118.902H65.7147C66.2338 118.902 66.6491 118.487 66.6491 117.967C66.6491 117.448 66.2338 117.033 65.7147 117.033Z" fill="#F6C37D"/>
<path d="M114.923 78.4486H114.992C115.511 78.4486 115.927 78.0334 115.927 77.5143C115.927 76.9952 115.511 76.58 114.992 76.58H114.923C114.404 76.58 113.989 76.9952 113.989 77.5143C114.023 78.0334 114.439 78.4486 114.923 78.4486Z" fill="#F6C37D"/>
<path d="M74.1238 23.2191H74.0546C73.5355 23.2191 73.1202 23.6344 73.1202 24.1535C73.1202 24.6725 73.5355 25.0878 74.0546 25.0878H74.1238C74.6429 25.0878 75.0581 24.6725 75.0581 24.1535C75.0581 23.6344 74.6429 23.2191 74.1238 23.2191Z" fill="#F6C37D"/>
<path d="M83.2248 117.033H83.1556C82.6366 117.033 82.2213 117.448 82.2213 117.967C82.2213 118.487 82.6366 118.902 83.1556 118.902H83.2248C83.7439 118.902 84.1592 118.487 84.1592 117.967C84.1592 117.448 83.7439 117.033 83.2248 117.033Z" fill="#F6C37D"/>
<path d="M54.5027 110.77H54.4335C53.9144 110.77 53.4991 111.185 53.4991 111.704C53.4991 112.223 53.9144 112.638 54.4335 112.638H54.5027C55.0218 112.638 55.437 112.223 55.437 111.704C55.4024 111.185 54.9872 110.77 54.5027 110.77Z" fill="#F6C37D"/>
<path d="M59.0361 33.2545H59.1054C59.6244 33.2545 60.0397 32.8393 60.0397 32.3202C60.0397 31.8011 59.6244 31.3859 59.1054 31.3859H59.0361C58.5171 31.3859 58.1018 31.8011 58.1018 32.3202C58.1364 32.8739 58.5517 33.2545 59.0361 33.2545Z" fill="#F6C37D"/>
<path d="M41.1799 95.4051H41.1107C40.5917 95.4051 40.1764 95.8203 40.1764 96.3394C40.1764 96.8585 40.5917 97.2738 41.1107 97.2738H41.1799C41.699 97.2738 42.1143 96.8585 42.1143 96.3394C42.1143 95.8203 41.6644 95.4051 41.1799 95.4051Z" fill="#F6C37D"/>
<path d="M50.9385 47.5464H51.0077C51.5268 47.5464 51.942 47.1311 51.942 46.6121C51.942 46.093 51.5268 45.6777 51.0077 45.6777H50.9385C50.4194 45.6777 50.0042 46.093 50.0042 46.6121C50.0388 47.1311 50.454 47.5464 50.9385 47.5464Z" fill="#F6C37D"/>
</svg>
